<svg class="dn" height="0" version="1.1" width="0"
     xmlns="http://www.w3.org/2000/svg">
    <defs>
        <g id="hpa-profile">
            <path d="M8.17949 7.38462C6.49506 7.38462 5.11651 6.00671 5.11651 4.32164H3.88575C3.88575 6.68665 5.81551 8.61538 8.17949 8.61538V7.38462ZM5.11651 4.32164C5.11651 2.63052 6.50109 1.23077 8.17949 1.23077V0C5.80948 0 3.88575 1.96271 3.88575 4.32164H5.11651ZM8.17949 1.23077C9.86392 1.23077 11.2424 2.60868 11.2424 4.29374H12.4732C12.4732 1.92876 10.5435 0 8.17949 0V1.23077ZM11.2424 4.29374C11.2424 5.98487 9.85789 7.38462 8.17949 7.38462V8.61538C10.5495 8.61538 12.4732 6.65268 12.4732 4.29374H11.2424ZM13.9231 14.7692H2.4359V16H13.9231V14.7692ZM2.4359 14.7692C2.32448 14.7692 2.23077 14.6755 2.23077 14.5641H1C1 15.3553 1.64475 16 2.4359 16V14.7692ZM2.23077 14.5641V13.7436H1V14.5641H2.23077ZM2.23077 13.7436C2.23077 12.2783 3.43218 11.0769 4.89744 11.0769V9.84615C2.75244 9.84615 1 11.5986 1 13.7436H2.23077ZM4.89744 11.0769H11.4615V9.84615H4.89744V11.0769ZM11.4615 11.0769C12.9268 11.0769 14.1282 12.2783 14.1282 13.7436H15.359C15.359 11.5986 13.6066 9.84615 11.4615 9.84615V11.0769ZM14.1282 13.7436V14.5641H15.359V13.7436H14.1282ZM14.1282 14.5641C14.1282 14.6755 14.0345 14.7692 13.9231 14.7692V16C14.7143 16 15.359 15.3553 15.359 14.5641H14.1282Z" />
        </g>
        <g id="hpa-search">
            <circle cx="7" cy="7" r="6" stroke="#88765E" stroke-width="2"/>
            <path d="M11.5 11L15.5 15" stroke="#88765E" stroke-width="2" stroke-linecap="round"/>
        </g>
        <g id="hpa-hamburguer-menu">
            <path fill-rule="evenodd" clip-rule="evenodd" d="M0 5.22222V3H20V5.22222H0ZM0 10.7778H20V8.55556H0V10.7778ZM0 16.3333H20V14.1111H0V16.3333Z" />
        </g>
        <g id="hpa-delete">
            <path d='M12.74,11,8.32,6.55l4.42-4.42A1.25,1.25,0,0,0,11,.37L6.55,4.79,2.13.37A1.25,1.25,0,0,0,.37,2.13L4.79,6.55.37,11a1.25,1.25,0,0,0,1.77,1.77L6.55,8.32,11,12.74A1.25,1.25,0,0,0,12.74,11Z'/>
        </g>
        <g id="nav-thin-caret--right">
            <path d="M6 3L11 8L6 13" stroke="#88765E" stroke-width="2"/>
        </g>
        <g id="nav-thin-caret--left">
            <path d="M11 13L6 8L11 3" stroke="#88765E" stroke-width="2"/>
        </g>
    </defs>
</svg>