<svg xmlns:xlink="http://www.w3.org/1999/xlink" xmlns="http://www.w3.org/2000/svg" width="44" height="27" viewBox="0 0 44 27" fill="none">
<path d="M42.7486 25.3627C42.7486 25.9386 42.2845 26.4085 41.7028 26.4085H1.92049C1.34463 26.4085 0.874695 25.9444 0.874695 25.3627V1.56435C0.874695 0.988491 1.33881 0.518555 1.92049 0.518555H41.7028C42.2787 0.518555 42.7486 0.982665 42.7486 1.56435V25.3627Z" stroke="#88765E" stroke-width="0.75"/>
<path d="M32.9389 9.67512L31.8671 7.12305H30.7237L29.6519 9.67512L29.1414 10.8695H28.3146C28.0092 10.8922 27.7047 10.8152 27.4469 10.65C27.3203 10.5217 27.2207 10.3693 27.1541 10.2019C27.0875 10.0344 27.0551 9.8553 27.0589 9.67512C27.0589 9.56794 27.0589 9.45564 27.0589 9.33314C27.0229 8.97356 27.1132 8.61266 27.3141 8.31231C27.442 8.19114 27.5941 8.09846 27.7604 8.04039C27.9266 7.98232 28.1034 7.96018 28.2788 7.97544H29.7386V7.14346H28.1665C27.7767 7.13102 27.3883 7.19518 27.0232 7.33232C26.7318 7.4555 26.4858 7.66591 26.3188 7.93461C26.0607 8.38573 25.935 8.90057 25.9564 9.41991C25.9564 9.50669 25.9564 9.59346 25.9564 9.67512C25.9721 10.0263 26.0499 10.3719 26.1861 10.696C26.297 10.9414 26.4677 11.1551 26.6826 11.3175C26.8975 11.4798 27.1498 11.5855 27.4162 11.6249C27.6493 11.6605 27.8849 11.6759 28.1206 11.6708H29.9683L30.4175 10.65H32.1835L32.6327 11.6964H33.7964L32.9389 9.67512ZM30.6318 9.81804L30.6931 9.67512L31.2954 8.23575L31.8977 9.67512L31.9589 9.81804H30.6318Z" fill="#88765E"/>
<path d="M33.7914 11.8645H32.6276C32.5902 11.8649 32.5535 11.8539 32.5225 11.833C32.4915 11.812 32.4676 11.782 32.4541 11.7471L32.056 10.8181H30.5247L30.1215 11.7471C30.1074 11.7816 30.0834 11.8112 30.0525 11.8321C30.0216 11.853 29.9852 11.8642 29.9479 11.8645H28.1156C27.8678 11.8707 27.62 11.8536 27.3755 11.8135C27.0828 11.7694 26.8058 11.653 26.5696 11.4747C26.3334 11.2965 26.1454 11.062 26.0229 10.7926C25.8696 10.4481 25.7847 10.0772 25.7727 9.70034C25.7727 9.61867 25.7727 9.52679 25.7727 9.43492C25.75 8.87851 25.8882 8.32734 26.1709 7.84753C26.3519 7.54302 26.623 7.30225 26.9467 7.15847C27.3352 7.00815 27.7503 6.93868 28.1666 6.9543H29.7387C29.7639 6.95429 29.7889 6.95934 29.8121 6.96915C29.8354 6.97896 29.8564 6.99333 29.8741 7.01141C29.8917 7.02949 29.9055 7.05092 29.9146 7.07442C29.9238 7.09793 29.9282 7.12303 29.9275 7.14826V7.97513C29.9282 8.00036 29.9238 8.02547 29.9146 8.04897C29.9055 8.07248 29.8917 8.0939 29.8741 8.11198C29.8564 8.13007 29.8354 8.14443 29.8121 8.15424C29.7889 8.16405 29.7639 8.1691 29.7387 8.16909H28.2789C28.1283 8.15578 27.9767 8.17385 27.8334 8.22217C27.6902 8.2705 27.5586 8.34801 27.4469 8.44982C27.2717 8.71829 27.1975 9.04028 27.2376 9.35836C27.2322 9.46718 27.2322 9.5762 27.2376 9.68502C27.231 9.83827 27.2551 9.9913 27.3086 10.1351C27.3621 10.2788 27.4438 10.4104 27.549 10.5221C27.7736 10.6602 28.0365 10.7228 28.2993 10.7007H29.0037L30.5349 7.09722C30.5455 7.05454 30.5707 7.01691 30.6062 6.99082C30.6416 6.96472 30.685 6.95181 30.7289 6.9543H31.8671C31.9044 6.95455 31.9408 6.96584 31.9716 6.98673C32.0025 7.00762 32.0265 7.03718 32.0406 7.0717L33.1176 9.59825L33.9649 11.5991C33.9801 11.6264 33.9881 11.6571 33.9881 11.6884C33.9881 11.7197 33.9801 11.7504 33.9649 11.7777C33.9465 11.8065 33.9207 11.8298 33.8901 11.8451C33.8596 11.8604 33.8254 11.8671 33.7914 11.8645ZM32.7705 11.4817H33.5157L31.7395 7.33711H30.8514L29.3201 10.9406C29.306 10.9752 29.282 11.0047 29.2511 11.0256C29.2203 11.0465 29.1839 11.0578 29.1466 11.058H28.3146C27.9662 11.0863 27.6185 10.9944 27.3295 10.7977C27.1824 10.6535 27.0658 10.4811 26.9869 10.2908C26.908 10.1004 26.8683 9.89616 26.8701 9.69013C26.8701 9.57784 26.8701 9.46044 26.8701 9.33284C26.8297 8.92077 26.9384 8.50787 27.1764 8.16909C27.3226 8.02499 27.4981 7.91396 27.6909 7.84352C27.8838 7.77307 28.0895 7.74485 28.2942 7.76076H29.56V7.33711H28.1819C27.8183 7.32262 27.4554 7.38164 27.1151 7.51066C26.8623 7.61424 26.6469 7.79225 26.4975 8.02107C26.2563 8.44086 26.1395 8.9206 26.1607 9.4043C26.1607 9.49107 26.1607 9.56763 26.1607 9.64929C26.175 9.98313 26.2548 10.3109 26.3955 10.614C26.4912 10.8311 26.64 11.0207 26.8282 11.1652C27.0164 11.3097 27.238 11.4045 27.4724 11.4409C27.6939 11.4719 27.9175 11.4856 28.1411 11.4817H29.8612L30.2389 10.5272C30.2526 10.4928 30.2767 10.4635 30.3078 10.4434C30.3389 10.4233 30.3754 10.4133 30.4124 10.4149H32.1785C32.2158 10.415 32.2523 10.4256 32.2839 10.4454C32.3155 10.4653 32.3408 10.4936 32.3571 10.5272L32.7705 11.4817ZM31.959 10.0168H30.6319C30.6008 10.0153 30.5705 10.0061 30.5438 9.9901C30.5171 9.97407 30.4947 9.95168 30.4788 9.92492C30.4636 9.8976 30.4556 9.86686 30.4556 9.8356C30.4556 9.80434 30.4636 9.77359 30.4788 9.74627L31.1423 8.15888C31.1564 8.12437 31.1804 8.0948 31.2113 8.07391C31.2422 8.05302 31.2786 8.04174 31.3159 8.04149C31.3539 8.0414 31.3911 8.05248 31.4228 8.07335C31.4546 8.09422 31.4795 8.12396 31.4945 8.15888L32.1529 9.74627C32.1681 9.77359 32.1761 9.80434 32.1761 9.8356C32.1761 9.86686 32.1681 9.8976 32.1529 9.92492C32.1338 9.95811 32.1049 9.98467 32.0703 10.0011C32.0356 10.0175 31.9968 10.023 31.959 10.0168ZM30.9382 9.63398H31.6885L31.2954 8.73055L30.9382 9.63398Z" fill="#88765E"/>
<path d="M28.2023 18.6637C28.174 18.5554 28.1329 18.4509 28.0798 18.3524C28.0165 18.231 27.9277 18.1248 27.8195 18.041C27.6923 17.9526 27.5507 17.887 27.401 17.8471C27.612 17.7858 27.8048 17.6736 27.9624 17.5204C28.0835 17.3859 28.1765 17.2285 28.2361 17.0577C28.2957 16.8868 28.3206 16.7057 28.3095 16.5251C28.3109 16.3184 28.26 16.1147 28.1615 15.933C28.0605 15.757 27.9165 15.6095 27.7429 15.5043C27.3055 15.3101 26.8267 15.2277 26.3495 15.2644H24.0322V19.7917H25.0531V18.0716H25.8646C26.1389 18.0521 26.4139 18.0994 26.666 18.2095C26.8094 18.2814 26.9258 18.3978 26.9977 18.5412C27.0857 18.7325 27.1377 18.9385 27.1509 19.1486C27.1672 19.3654 27.2013 19.5805 27.2529 19.7917H28.3912C28.3224 19.5698 28.283 19.3399 28.2738 19.1078C28.2619 18.9581 28.238 18.8096 28.2023 18.6637ZM26.9671 17.1631C26.8096 17.2435 26.633 17.2788 26.4567 17.2652H25.0428V16.0708H26.4618C26.5925 16.0631 26.7235 16.0769 26.8497 16.1117C26.9544 16.1481 27.0444 16.2176 27.1061 16.3096C27.1678 16.4017 27.1978 16.5114 27.1917 16.6221C27.2049 16.724 27.1911 16.8277 27.1517 16.9226C27.1123 17.0176 27.0486 17.1005 26.9671 17.1631Z" fill="#88765E"/>
<path d="M28.381 19.9801H27.2427C27.2034 19.9801 27.165 19.9678 27.133 19.9449C27.1009 19.922 27.0769 19.8897 27.0641 19.8525C27.0056 19.6285 26.968 19.3995 26.9518 19.1685C26.9403 18.9817 26.8954 18.7984 26.8191 18.6275C26.7626 18.5192 26.6733 18.4316 26.5639 18.3774C26.3389 18.2865 26.0967 18.2465 25.8544 18.26H25.2317V19.7912C25.2317 19.8413 25.2118 19.8894 25.1764 19.9248C25.141 19.9602 25.0929 19.9801 25.0429 19.9801H24.022C23.9715 19.9801 23.9229 19.9604 23.8866 19.9251C23.8504 19.8898 23.8294 19.8418 23.8281 19.7912V15.2639C23.8281 15.2124 23.8485 15.1631 23.8849 15.1267C23.9212 15.0903 23.9706 15.0699 24.022 15.0699H26.3393C26.8527 15.0316 27.3674 15.1247 27.8348 15.3404C28.0379 15.4657 28.205 15.6416 28.3197 15.8508C28.432 16.0612 28.49 16.2963 28.4882 16.5348C28.5037 16.7409 28.4773 16.948 28.4106 17.1436C28.3439 17.3392 28.2384 17.5193 28.1002 17.673C28.029 17.7442 27.9502 17.8075 27.8654 17.8619L27.9369 17.9078C28.067 18.0075 28.1733 18.1347 28.2483 18.2804C28.3103 18.3933 28.3582 18.5132 28.3912 18.6377C28.423 18.7943 28.4435 18.9529 28.4524 19.1124C28.4649 19.3166 28.5008 19.5187 28.5596 19.7147C28.5735 19.7415 28.5807 19.7713 28.5807 19.8015C28.5807 19.8317 28.5735 19.8614 28.5596 19.8882C28.5403 19.9176 28.5137 19.9416 28.4824 19.9577C28.4511 19.9738 28.4161 19.9815 28.381 19.9801ZM27.4163 19.5973H28.1309C28.1309 19.4697 28.09 19.3115 28.0747 19.1226C28.0653 18.9837 28.0465 18.8456 28.0186 18.7092C27.9955 18.6161 27.9594 18.5268 27.9114 18.4438C27.861 18.3474 27.7915 18.2623 27.7072 18.1936C27.5972 18.1168 27.4745 18.0597 27.3448 18.0252C27.3057 18.0142 27.2711 17.9909 27.2463 17.9587C27.2215 17.9265 27.2077 17.8872 27.207 17.8466C27.2071 17.8059 27.2199 17.7663 27.2437 17.7333C27.2675 17.7003 27.3011 17.6757 27.3397 17.6628C27.5878 17.6042 27.805 17.4549 27.9486 17.2443C28.0921 17.0337 28.1517 16.7769 28.1156 16.5246C28.1199 16.3467 28.0777 16.1707 27.9931 16.0142C27.9086 15.8682 27.7894 15.7455 27.646 15.6569C27.2388 15.4773 26.7928 15.4035 26.3495 15.4425H24.2211V19.5871H24.8642V18.0558C24.8642 18.0304 24.8692 18.0051 24.879 17.9816C24.8887 17.9581 24.903 17.9367 24.921 17.9187C24.939 17.9007 24.9604 17.8864 24.9839 17.8766C25.0075 17.8669 25.0327 17.8619 25.0582 17.8619H25.8697C26.1746 17.8433 26.4795 17.8994 26.7578 18.0252C26.9364 18.1127 27.0816 18.2561 27.1713 18.4335C27.2715 18.6468 27.3304 18.8772 27.3448 19.1124C27.355 19.3574 27.3754 19.5054 27.4163 19.5973ZM26.4822 17.4535H25.0429C24.995 17.4498 24.9502 17.4284 24.9172 17.3935C24.8842 17.3586 24.8653 17.3127 24.8642 17.2647V16.0703C24.8642 16.0449 24.8692 16.0196 24.879 15.9961C24.8887 15.9726 24.903 15.9512 24.921 15.9332C24.939 15.9152 24.9604 15.9009 24.9839 15.8911C25.0075 15.8814 25.0327 15.8764 25.0582 15.8764H26.4771C26.6286 15.8696 26.7802 15.8868 26.9263 15.9274C27.074 15.9761 27.2011 16.073 27.2872 16.2026C27.3733 16.3322 27.4134 16.4869 27.401 16.642C27.4113 16.7723 27.3882 16.9031 27.3337 17.022C27.2792 17.1408 27.1952 17.2437 27.0896 17.3208C26.8984 17.4269 26.6796 17.4732 26.4618 17.4535H26.4822ZM25.2572 17.0707H26.4873C26.6236 17.0839 26.7608 17.061 26.8854 17.0044C26.9212 16.9789 27.0284 16.9074 27.0284 16.642C27.0284 16.3766 26.9212 16.3255 26.814 16.2898C26.7071 16.2641 26.5971 16.2538 26.4873 16.2592H25.2317L25.2572 17.0707Z" fill="#88765E"/>
<path d="M30.0143 17.8821H32.4489V17.0246H30.0143V16.111H32.8062V15.2637H28.9424V19.7911H32.893V18.9182H30.0143V17.8821Z" fill="#88765E"/>
<path d="M32.893 19.9803H28.9475C28.8978 19.979 28.8506 19.9587 28.8154 19.9235C28.7803 19.8884 28.76 19.8411 28.7587 19.7914V15.264C28.7587 15.214 28.7786 15.1659 28.814 15.1305C28.8494 15.0951 28.8974 15.0752 28.9475 15.0752H32.8114C32.8615 15.0752 32.9095 15.0951 32.9449 15.1305C32.9803 15.1659 33.0002 15.214 33.0002 15.264V16.1113C33.0002 16.1614 32.9803 16.2095 32.9449 16.2449C32.9095 16.2803 32.8615 16.3002 32.8114 16.3002H30.2082V16.8361H32.449C32.4742 16.8354 32.4993 16.8398 32.5228 16.849C32.5463 16.8582 32.5677 16.872 32.5858 16.8896C32.6039 16.9072 32.6183 16.9283 32.6281 16.9515C32.6379 16.9748 32.6429 16.9997 32.6429 17.025V17.8876C32.6416 17.9381 32.6206 17.9862 32.5843 18.0214C32.5481 18.0567 32.4995 18.0765 32.449 18.0764H30.2082V18.7247H32.893C32.9445 18.7247 32.9938 18.7451 33.0302 18.7815C33.0666 18.8178 33.087 18.8672 33.087 18.9186V19.7914C33.0857 19.842 33.0646 19.89 33.0284 19.9253C32.9922 19.9606 32.9436 19.9803 32.893 19.9803ZM29.1364 19.5975H32.7093V19.0871H30.0143C29.9895 19.0871 29.9649 19.0822 29.942 19.0727C29.9191 19.0632 29.8983 19.0493 29.8807 19.0317C29.8632 19.0142 29.8493 18.9934 29.8398 18.9705C29.8303 18.9476 29.8254 18.923 29.8254 18.8982V17.8774C29.8248 17.8521 29.8291 17.827 29.8383 17.8035C29.8475 17.78 29.8613 17.7586 29.8789 17.7405C29.8965 17.7224 29.9176 17.7081 29.9408 17.6983C29.9641 17.6885 29.9891 17.6834 30.0143 17.6834H32.2601V17.2087H30.0143C29.9891 17.2087 29.9641 17.2037 29.9408 17.1939C29.9176 17.1841 29.8965 17.1697 29.8789 17.1516C29.8613 17.1335 29.8475 17.1121 29.8383 17.0886C29.8291 17.0651 29.8248 17.04 29.8254 17.0148V16.1113C29.8248 16.0861 29.8291 16.061 29.8383 16.0375C29.8475 16.014 29.8613 15.9926 29.8789 15.9745C29.8965 15.9564 29.9176 15.942 29.9408 15.9322C29.9641 15.9224 29.9891 15.9174 30.0143 15.9174H32.6123V15.458H29.1364V19.5975Z" fill="#88765E"/>
<path d="M41.9172 17.7502C41.8604 17.6115 41.7738 17.487 41.6636 17.3856C41.5533 17.2841 41.4221 17.2082 41.2792 17.1632C41.0171 17.0888 40.7449 17.0561 40.4727 17.0662H39.7734C39.5868 17.0788 39.3995 17.0545 39.2222 16.9947C39.1399 16.9568 39.0715 16.8941 39.0267 16.8154C38.9818 16.7367 38.9627 16.6459 38.9721 16.5558C38.9721 16.3006 39.0691 16.1423 39.2681 16.0964C39.4618 16.0619 39.6585 16.0482 39.8551 16.0556H41.81V15.2644H39.6662C39.4707 15.2543 39.2748 15.2543 39.0793 15.2644C38.9148 15.2715 38.7539 15.315 38.6083 15.3918C38.4626 15.4686 38.3359 15.5768 38.2371 15.7085C38.0602 15.9651 37.9658 16.2696 37.9666 16.5813C37.9563 16.7795 37.9876 16.9777 38.0584 17.1632C38.1296 17.3342 38.2397 17.4863 38.38 17.6072C38.6955 17.8183 39.0736 17.9156 39.4519 17.8829H40.2634C40.4381 17.8692 40.6135 17.899 40.7738 17.9696C40.8609 18.0157 40.9328 18.086 40.9808 18.1721C41.0288 18.2581 41.0509 18.3562 41.0444 18.4545C41.0491 18.5395 41.0301 18.6241 40.9895 18.6989C40.949 18.7737 40.8884 18.8358 40.8147 18.8782C40.6117 18.9635 40.391 18.9985 40.1716 18.9803H38.135V19.7867H40.3349C40.5875 19.7923 40.8402 19.777 41.0903 19.7408C41.255 19.722 41.4126 19.6633 41.5496 19.57C41.6865 19.4766 41.7987 19.3513 41.8763 19.2048C42.001 18.9783 42.0643 18.7232 42.0601 18.4647C42.0615 18.2193 42.0129 17.9762 41.9172 17.7502Z" fill="#88765E"/>
<path d="M40.3501 19.9802H38.1349C38.0853 19.979 38.038 19.9586 38.0028 19.9235C37.9677 19.8884 37.9474 19.8411 37.9461 19.7914V18.9849C37.9461 18.9344 37.9658 18.8858 38.0011 18.8496C38.0364 18.8133 38.0844 18.7923 38.1349 18.791H40.1766C40.3495 18.8045 40.5233 18.7819 40.687 18.7246C40.7327 18.6979 40.7698 18.6588 40.7942 18.6118C40.8186 18.5648 40.8292 18.5119 40.8248 18.4592C40.8321 18.3956 40.8198 18.3313 40.7897 18.2748C40.7597 18.2183 40.7132 18.1723 40.6564 18.1428C40.5308 18.0898 40.394 18.0688 40.2583 18.0815H39.4518C39.0276 18.1176 38.6043 18.0018 38.2574 17.7548C38.0947 17.6165 37.967 17.4416 37.8848 17.2444C37.7974 17.0413 37.7522 16.8225 37.7521 16.6013C37.752 16.255 37.857 15.9168 38.0533 15.6315C38.1699 15.4805 38.3179 15.3567 38.4872 15.2685C38.6564 15.1804 38.8427 15.1301 39.0333 15.1211C39.1711 15.1211 39.3753 15.1211 39.6407 15.1211H41.8099C41.8614 15.1211 41.9107 15.1415 41.9471 15.1779C41.9835 15.2143 42.0039 15.2636 42.0039 15.3151V16.1215C42.0026 16.1721 41.9815 16.2201 41.9453 16.2554C41.9091 16.2906 41.8605 16.3104 41.8099 16.3104H39.855C39.674 16.3063 39.4929 16.3182 39.314 16.3461C39.263 16.3461 39.166 16.3869 39.166 16.6217C39.166 16.8565 39.2323 16.8565 39.2987 16.8871C39.4521 16.9348 39.613 16.9538 39.7734 16.9433H40.4727C40.7675 16.9311 41.0623 16.9673 41.3455 17.0505C41.5066 17.0971 41.6564 17.1764 41.7855 17.2836C41.9146 17.3907 42.0202 17.5234 42.0958 17.6732C42.1983 17.9207 42.2504 18.1862 42.2489 18.4541C42.2541 18.7444 42.1838 19.0312 42.0447 19.2861C41.9558 19.4586 41.827 19.6074 41.6689 19.7202C41.5109 19.8329 41.3283 19.9063 41.1362 19.9343C40.8758 19.9705 40.613 19.9858 40.3501 19.9802ZM38.3442 19.5974H40.3501C40.5908 19.6045 40.8316 19.5908 41.0698 19.5566C41.2048 19.5374 41.3331 19.4861 41.4441 19.4071C41.5551 19.328 41.6456 19.2235 41.7079 19.1023C41.8156 18.9035 41.8701 18.6802 41.8661 18.4541C41.8674 18.2388 41.8258 18.0253 41.7436 17.8263C41.697 17.7167 41.6272 17.6184 41.5391 17.5383C41.4511 17.4581 41.3467 17.3979 41.2332 17.3618C40.9909 17.294 40.7394 17.2647 40.488 17.275H39.7734C39.5622 17.2783 39.3523 17.2401 39.1558 17.1628C39.041 17.1091 38.9453 17.0218 38.8814 16.9123C38.8176 16.8029 38.7887 16.6766 38.7985 16.5503C38.7802 16.4073 38.8147 16.2626 38.8955 16.1432C38.9764 16.0239 39.0979 15.9381 39.2374 15.902C39.4447 15.8658 39.655 15.8504 39.8653 15.8561H41.6364V15.4324H39.6662C39.4161 15.4324 39.2272 15.4324 39.0996 15.4324C38.9626 15.4365 38.8283 15.4711 38.7064 15.5338C38.5845 15.5965 38.4782 15.6857 38.3953 15.7948C38.2243 16.0288 38.1331 16.3115 38.1349 16.6013C38.1319 16.7768 38.1667 16.9509 38.237 17.1117C38.294 17.2556 38.3851 17.3835 38.5024 17.4843C38.7828 17.6686 39.1178 17.7515 39.4518 17.7191H40.2634C40.4654 17.7062 40.6674 17.7448 40.8504 17.8314C40.9607 17.8936 41.0515 17.9853 41.1128 18.0961C41.1741 18.207 41.2034 18.3327 41.1974 18.4592C41.2029 18.5771 41.1757 18.6943 41.119 18.7978C41.0623 18.9014 40.9782 18.9873 40.8759 19.0462C40.6444 19.1521 40.3894 19.1961 40.1358 19.1738H38.3442V19.5974Z" fill="#88765E"/>
<path d="M36.7824 17.1633C36.5203 17.0886 36.2481 17.0559 35.9759 17.0663H35.2766C35.09 17.0789 34.9027 17.0546 34.7254 16.9948C34.6431 16.957 34.5747 16.8942 34.5298 16.8155C34.485 16.7368 34.4659 16.646 34.4753 16.5559C34.4753 16.3007 34.5774 16.1424 34.7713 16.0965C34.965 16.062 35.1617 16.0483 35.3583 16.0557H37.3183V15.2645H35.1439C34.9501 15.2543 34.7559 15.2543 34.562 15.2645C34.3967 15.2709 34.2348 15.314 34.0882 15.3909C33.9417 15.4677 33.8141 15.5762 33.7148 15.7086C33.5397 15.9658 33.4471 16.2703 33.4493 16.5814C33.4389 16.7797 33.4702 16.9779 33.5412 17.1633C33.6124 17.3343 33.7225 17.4864 33.8628 17.6073C34.1783 17.8184 34.5564 17.9157 34.9347 17.883H35.7462C35.9209 17.8693 36.0963 17.8991 36.2566 17.9697C36.3437 18.0158 36.4156 18.0861 36.4636 18.1722C36.5116 18.2582 36.5337 18.3563 36.5271 18.4546C36.5319 18.5396 36.5129 18.6242 36.4723 18.699C36.4318 18.7738 36.3712 18.8359 36.2975 18.8783C36.0944 18.9636 35.8738 18.9986 35.6543 18.9804H33.6535V19.7868H35.8585C36.1076 19.7937 36.3569 19.7801 36.6037 19.746C36.7671 19.7251 36.923 19.6649 37.0581 19.5707C37.1932 19.4765 37.3035 19.351 37.3795 19.2049C37.5042 18.9784 37.5675 18.7233 37.5633 18.4648C37.5658 18.2226 37.5171 17.9826 37.4204 17.7605C37.3649 17.6199 37.2788 17.4934 37.1685 17.3901C37.0582 17.2869 36.9263 17.2094 36.7824 17.1633Z" fill="#88765E"/>
<path d="M35.8585 19.9802H33.6535C33.6039 19.979 33.5566 19.9586 33.5214 19.9235C33.4863 19.8884 33.466 19.8411 33.4647 19.7914V18.9849C33.4647 18.9344 33.4844 18.8858 33.5197 18.8496C33.5549 18.8133 33.603 18.7923 33.6535 18.791H35.6544C35.8374 18.8096 36.0223 18.7869 36.1954 18.7246C36.2416 18.6981 36.2794 18.6592 36.3047 18.6123C36.3299 18.5654 36.3416 18.5124 36.3383 18.4592C36.3437 18.3952 36.3301 18.3311 36.2992 18.2748C36.2683 18.2186 36.2216 18.1726 36.1648 18.1428C36.0391 18.0898 35.9024 18.0688 35.7666 18.0815H34.9551C34.5308 18.1176 34.1076 18.0018 33.7607 17.7548C33.598 17.6165 33.4703 17.4416 33.3881 17.2444C33.3002 17.0414 33.2551 16.8225 33.2554 16.6013C33.2507 16.2566 33.3504 15.9186 33.5412 15.6315C33.6584 15.4799 33.8073 15.3557 33.9774 15.2675C34.1476 15.1793 34.3349 15.1294 34.5263 15.1211C34.659 15.1211 34.8632 15.1211 35.1286 15.1211H37.3183C37.3689 15.1224 37.4169 15.1434 37.4522 15.1797C37.4875 15.2159 37.5072 15.2645 37.5072 15.3151V16.1215C37.5059 16.1712 37.4856 16.2185 37.4504 16.2536C37.4153 16.2888 37.368 16.3091 37.3183 16.3104H35.3583C35.1773 16.3063 34.9962 16.3182 34.8173 16.3461C34.7662 16.3461 34.6693 16.3869 34.6693 16.6217C34.6693 16.8565 34.7356 16.8565 34.8071 16.8871C34.9586 16.9354 35.118 16.9545 35.2767 16.9433H35.9759C36.2708 16.9311 36.5656 16.9673 36.8487 17.0505C37.0149 17.093 37.1701 17.1706 37.3039 17.278C37.4377 17.3854 37.547 17.5201 37.6246 17.6732C37.7293 17.9202 37.7831 18.1858 37.7828 18.4541C37.7851 18.7447 37.7131 19.0311 37.5735 19.2861C37.4846 19.4586 37.3557 19.6074 37.1977 19.7202C37.0397 19.8329 36.8571 19.9063 36.665 19.9343C36.3979 19.9717 36.1281 19.9871 35.8585 19.9802ZM33.8475 19.5974H35.8585C36.1076 19.6058 36.357 19.5921 36.6037 19.5566C36.7379 19.537 36.8654 19.4856 36.9755 19.4065C37.0856 19.3275 37.1752 19.2232 37.2366 19.1023C37.3455 18.9037 37.4017 18.6806 37.4 18.4541C37.4001 18.2384 37.3567 18.0248 37.2724 17.8263C37.2258 17.7167 37.156 17.6184 37.0679 17.5383C36.9798 17.4581 36.8755 17.3979 36.762 17.3618C36.5215 17.2935 36.2716 17.2642 36.0219 17.275H35.2767C35.0603 17.2803 34.8451 17.2421 34.6437 17.1628C34.5289 17.1091 34.4332 17.0218 34.3694 16.9123C34.3056 16.8029 34.2766 16.6766 34.2864 16.5503C34.2682 16.4073 34.3027 16.2626 34.3835 16.1432C34.4643 16.0239 34.5859 15.9381 34.7254 15.902C34.9326 15.8658 35.1429 15.8504 35.3532 15.8561H37.1141V15.4324H35.1439C34.8938 15.4324 34.705 15.4324 34.5825 15.4324C34.4446 15.4357 34.3092 15.47 34.1864 15.5327C34.0636 15.5955 33.9565 15.6851 33.873 15.7948C33.7193 16.0205 33.6374 16.2874 33.6382 16.5605C33.6351 16.736 33.6699 16.9101 33.7403 17.0709C33.7994 17.2136 33.8902 17.341 34.0057 17.4435C34.2864 17.627 34.6212 17.7098 34.9551 17.6783H35.7666C35.9687 17.6654 36.1706 17.704 36.3536 17.7906C36.4698 17.853 36.5659 17.947 36.6309 18.0617C36.6959 18.1763 36.7272 18.3071 36.7211 18.4388C36.7255 18.5571 36.6973 18.6744 36.6398 18.7779C36.5822 18.8814 36.4973 18.9671 36.3945 19.0258C36.163 19.1317 35.9079 19.1756 35.6544 19.1534H33.8475V19.5974Z" fill="#88765E"/>
<path d="M23.5626 10.527C23.5286 10.4199 23.4824 10.3172 23.4248 10.2207C23.3523 10.0981 23.2549 9.99209 23.139 9.90938C22.9926 9.82128 22.8345 9.75427 22.6694 9.71032L22.8276 9.65928C22.9984 9.59651 23.1572 9.50502 23.2972 9.38876C23.4316 9.25681 23.5355 9.09707 23.6016 8.92072C23.6677 8.74438 23.6945 8.55571 23.68 8.36793C23.681 8.16092 23.6244 7.95771 23.5167 7.78095C23.4024 7.59955 23.2421 7.45163 23.0522 7.3522C22.5558 7.16545 22.0235 7.09389 21.4954 7.14293H18.9127V11.6703H20.0356V9.95022H20.9442C21.2487 9.93409 21.5531 9.9828 21.8374 10.0931C21.9913 10.1605 22.1199 10.2749 22.2049 10.4198C22.3031 10.6121 22.3621 10.8221 22.3784 11.0374C22.3936 11.2555 22.433 11.4712 22.4958 11.6805H23.7566C23.6856 11.4605 23.6427 11.2324 23.629 11.0017C23.6206 10.8418 23.5984 10.683 23.5626 10.527ZM22.1845 9.04678C22.0065 9.12515 21.8119 9.15846 21.6179 9.14376H20.0356V7.97491H21.6179C21.7637 7.95655 21.9111 7.95655 22.0569 7.97491C22.1682 8.00482 22.2662 8.07155 22.3348 8.16423C22.4033 8.25692 22.4385 8.37009 22.4346 8.48532C22.452 8.59309 22.4376 8.7036 22.3932 8.80332C22.3488 8.90303 22.2762 8.98764 22.1845 9.04678Z" fill="#88765E"/>
<path d="M23.7566 11.8649H22.4959C22.4563 11.8663 22.4172 11.8553 22.3842 11.8333C22.3512 11.8113 22.326 11.7795 22.3121 11.7424C22.2455 11.5126 22.2027 11.2766 22.1845 11.038C22.1691 10.8605 22.1206 10.6874 22.0416 10.5276C21.9733 10.4165 21.8739 10.3278 21.7558 10.2724C21.496 10.1788 21.2199 10.1389 20.9442 10.155H20.2296V11.6863C20.2296 11.7117 20.2246 11.7369 20.2149 11.7605C20.2051 11.784 20.1908 11.8054 20.1728 11.8234C20.1548 11.8414 20.1334 11.8557 20.1099 11.8654C20.0864 11.8752 20.0611 11.8802 20.0357 11.8802H18.9128C18.8622 11.875 18.8156 11.8502 18.7832 11.8111C18.7507 11.7719 18.7349 11.7216 18.7392 11.6709V7.14866C18.7389 7.10057 18.7566 7.0541 18.7886 7.01826C18.8207 6.98242 18.8649 6.95977 18.9128 6.95471H21.4955C22.0581 6.9142 22.6226 7.00506 23.1441 7.22012C23.355 7.34397 23.5307 7.51967 23.6545 7.73054C23.7795 7.93854 23.8449 8.17693 23.8434 8.4196C23.8553 8.63007 23.8218 8.84064 23.7452 9.03703C23.6686 9.23342 23.5506 9.41104 23.3993 9.55782C23.3233 9.62708 23.2394 9.68705 23.1492 9.73647L23.2207 9.78241C23.3593 9.87941 23.4758 10.0047 23.5626 10.1499C23.6301 10.2619 23.6833 10.3819 23.7209 10.5072C23.7579 10.6632 23.7818 10.8219 23.7923 10.9819C23.8031 11.1955 23.8426 11.4066 23.9097 11.6097C23.9236 11.6374 23.9309 11.668 23.9309 11.699C23.9309 11.73 23.9236 11.7606 23.9097 11.7883C23.892 11.8123 23.8689 11.8317 23.8423 11.845C23.8157 11.8583 23.7863 11.8651 23.7566 11.8649ZM22.6388 11.4821H23.5065C23.4751 11.3253 23.4529 11.1668 23.4401 11.0074C23.4274 10.8686 23.4069 10.7305 23.3789 10.594C23.3495 10.5031 23.3102 10.4158 23.2615 10.3337C23.2039 10.2346 23.1256 10.1493 23.0318 10.0836C22.9012 10.0062 22.7603 9.94781 22.6133 9.91001C22.5733 9.89879 22.5381 9.87471 22.5132 9.84149C22.4883 9.80828 22.475 9.76778 22.4755 9.72626C22.4759 9.68495 22.4894 9.64484 22.5142 9.61179C22.539 9.57874 22.5737 9.55447 22.6133 9.54251L22.7562 9.50678C22.907 9.45394 23.047 9.37441 23.1696 9.27199C23.2806 9.16 23.3663 9.02551 23.4209 8.87758C23.4755 8.72966 23.4977 8.57174 23.4861 8.41449C23.4927 8.23504 23.4465 8.05759 23.3534 7.90408C23.2562 7.75239 23.1206 7.62912 22.9603 7.54679C22.4939 7.36832 21.9933 7.2968 21.4955 7.33752H19.1016V11.4821H19.8468V9.95084C19.8481 9.90116 19.8684 9.85387 19.9036 9.81873C19.9387 9.78359 19.986 9.76328 20.0357 9.76199H20.9442C21.2769 9.74174 21.6099 9.79579 21.9191 9.92022C22.1079 10.0054 22.2664 10.1461 22.3734 10.3234C22.4814 10.5368 22.5473 10.7691 22.5673 11.0074C22.5928 11.2167 22.6184 11.3749 22.6388 11.4821ZM21.618 9.33835H20.0357C19.9851 9.33701 19.9371 9.31599 19.9018 9.27976C19.8665 9.24353 19.8468 9.19496 19.8468 9.14439V7.97554C19.8481 7.92586 19.8684 7.87857 19.9036 7.84343C19.9387 7.80829 19.986 7.78797 20.0357 7.78668H21.618C21.7894 7.77886 21.9611 7.79431 22.1284 7.83262C22.2828 7.87465 22.4179 7.96873 22.5109 8.09894C22.6039 8.22916 22.6491 8.38751 22.6388 8.5472C22.6493 8.68279 22.6225 8.81868 22.5614 8.94015C22.5002 9.06161 22.4069 9.16401 22.2917 9.23626C22.0804 9.33024 21.8476 9.36551 21.618 9.33835ZM20.2296 8.95553H21.618C21.7763 8.96953 21.9356 8.94502 22.0824 8.88408C22.1539 8.84324 22.2458 8.75647 22.2458 8.52168C22.2553 8.44374 22.2354 8.36506 22.1902 8.30092C22.1449 8.23677 22.0774 8.19175 22.0008 8.1746C21.875 8.14775 21.7463 8.13746 21.618 8.14397H20.2296V8.95553Z" fill="#88765E"/>
<path d="M25.3848 9.67597V7.14941H24.3946V9.67597V11.6717H25.3848V9.67597Z" fill="#88765E"/>
<path d="M25.3746 11.8653H24.3946C24.3441 11.8639 24.296 11.8429 24.2607 11.8067C24.2255 11.7705 24.2057 11.7219 24.2057 11.6713V7.14904C24.2057 7.09847 24.2255 7.04989 24.2607 7.01366C24.296 6.97743 24.3441 6.95641 24.3946 6.95508H25.3746C25.4252 6.95641 25.4732 6.97743 25.5085 7.01366C25.5437 7.04989 25.5635 7.09847 25.5635 7.14904V11.6713C25.5635 11.7219 25.5437 11.7705 25.5085 11.8067C25.4732 11.8429 25.4252 11.8639 25.3746 11.8653ZM24.5784 11.4825H25.1806V7.33789H24.5886L24.5784 11.4825Z" fill="#88765E"/>
<path d="M35.2563 9.67597V8.35399L36.0117 9.67597L37.1499 11.6717H38.3698V9.67597V7.14941H37.4255V9.67597V10.5182L36.9611 9.67597L35.5778 7.14941H34.312V9.67597V11.6717H35.2563V9.67597Z" fill="#88765E"/>
<path d="M38.3698 11.8653H37.1499C37.1159 11.8649 37.0825 11.8557 37.053 11.8388C37.0235 11.8218 36.9989 11.7975 36.9814 11.7683L35.4502 9.07333V11.6713C35.4502 11.7219 35.4305 11.7705 35.3952 11.8067C35.3599 11.843 35.3119 11.864 35.2613 11.8653H34.312C34.2867 11.8653 34.2618 11.8603 34.2385 11.8505C34.2152 11.8406 34.1942 11.8263 34.1766 11.8082C34.159 11.7901 34.1452 11.7687 34.136 11.7452C34.1268 11.7217 34.1224 11.6966 34.1231 11.6713V7.14907C34.1224 7.12384 34.1268 7.09873 34.136 7.07523C34.1452 7.05172 34.159 7.0303 34.1766 7.01222C34.1942 6.99413 34.2152 6.97977 34.2385 6.96996C34.2618 6.96015 34.2867 6.9551 34.312 6.95511H35.5829C35.6171 6.95449 35.6509 6.96319 35.6806 6.98027C35.7102 6.99735 35.7347 7.02217 35.7513 7.05209L37.2418 9.7726V7.14907C37.2411 7.12426 37.2453 7.09957 37.2542 7.0764C37.263 7.05322 37.2764 7.03203 37.2934 7.01401C37.3105 6.996 37.3309 6.98153 37.3536 6.97142C37.3763 6.96131 37.4007 6.95577 37.4255 6.95511H38.3698C38.395 6.9551 38.42 6.96015 38.4432 6.96996C38.4665 6.97977 38.4875 6.99413 38.5051 7.01222C38.5228 7.0303 38.5366 7.05172 38.5457 7.07523C38.5549 7.09873 38.5593 7.12384 38.5586 7.14907V11.6713C38.5593 11.6966 38.5549 11.7217 38.5457 11.7452C38.5366 11.7687 38.5228 11.7901 38.5051 11.8082C38.4875 11.8263 38.4665 11.8406 38.4432 11.8505C38.42 11.8603 38.395 11.8653 38.3698 11.8653ZM37.2622 11.4825H38.1758V7.33792H37.6246V10.528C37.6238 10.5713 37.6089 10.6132 37.5822 10.6473C37.5555 10.6813 37.5184 10.7058 37.4765 10.7169C37.4351 10.7264 37.3917 10.7221 37.353 10.7046C37.3142 10.6871 37.2823 10.6573 37.2622 10.6199L35.4655 7.33792H34.5059V11.4825H35.0725V8.35365C35.0732 8.31168 35.0875 8.27108 35.1133 8.23795C35.1391 8.20482 35.1749 8.18094 35.2154 8.1699C35.2557 8.15856 35.2986 8.16092 35.3374 8.17663C35.3762 8.19234 35.4087 8.22049 35.4298 8.25667L37.2622 11.4825Z" fill="#88765E"/>
<path d="M18.4075 10.7989H15.5287V9.76784H17.9634V9.67597V8.91035H15.5287V7.9967H18.3207V7.14941H14.4568V9.67597V11.6717H18.4075V10.7989Z" fill="#88765E"/>
<path d="M18.4075 11.8653H14.4569C14.4063 11.8639 14.3583 11.8429 14.323 11.8067C14.2877 11.7705 14.268 11.7219 14.268 11.6713V7.14904C14.268 7.09847 14.2877 7.04989 14.323 7.01366C14.3583 6.97743 14.4063 6.95641 14.4569 6.95508H18.3207C18.3713 6.95641 18.4193 6.97743 18.4546 7.01366C18.4898 7.04989 18.5096 7.09847 18.5096 7.14904V7.97591C18.5083 8.02559 18.488 8.07288 18.4528 8.10802C18.4177 8.14316 18.3704 8.16347 18.3207 8.16476H15.7176V8.67518H17.9634C17.9886 8.67517 18.0136 8.68022 18.0369 8.69003C18.0601 8.69983 18.0812 8.7142 18.0988 8.73228C18.1164 8.75036 18.1302 8.77179 18.1394 8.7953C18.1486 8.8188 18.1529 8.84391 18.1523 8.86914V9.76747C18.1529 9.79269 18.1486 9.8178 18.1394 9.84131C18.1302 9.86481 18.1164 9.88624 18.0988 9.90432C18.0812 9.9224 18.0601 9.93677 18.0369 9.94658C18.0136 9.95638 17.9886 9.96143 17.9634 9.96142H15.7176V10.6097H18.4075C18.4576 10.6097 18.5056 10.6295 18.541 10.665C18.5764 10.7004 18.5963 10.7484 18.5963 10.7985V11.6713C18.597 11.6965 18.5926 11.7216 18.5834 11.7452C18.5743 11.7687 18.5605 11.7901 18.5429 11.8082C18.5252 11.8262 18.5042 11.8406 18.4809 11.8504C18.4577 11.8602 18.4327 11.8653 18.4075 11.8653ZM14.6559 11.4825H18.2288V10.972H15.5287C15.4773 10.972 15.428 10.9516 15.3916 10.9152C15.3552 10.8789 15.3348 10.8295 15.3348 10.7781V9.75726C15.3361 9.70671 15.3571 9.65867 15.3934 9.6234C15.4296 9.58812 15.4782 9.56839 15.5287 9.5684H17.7695V9.09882H15.5287C15.4782 9.09884 15.4296 9.07911 15.3934 9.04383C15.3571 9.00855 15.3361 8.96052 15.3348 8.90997V7.97591C15.3348 7.92447 15.3552 7.87513 15.3916 7.83876C15.428 7.80239 15.4773 7.78195 15.5287 7.78195H18.1267V7.33789H14.6559V11.4825Z" fill="#88765E"/>
<path d="M22.2611 15.3506C21.9429 15.2798 21.6169 15.2506 21.2913 15.2638H17.7184L16.5444 16.7491L15.4623 15.2638H10.4603V19.7912H15.3654L16.5495 18.26L17.7592 19.7912H19.8315V18.2089H21.5567C21.7899 18.2159 22.0232 18.1936 22.2509 18.1426C22.4245 18.0952 22.5863 18.0117 22.7255 17.8976C22.8971 17.7629 23.0322 17.5874 23.1186 17.3872C23.2106 17.1817 23.2576 16.9589 23.2564 16.7338C23.2579 16.4636 23.1837 16.1983 23.042 15.9682C22.8713 15.6691 22.5914 15.4478 22.2611 15.3506ZM14.6559 18.9286H14.3905H11.5321V17.9078H13.9668V17.0248H11.5321V16.1111H14.3241V15.6313L15.8554 17.5199L14.6559 18.9286ZM18.7392 19.3318L17.2488 17.5046L18.7392 15.713V19.3318ZM21.8017 17.2902C21.6327 17.3801 21.4412 17.4191 21.2504 17.4025H19.8315V16.0703H21.3168C21.4528 16.0639 21.5889 16.0794 21.72 16.1162C21.8377 16.159 21.9374 16.2403 22.0032 16.3468C22.0689 16.4533 22.0969 16.5789 22.0824 16.7032C22.0938 16.8128 22.0784 16.9234 22.0375 17.0257C21.9966 17.128 21.9314 17.2187 21.8476 17.2902H21.8017Z" fill="#88765E"/>
<path d="M19.8315 19.981H17.7592C17.7299 19.9818 17.7008 19.9758 17.6742 19.9634C17.6476 19.951 17.6243 19.9325 17.6061 19.9096L16.5495 18.5519L15.5287 19.9045C15.5113 19.9287 15.4883 19.9483 15.4616 19.9617C15.4349 19.975 15.4054 19.9816 15.3756 19.981H10.4603C10.4106 19.9797 10.3633 19.9594 10.3282 19.9243C10.293 19.8891 10.2727 19.8418 10.2714 19.7922V15.2648C10.2714 15.2147 10.2913 15.1667 10.3267 15.1312C10.3622 15.0958 10.4102 15.0759 10.4603 15.0759H15.4675C15.4976 15.0763 15.5273 15.0839 15.5539 15.0981C15.5806 15.1123 15.6034 15.1327 15.6206 15.1576L16.5546 16.4387L17.5755 15.1525C17.5939 15.1294 17.6172 15.1106 17.6436 15.0974C17.6701 15.0842 17.699 15.0768 17.7286 15.0759H21.3015C21.6446 15.0632 21.9878 15.0958 22.3223 15.1729C22.6995 15.2843 23.0193 15.5365 23.2156 15.8773C23.3741 16.137 23.4571 16.4357 23.4554 16.7399C23.4577 16.9936 23.4037 17.2446 23.2972 17.4749C23.1977 17.7 23.0454 17.8979 22.8532 18.0517C22.6919 18.1811 22.5062 18.2766 22.307 18.3324C22.0629 18.3897 21.8125 18.4154 21.5618 18.4089H20.0306V19.7973C20.0279 19.8478 20.0056 19.8953 19.9684 19.9297C19.9312 19.964 19.8821 19.9824 19.8315 19.981ZM17.8511 19.5982H19.6426V18.2099C19.6426 18.1598 19.6625 18.1118 19.698 18.0763C19.7334 18.0409 19.7814 18.021 19.8315 18.021H21.5567C21.773 18.0259 21.9891 18.0036 22.1998 17.9547C22.3487 17.916 22.4879 17.8464 22.6082 17.7505C22.753 17.6323 22.8683 17.482 22.945 17.3116C23.027 17.1304 23.0688 16.9336 23.0675 16.7348C23.0696 16.5008 23.0059 16.2709 22.8838 16.0712C22.7352 15.8137 22.4944 15.6222 22.21 15.5353C21.9082 15.4712 21.5997 15.4438 21.2913 15.4536H17.8154L16.6976 16.8726C16.6578 16.9154 16.6028 16.9411 16.5444 16.9441C16.5142 16.9437 16.4846 16.9361 16.4579 16.9218C16.4313 16.9076 16.4084 16.8872 16.3913 16.8624L15.3705 15.4536H14.4313L14.4721 15.4945L16.0034 17.383C16.0321 17.4164 16.0479 17.4589 16.0479 17.503C16.0479 17.547 16.0321 17.5896 16.0034 17.6229L14.8396 19.0521C14.8204 19.0748 14.796 19.0927 14.7685 19.1042C14.741 19.1158 14.7112 19.1206 14.6814 19.1184H14.416H11.5321C11.4816 19.1184 11.433 19.0987 11.3968 19.0634C11.3605 19.0282 11.3395 18.9801 11.3382 18.9296V17.9087C11.3382 17.8573 11.3586 17.808 11.395 17.7716C11.4314 17.7352 11.4807 17.7148 11.5321 17.7148H13.7729V17.2401H11.5321C11.4807 17.2401 11.4314 17.2197 11.395 17.1833C11.3586 17.1469 11.3382 17.0976 11.3382 17.0461V16.1121C11.3382 16.0606 11.3586 16.0113 11.395 15.9749C11.4314 15.9386 11.4807 15.9181 11.5321 15.9181H14.1455V15.6323C14.1461 15.6002 14.1542 15.5686 14.1693 15.5402C14.1844 15.5118 14.2059 15.4874 14.2322 15.469H10.6593V19.6084H15.2786L16.4015 18.1333C16.4189 18.1091 16.4419 18.0895 16.4686 18.0761C16.4953 18.0628 16.5248 18.0561 16.5546 18.0568C16.5834 18.0577 16.6117 18.0651 16.6373 18.0783C16.6629 18.0916 16.6852 18.1104 16.7027 18.1333L17.8511 19.5982ZM11.7261 18.7254H14.5946L15.6155 17.4902L14.5079 16.1427C14.4995 16.185 14.4765 16.223 14.4429 16.2501C14.4093 16.2772 14.3673 16.2915 14.3241 16.2907H11.721V16.8267H13.9668C13.9918 16.826 14.0167 16.8304 14.0399 16.8396C14.0632 16.8488 14.0843 16.8627 14.1019 16.8804C14.1196 16.8981 14.1335 16.9192 14.1427 16.9424C14.152 16.9656 14.1564 16.9905 14.1557 17.0155V17.8781C14.1557 17.9282 14.1358 17.9762 14.1004 18.0117C14.065 18.0471 14.0169 18.067 13.9668 18.067H11.721L11.7261 18.7254ZM18.7698 19.5216C18.7419 19.5216 18.7143 19.5157 18.6888 19.5042C18.6633 19.4928 18.6404 19.4761 18.6218 19.4553L17.1263 17.6229C17.0965 17.59 17.08 17.5473 17.08 17.503C17.08 17.4586 17.0965 17.4159 17.1263 17.383L18.6167 15.5915C18.6411 15.5611 18.6746 15.5393 18.7122 15.5293C18.7498 15.5192 18.7897 15.5213 18.826 15.5353C18.8632 15.5481 18.8955 15.5722 18.9184 15.6042C18.9413 15.6362 18.9536 15.6746 18.9536 15.714V19.3328C18.9536 19.3722 18.9413 19.4105 18.9184 19.4426C18.8955 19.4746 18.8632 19.4987 18.826 19.5114C18.8067 19.5198 18.7857 19.5233 18.7647 19.5216H18.7698ZM17.5244 17.5055L18.5759 18.7918V16.2397L17.5244 17.5055ZM21.3015 17.5974H19.8315C19.7809 17.5961 19.7329 17.575 19.6976 17.5388C19.6624 17.5026 19.6426 17.454 19.6426 17.4034V16.0712C19.6426 16.0207 19.6624 15.9721 19.6976 15.9359C19.7329 15.8996 19.7809 15.8786 19.8315 15.8773H21.3168C21.4757 15.8703 21.6346 15.8911 21.7864 15.9385C21.9469 15.9873 22.0856 16.0903 22.1787 16.23C22.2718 16.3696 22.3135 16.5372 22.2968 16.7042C22.3096 16.8441 22.2873 16.985 22.2321 17.1142C22.1768 17.2434 22.0903 17.3568 21.9803 17.4443C21.7732 17.5684 21.5315 17.6221 21.2913 17.5974H21.3015ZM20.0306 17.2146H21.2913C21.4425 17.2316 21.5953 17.2031 21.7302 17.1329C21.7872 17.0782 21.8307 17.0109 21.8573 16.9365C21.8838 16.8622 21.8928 16.7826 21.8834 16.7042C21.8834 16.4183 21.7609 16.3367 21.6537 16.2958C21.5425 16.2647 21.4269 16.2526 21.3117 16.2601H20.0255L20.0306 17.2146Z" fill="#88765E"/>
<path d="M11.527 9.67597L12.1293 8.27233V9.67597V11.6717H13.2676V9.67597V7.14941H11.527L10.4807 9.67597L10.0621 10.6764L8.66872 7.14941H6.9231V11.6717H8.06132V8.27233L9.44455 11.6717H10.6695L11.527 9.67597Z" fill="#88765E"/>
<path d="M13.2676 11.8653H12.1293C12.0788 11.864 12.0308 11.8429 11.9955 11.8067C11.9602 11.7705 11.9405 11.7219 11.9405 11.6713V9.20092L11.7057 9.75217L10.8431 11.7479C10.829 11.7824 10.805 11.812 10.7741 11.8329C10.7432 11.8538 10.7068 11.865 10.6696 11.8653H9.44456C9.40626 11.8668 9.36844 11.8563 9.33641 11.8352C9.30437 11.8142 9.27972 11.7836 9.26591 11.7479L8.24508 9.25196V11.6713C8.24576 11.6966 8.24138 11.7217 8.2322 11.7452C8.22301 11.7687 8.20921 11.7901 8.19161 11.8082C8.174 11.8263 8.15295 11.8406 8.1297 11.8504C8.10645 11.8602 8.08146 11.8653 8.05623 11.8653H6.92311C6.87256 11.864 6.82452 11.8429 6.78925 11.8067C6.75397 11.7705 6.73424 11.7219 6.73425 11.6713V7.14905C6.73424 7.09848 6.75397 7.0499 6.78925 7.01367C6.82452 6.97744 6.87256 6.95642 6.92311 6.95509H8.66873C8.70731 6.95542 8.74492 6.96726 8.77674 6.98908C8.80857 7.0109 8.83316 7.04172 8.84737 7.07759L10.0622 10.1707L11.3535 7.07249C11.367 7.03757 11.3909 7.00761 11.4219 6.98663C11.4529 6.96565 11.4896 6.95465 11.5271 6.95509H13.2676C13.319 6.95509 13.3683 6.97553 13.4047 7.0119C13.4411 7.04827 13.4615 7.09761 13.4615 7.14905V11.6713C13.4615 11.7228 13.4411 11.7721 13.4047 11.8085C13.3683 11.8449 13.319 11.8653 13.2676 11.8653ZM12.3233 11.4825H13.0787V7.3379H11.6547L10.2408 10.7526C10.2239 10.7861 10.1985 10.8145 10.1672 10.8351C10.1358 10.8557 10.0996 10.8677 10.0622 10.87C10.0236 10.8696 9.98597 10.8578 9.95414 10.836C9.92232 10.8142 9.89773 10.7833 9.88351 10.7475L8.53091 7.3379H7.11706V11.4825H7.86737V8.27196C7.86777 8.22837 7.88323 8.18625 7.91114 8.15276C7.93905 8.11926 7.97769 8.09646 8.0205 8.08821C8.06367 8.07986 8.1084 8.08642 8.14735 8.10682C8.1863 8.12723 8.21716 8.16026 8.23487 8.2005L9.55174 11.4825H10.5215L11.9354 8.2005C11.9523 8.15965 11.983 8.12603 12.0222 8.10551C12.0614 8.08499 12.1065 8.07887 12.1498 8.08821C12.1926 8.09646 12.2312 8.11926 12.2591 8.15276C12.287 8.18625 12.3025 8.22837 12.3029 8.27196L12.3233 11.4825Z" fill="#88765E"/>
<path d="M3.50273 7.14258L1.57336 11.67H2.73711L3.18628 10.6491H4.95742L5.40658 11.6955H6.57033L4.64096 7.14258H3.50273ZM3.42617 9.81715L4.08971 8.23487L4.75325 9.81715H3.42617Z" fill="#88765E"/>
<path d="M6.56581 11.8643H5.40206C5.36462 11.8648 5.32794 11.8538 5.29692 11.8328C5.26591 11.8118 5.24204 11.7819 5.22852 11.7469L4.8304 10.818H3.29915L2.91634 11.7469C2.90223 11.7815 2.87823 11.811 2.84734 11.8319C2.81646 11.8528 2.78008 11.8641 2.7428 11.8643H1.57395C1.54243 11.8642 1.51144 11.8562 1.4838 11.8411C1.45616 11.8259 1.43276 11.8041 1.41572 11.7776C1.39561 11.753 1.38222 11.7236 1.37685 11.6923C1.37148 11.661 1.37432 11.6288 1.3851 11.5989L3.32467 7.07154C3.3391 7.03621 3.3639 7.00609 3.39579 6.98513C3.42768 6.96417 3.46517 6.95337 3.50332 6.95414H4.64154C4.67883 6.95439 4.7152 6.96567 4.74609 6.98657C4.77697 7.00746 4.80098 7.03702 4.81509 7.07154L6.73935 11.5989C6.75455 11.6262 6.76252 11.657 6.76252 11.6882C6.76252 11.7195 6.75455 11.7502 6.73935 11.7776C6.72098 11.8064 6.69514 11.8297 6.66458 11.8449C6.63401 11.8602 6.59988 11.8669 6.56581 11.8643ZM5.54498 11.4815H6.27487L4.51394 7.33695H3.62582L1.86489 11.4815H2.61009L3.01332 10.527C3.02765 10.4931 3.05186 10.4642 3.0828 10.4442C3.11375 10.4242 3.15001 10.4139 3.18686 10.4148H4.958C4.99444 10.4158 5.02989 10.4268 5.06049 10.4466C5.09109 10.4664 5.11567 10.4942 5.13154 10.527L5.54498 11.4815ZM4.73342 10.0166H3.42676C3.39524 10.0165 3.36424 10.0085 3.33661 9.99337C3.30897 9.97821 3.28557 9.95638 3.26853 9.92986C3.25333 9.90254 3.24536 9.8718 3.24536 9.84054C3.24536 9.80928 3.25333 9.77853 3.26853 9.75122L3.93207 8.16382C3.94617 8.12931 3.97018 8.09974 4.00107 8.07885C4.03195 8.05796 4.06832 8.04668 4.10561 8.04643C4.14376 8.04566 4.18125 8.05646 4.21314 8.07742C4.24503 8.09837 4.26982 8.1285 4.28425 8.16382L4.90696 9.74611C4.92216 9.77343 4.93013 9.80417 4.93013 9.83543C4.93013 9.86669 4.92216 9.89744 4.90696 9.92476C4.88924 9.95451 4.86368 9.97882 4.83307 9.99502C4.80246 10.0112 4.76799 10.0187 4.73342 10.0166ZM3.71259 9.63382H4.44759L4.06988 8.73038L3.71259 9.63382Z" fill="#88765E"/>
</svg>