<svg xmlns:xlink="http://www.w3.org/1999/xlink" xmlns="http://www.w3.org/2000/svg" width="44" height="28" viewBox="0 0 44 28" fill="none">
<path d="M43.1206 26.0513V26.0515C43.1206 26.64 42.6412 27.125 42.0569 27.125H2.04213C1.46377 27.125 0.978455 26.646 0.978455 26.0515V1.94852C0.978455 1.35995 1.45786 0.875 2.04213 0.875H42.0658C42.6441 0.875 43.1294 1.35391 43.1295 1.94838C43.1295 1.94842 43.1295 1.94848 43.1295 1.94852L43.1206 26.0513Z" stroke="#88765E" stroke-width="0.75"/>
<path d="M7.6589 4.16211H6.84308V23.8296H7.6589V4.16211Z" fill="#88765E"/>
<path d="M10.5456 4.16211H8.47467V17.5227H10.5456V4.16211Z" fill="#88765E"/>
<path d="M14.0778 4.16211H13.3427V17.5227H14.0778V4.16211Z" fill="#88765E"/>
<path d="M15.327 17.5273H15.8649L15.8649 4.1668H15.327L15.327 17.5273Z" fill="#88765E"/>
<path d="M16.1104 17.5273H16.6483V4.1668H16.1104V17.5273Z" fill="#88765E"/>
<path d="M16.8509 17.5273H17.6487V4.1668H16.8509V17.5273Z" fill="#88765E"/>
<path d="M18.898 17.5273H20.4221V4.1668H18.898V17.5273Z" fill="#88765E"/>
<path d="M20.9433 17.5273H21.4454V4.1668H20.9433V17.5273Z" fill="#88765E"/>
<path d="M22.4454 17.5273H24.9556V4.1668H22.4454V17.5273Z" fill="#88765E"/>
<path d="M26.0246 17.5273H27.0018V4.1668H26.0246V17.5273Z" fill="#88765E"/>
<path d="M27.7743 17.5273H28.5184V4.1668H27.7743V17.5273Z" fill="#88765E"/>
<path d="M29.8168 17.5273H30.274V4.1668H29.8168V17.5273Z" fill="#88765E"/>
<path d="M31.2901 17.5273H31.8101V4.1668H31.2901V17.5273Z" fill="#88765E"/>
<path d="M33.3231 17.5273H34.8203V4.1668H33.3231V17.5273Z" fill="#88765E"/>
<path d="M35.092 17.5273H35.8541V4.1668H35.092V17.5273Z" fill="#88765E"/>
<path d="M36.6426 23.8398H37.4046V4.1724H36.6426V23.8398Z" fill="#88765E"/>
<path d="M8.66301 18.6836H10.5815C10.9581 18.6836 11.2449 18.7016 11.4332 18.7286C11.6215 18.7646 11.7918 18.8275 11.9352 18.9265C12.0787 19.0255 12.2042 19.1604 12.3028 19.3314C12.4014 19.5023 12.4463 19.6913 12.4463 19.8982C12.4463 20.1231 12.3835 20.33 12.267 20.519C12.1414 20.7079 11.9801 20.8519 11.7739 20.9418C12.0697 21.0318 12.2938 21.1758 12.4463 21.3827C12.6076 21.5896 12.6793 21.8325 12.6793 22.1115C12.6793 22.3274 12.6256 22.5433 12.5269 22.7502C12.4283 22.9572 12.2849 23.1191 12.1145 23.2451C11.9352 23.371 11.7201 23.443 11.4601 23.47C11.2987 23.488 10.9043 23.497 10.2857 23.506H8.64508V18.6836H8.66301ZM9.6402 19.4933V20.609H10.2767C10.6532 20.609 10.8863 20.6 10.985 20.591C11.1553 20.573 11.2808 20.51 11.3794 20.42C11.478 20.321 11.5229 20.1951 11.5229 20.0421C11.5229 19.8892 11.478 19.7722 11.3973 19.6823C11.3167 19.5923 11.1911 19.5293 11.0298 19.5113C10.9312 19.5023 10.6532 19.4933 10.196 19.4933H9.6402ZM9.6402 21.4097V22.6963H10.5367C10.8863 22.6963 11.1105 22.6873 11.2001 22.6693C11.3436 22.6423 11.4601 22.5793 11.5497 22.4803C11.6394 22.3814 11.6842 22.2374 11.6842 22.0665C11.6842 21.9225 11.6484 21.7966 11.5766 21.6976C11.5049 21.5986 11.4063 21.5266 11.2718 21.4727C11.1374 21.4277 10.8505 21.4007 10.4112 21.4007H9.6402V21.4097Z" fill="#88765E"/>
<path d="M13.3159 21.1307C13.3159 20.6359 13.3876 20.231 13.54 19.8891C13.6476 19.6462 13.8 19.4213 13.9882 19.2233C14.1765 19.0254 14.3827 18.8814 14.6068 18.7915C14.9027 18.6655 15.2523 18.6025 15.6468 18.6025C16.355 18.6025 16.9198 18.8275 17.3501 19.2683C17.7715 19.7092 17.9866 20.321 17.9866 21.1127C17.9866 21.8954 17.7715 22.4982 17.3501 22.9391C16.9288 23.3799 16.364 23.5959 15.6557 23.5959C14.9385 23.5959 14.3737 23.3799 13.9524 22.9391C13.531 22.4982 13.3159 21.8954 13.3159 21.1307ZM14.3199 21.0947C14.3199 21.6435 14.4455 22.0574 14.6965 22.3363C14.9475 22.6152 15.2702 22.7592 15.6557 22.7592C16.0412 22.7592 16.364 22.6152 16.606 22.3363C16.857 22.0574 16.9826 21.6345 16.9826 21.0767C16.9826 20.5279 16.866 20.114 16.624 19.8351C16.3819 19.5562 16.0592 19.4303 15.6647 19.4303C15.2702 19.4303 14.9385 19.5652 14.6965 19.8441C14.4365 20.123 14.3199 20.5369 14.3199 21.0947Z" fill="#88765E"/>
<path d="M18.7667 23.5149V18.7285H19.7349V22.7052H22.1465V23.5149H18.7667Z" fill="#88765E"/>
<path d="M22.8456 23.5148V18.6924H26.4137V19.5111H23.8228V20.5818H26.2344V21.3915H23.8228V22.705H26.5123V23.5148H22.8456Z" fill="#88765E"/>
<path d="M28.404 23.515V19.5023H26.9786V18.6836H30.7977V19.5023H29.3722V23.515H28.404Z" fill="#88765E"/>
<path d="M31.1115 21.1307C31.1115 20.6359 31.1832 20.231 31.3356 19.8891C31.4432 19.6462 31.5956 19.4213 31.7839 19.2233C31.9722 19.0254 32.1784 18.8814 32.4025 18.7915C32.6983 18.6655 33.048 18.6025 33.4424 18.6025C34.1507 18.6025 34.7155 18.8275 35.1458 19.2683C35.5761 19.7092 35.7823 20.321 35.7823 21.1127C35.7823 21.8954 35.5671 22.4982 35.1458 22.9391C34.7244 23.3799 34.1596 23.5959 33.4514 23.5959C32.7342 23.5959 32.1694 23.3799 31.748 22.9391C31.3177 22.4982 31.1115 21.8954 31.1115 21.1307ZM32.1156 21.0947C32.1156 21.6435 32.2411 22.0574 32.4921 22.3363C32.7431 22.6152 33.0659 22.7592 33.4514 22.7592C33.8369 22.7592 34.1596 22.6152 34.4017 22.3363C34.6527 22.0574 34.7782 21.6345 34.7782 21.0767C34.7782 20.5279 34.6617 20.114 34.4196 19.8351C34.1776 19.5652 33.8548 19.4303 33.4603 19.4303C33.0569 19.4303 32.7342 19.5652 32.4921 19.8441C32.2321 20.123 32.1156 20.5369 32.1156 21.0947Z" fill="#88765E"/>
</svg>