<svg xmlns:xlink="http://www.w3.org/1999/xlink" xmlns="http://www.w3.org/2000/svg" width="44" height="27" viewBox="0 0 44 27" fill="none">
<rect x="0.582214" y="0.674805" width="42.5627" height="25.5773" rx="1.125" stroke="#88765E" stroke-width="0.75"/>
<path fill-rule="evenodd" clip-rule="evenodd" d="M7.82648 16.2461C7.82648 15.7103 7.53172 15.7455 7.24976 15.7398V15.585C7.49425 15.5963 7.74494 15.5963 7.99008 15.5963C8.25343 15.5963 8.61099 15.585 9.07555 15.585C10.7001 15.585 11.5851 16.6153 11.5851 17.6704C11.5851 18.2608 11.2212 19.7442 9.00008 19.7442C8.68039 19.7442 8.38511 19.7324 8.09035 19.7324C7.80826 19.7324 7.53172 19.7379 7.24976 19.7442V19.5892C7.6258 19.5531 7.80826 19.5414 7.82648 19.1363V16.2461ZM8.44134 19.0413C8.44134 19.5003 8.78676 19.5537 9.09405 19.5537C10.4496 19.5537 10.8944 18.5826 10.8944 17.6949C10.8944 16.5806 10.1417 15.7764 8.93097 15.7764C8.67317 15.7764 8.55454 15.7938 8.44134 15.8002V19.0413Z" fill="#88765E"/>
<path fill-rule="evenodd" clip-rule="evenodd" d="M11.8047 19.5886H11.9236C12.0992 19.5886 12.2249 19.5886 12.2249 19.3915V17.7769C12.2249 17.5151 12.1309 17.4789 11.8984 17.3601V17.265C12.1933 17.1808 12.5449 17.0684 12.5697 17.0504C12.6139 17.0265 12.651 17.0201 12.6829 17.0201C12.7137 17.0201 12.7266 17.056 12.7266 17.1041V19.3915C12.7266 19.5886 12.8649 19.5886 13.0408 19.5886H13.147V19.7436C12.9336 19.7436 12.7137 19.7319 12.4886 19.7319C12.2627 19.7319 12.0367 19.7374 11.8047 19.7436V19.5886ZM12.4759 16.103C12.3125 16.103 12.1685 15.96 12.1685 15.8051C12.1685 15.6559 12.3193 15.5186 12.4759 15.5186C12.6387 15.5186 12.7835 15.6441 12.7835 15.8051C12.7835 15.9663 12.6451 16.103 12.4759 16.103Z" fill="#88765E"/>
<path fill-rule="evenodd" clip-rule="evenodd" d="M13.7432 17.8131C13.7432 17.593 13.6739 17.5335 13.3796 17.4201V17.307C13.6489 17.2236 13.9059 17.1458 14.2074 17.0205C14.2264 17.0205 14.2446 17.0324 14.2446 17.08V17.4675C14.6028 17.2236 14.9102 17.0205 15.3312 17.0205C15.8637 17.0205 16.0519 17.39 16.0519 17.8548V19.3919C16.0519 19.589 16.1903 19.589 16.3658 19.589H16.479V19.744C16.2587 19.744 16.0394 19.7322 15.8137 19.7322C15.5877 19.7322 15.3617 19.7378 15.1358 19.744V19.589H15.249C15.4248 19.589 15.5497 19.589 15.5497 19.3919V17.8493C15.5497 17.5092 15.3312 17.3426 14.9731 17.3426C14.7722 17.3426 14.4522 17.4972 14.2446 17.6289V19.3919C14.2446 19.589 14.3832 19.589 14.559 19.589H14.6717V19.744C14.4522 19.744 14.2326 19.7322 14.0063 19.7322C13.7809 19.7322 13.5548 19.7378 13.3292 19.744V19.589H13.4424C13.6178 19.589 13.7432 19.589 13.7432 19.3919V17.8131Z" fill="#88765E"/>
<path fill-rule="evenodd" clip-rule="evenodd" d="M16.9558 18.0996C16.943 18.1532 16.943 18.2424 16.9558 18.4452C16.9928 19.0111 17.3763 19.4756 17.8777 19.4756C18.2232 19.4756 18.4932 19.2968 18.7249 19.0767L18.8125 19.1602C18.5238 19.5236 18.1664 19.8336 17.6523 19.8336C16.6545 19.8336 16.4538 18.9155 16.4538 18.5344C16.4538 17.3664 17.2817 17.0205 17.7204 17.0205C18.2292 17.0205 18.7754 17.3244 18.7812 17.9562C18.7812 17.9924 18.7812 18.0278 18.7754 18.0636L18.7187 18.0996H16.9558ZM18.0668 17.9093C18.2233 17.9093 18.2417 17.8317 18.2417 17.7599C18.2417 17.4565 18.0473 17.2122 17.6958 17.2122C17.3134 17.2122 17.0498 17.4799 16.9746 17.9093H18.0668Z" fill="#88765E"/>
<path fill-rule="evenodd" clip-rule="evenodd" d="M18.926 19.589H19.0955C19.2705 19.589 19.3961 19.589 19.3961 19.3919V17.7179C19.3961 17.5335 19.1641 17.4972 19.0699 17.4496V17.3605C19.5279 17.1756 19.779 17.0205 19.8363 17.0205C19.873 17.0205 19.8919 17.0384 19.8919 17.0983V17.6347H19.9051C20.0614 17.4023 20.3255 17.0205 20.708 17.0205C20.8647 17.0205 21.0653 17.1218 21.0653 17.3364C21.0653 17.4972 20.9466 17.6409 20.771 17.6409C20.5759 17.6409 20.5759 17.4972 20.3561 17.4972C20.2496 17.4972 19.8982 17.6347 19.8982 17.9924V19.3919C19.8982 19.589 20.0236 19.589 20.1993 19.589H20.5503V19.744C20.2053 19.7378 19.9427 19.7322 19.6726 19.7322C19.4153 19.7322 19.1517 19.7378 18.926 19.744V19.589Z" fill="#88765E"/>
<path fill-rule="evenodd" clip-rule="evenodd" d="M21.341 18.9163C21.4228 19.3095 21.6733 19.6437 22.1321 19.6437C22.5017 19.6437 22.6396 19.429 22.6396 19.2206C22.6396 18.5171 21.2723 18.7438 21.2723 17.7845C21.2723 17.4504 21.5548 17.0215 22.2449 17.0215C22.4454 17.0215 22.7151 17.0755 22.9595 17.1948L23.0036 17.8021H22.8594C22.7967 17.4269 22.5774 17.2125 22.1754 17.2125C21.9245 17.2125 21.6863 17.3493 21.6863 17.6056C21.6863 18.3032 23.1415 18.0883 23.1415 19.0238C23.1415 19.4168 22.8094 19.8345 22.0625 19.8345C21.8118 19.8345 21.5164 19.7509 21.2975 19.6317L21.2281 18.9464L21.341 18.9163Z" fill="#88765E"/>
<path fill-rule="evenodd" clip-rule="evenodd" d="M28.8068 16.6631H28.6503C28.5309 15.9666 28.0101 15.6862 27.3079 15.6862C26.5856 15.6862 25.5382 16.1447 25.5382 17.5748C25.5382 18.7789 26.442 19.643 27.408 19.643C28.0285 19.643 28.5441 19.2377 28.6693 18.6116L28.8136 18.6472L28.6693 19.5175C28.4058 19.6726 27.6966 19.8338 27.2821 19.8338C25.8146 19.8338 24.8862 18.9338 24.8862 17.5932C24.8862 16.3713 26.0343 15.4951 27.264 15.4951C27.772 15.4951 28.2612 15.6505 28.7444 15.8115L28.8068 16.6631Z" fill="#88765E"/>
<path fill-rule="evenodd" clip-rule="evenodd" d="M29.0333 19.5884H29.152C29.3283 19.5884 29.4535 19.5884 29.4535 19.3912V16.0731C29.4535 15.6854 29.3596 15.6736 29.1209 15.608V15.5125C29.3717 15.4352 29.6354 15.3281 29.7675 15.2561C29.8356 15.2209 29.8863 15.1904 29.9047 15.1904C29.9431 15.1904 29.9555 15.2266 29.9555 15.2745V19.3912C29.9555 19.5884 30.0937 19.5884 30.2692 19.5884H30.3754V19.7434C30.1627 19.7434 29.9431 19.7316 29.7171 19.7316C29.4914 19.7316 29.2657 19.7371 29.0333 19.7434V19.5884Z" fill="#88765E"/>
<path fill-rule="evenodd" clip-rule="evenodd" d="M33.0616 19.416C33.0616 19.5236 33.1302 19.5292 33.2365 19.5292C33.3122 19.5292 33.4059 19.5236 33.4881 19.5236V19.649C33.2182 19.6726 32.7035 19.7978 32.5841 19.8336L32.5528 19.8154V19.3328C32.1768 19.6246 31.8878 19.8336 31.4417 19.8336C31.103 19.8336 30.7519 19.6246 30.7519 19.1247V17.5988C30.7519 17.4437 30.727 17.2947 30.3762 17.2654V17.1518C30.6022 17.1459 31.103 17.1104 31.1848 17.1104C31.2545 17.1104 31.2545 17.1518 31.2545 17.2832V18.8204C31.2545 18.9993 31.2545 19.5112 31.8002 19.5112C32.0132 19.5112 32.2955 19.3567 32.5589 19.1484V17.5451C32.5589 17.426 32.2579 17.3605 32.0324 17.3012V17.1941C32.5965 17.1577 32.9482 17.1104 33.0109 17.1104C33.0616 17.1104 33.0616 17.1518 33.0616 17.2176V19.416Z" fill="#88765E"/>
<path fill-rule="evenodd" clip-rule="evenodd" d="M34.3097 17.4489C34.5606 17.2468 34.8995 17.0198 35.2445 17.0198C35.9725 17.0198 36.4117 17.6223 36.4117 18.2717C36.4117 19.052 35.8091 19.833 34.9115 19.833C34.4478 19.833 34.203 19.6895 34.0395 19.6239L33.8519 19.761L33.7204 19.6957C33.7764 19.3442 33.8081 18.9986 33.8081 18.635V16.0731C33.8081 15.6854 33.7136 15.6736 33.4752 15.608V15.5125C33.7264 15.4352 33.9897 15.3281 34.1213 15.2561C34.1906 15.2209 34.2406 15.1904 34.2597 15.1904C34.2971 15.1904 34.3097 15.2268 34.3097 15.2745V17.4489ZM34.3097 19.0701C34.3097 19.2964 34.5357 19.6781 34.9559 19.6781C35.6271 19.6781 35.9093 19.0523 35.9093 18.5218C35.9093 17.8784 35.3954 17.3422 34.9062 17.3422C34.6731 17.3422 34.479 17.4854 34.3097 17.6227V19.0701Z" fill="#88765E"/>
<path fill-rule="evenodd" clip-rule="evenodd" d="M7.24274 23.2088H7.29068C7.41344 23.2088 7.54318 23.1928 7.54318 23.0241V21.3255C7.54318 21.1565 7.41344 21.1404 7.29068 21.1404H7.24274V21.043C7.37584 21.043 7.58066 21.0559 7.74839 21.0559C7.91896 21.0559 8.12352 21.043 8.28402 21.043V21.1404H8.23582C8.11357 21.1404 7.98357 21.1565 7.98357 21.3255V23.0241C7.98357 23.1928 8.11357 23.2088 8.23582 23.2088H8.28402V23.3062C8.12029 23.3062 7.91496 23.2937 7.7449 23.2937C7.5773 23.2937 7.37584 23.3062 7.24274 23.3062V23.2088Z" fill="#88765E"/>
<path fill-rule="evenodd" clip-rule="evenodd" d="M8.28398 23.3206C8.11884 23.3206 7.91454 23.3075 7.74461 23.3075C7.57752 23.3075 7.37671 23.3206 7.2427 23.3206H7.22784V23.1952H7.29039C7.41431 23.1924 7.527 23.183 7.52803 23.0245V21.3259C7.527 21.1672 7.41431 21.1569 7.29039 21.1549H7.22784V21.0293H7.2427C7.37671 21.0293 7.5814 21.0419 7.74836 21.0419C7.91815 21.0419 8.12259 21.0293 8.28398 21.0293H8.29923V21.1549H8.23643C8.11238 21.1569 7.99905 21.1672 7.9984 21.3259V23.0245C7.99905 23.183 8.11238 23.1924 8.23643 23.1952H8.29923V23.3206H8.28398ZM8.27004 23.2935L8.27017 23.2245H8.23721C8.1151 23.2245 7.96998 23.2041 7.96921 23.0252V21.3266C7.96998 21.1473 8.1151 21.1273 8.23721 21.1273H8.27004V21.0581C8.11251 21.0582 7.91467 21.0712 7.74914 21.0712C7.58696 21.0712 7.39067 21.0591 7.25848 21.0581V21.1273H7.29117C7.4129 21.1273 7.55828 21.1473 7.55828 21.3266V23.0252C7.55828 23.2041 7.4129 23.2245 7.29117 23.2245H7.25848V23.2935C7.39067 23.2924 7.58347 23.2805 7.74539 23.2805C7.9117 23.2805 8.10903 23.2926 8.27004 23.2935Z" fill="#88765E"/>
<path fill-rule="evenodd" clip-rule="evenodd" d="M10.6292 22.6672L10.6361 22.6608V21.4453C10.6361 21.1792 10.4412 21.1403 10.3389 21.1403H10.2637V21.043C10.4244 21.043 10.5814 21.0559 10.7417 21.0559C10.8816 21.0559 11.0222 21.043 11.1616 21.043V21.1403H11.1109C10.967 21.1403 10.8065 21.1662 10.8065 21.5521V23.0273C10.8065 23.1409 10.8099 23.2543 10.8267 23.355H10.697L8.93914 21.4935V22.8297C8.93914 23.112 8.9969 23.2088 9.25974 23.2088H9.31789V23.3062C9.17109 23.3062 9.02443 23.2936 8.87763 23.2936C8.72437 23.2936 8.56711 23.3062 8.41333 23.3062V23.2088H8.46127C8.69672 23.2088 8.76844 23.0564 8.76844 22.7978V21.4317C8.76844 21.2503 8.61091 21.1403 8.45791 21.1403H8.41333V21.043C8.54281 21.043 8.67617 21.0559 8.80565 21.0559C8.90838 21.0559 9.00737 21.043 9.10971 21.043L10.6292 22.6672Z" fill="#88765E"/>
<path fill-rule="evenodd" clip-rule="evenodd" d="M10.8267 23.369L10.6861 23.3645L8.95359 21.5305V22.8301C8.95773 23.112 9.00283 23.1922 9.25985 23.1952H9.33299V23.3205H9.31787C9.17017 23.3205 9.02325 23.3075 8.87761 23.3075C8.72474 23.3075 8.56786 23.3205 8.41318 23.3205H8.39819V23.1952H8.46125C8.68688 23.194 8.75136 23.0563 8.75382 22.7981V21.4326C8.75317 21.2599 8.60405 21.1548 8.45802 21.1548H8.39819V21.0293H8.41318C8.5437 21.0293 8.67732 21.0419 8.80538 21.0419C8.9072 21.0419 9.0058 21.0293 9.12094 21.0343L10.6212 22.6383V21.4457C10.6195 21.1882 10.4384 21.1569 10.339 21.1548H10.2487V21.0293H10.2638C10.4251 21.0293 10.5822 21.0419 10.7417 21.0419C10.8806 21.0419 11.0205 21.0293 11.1616 21.0293H11.1766V21.1548H11.1108C10.9699 21.1583 10.8253 21.1701 10.8211 21.5525V23.0277C10.8211 23.1412 10.8249 23.2544 10.8413 23.3528L10.8444 23.369H10.8267ZM10.6979 23.3415H10.8108C10.7956 23.2439 10.7929 23.1363 10.7929 23.0284V21.5532C10.7929 21.164 10.9646 21.1273 11.1117 21.127H11.1476V21.0581C11.0131 21.0591 10.8783 21.0708 10.7425 21.0708C10.5861 21.0708 10.4341 21.0591 10.2798 21.0581L10.2795 21.127H10.3398C10.4447 21.1273 10.6516 21.1716 10.6516 21.4464L10.6471 22.6721L10.6404 22.6784L10.6287 22.6888L9.1105 21.0581C9.00906 21.0581 8.91034 21.0708 8.80618 21.0708C8.6811 21.0708 8.55291 21.0591 8.42911 21.0581L8.42846 21.127H8.45883C8.61894 21.1273 8.7837 21.2434 8.7837 21.4333V22.7988C8.7837 23.0582 8.70759 23.2239 8.46206 23.2247L8.42911 23.2239V23.2935C8.57694 23.2924 8.7293 23.2805 8.87842 23.2805C9.02082 23.2805 9.16297 23.2924 9.30382 23.2935V23.2247H9.26066C8.99201 23.2239 8.92546 23.1127 8.9252 22.8308V21.4583L10.6979 23.3415ZM10.6293 22.6678L10.6401 22.6584L10.6293 22.6678ZM10.6212 22.6618V22.6605L10.6185 22.6584L10.6212 22.6618Z" fill="#88765E"/>
<path fill-rule="evenodd" clip-rule="evenodd" d="M11.6732 21.205C11.4168 21.205 11.4069 21.2637 11.3557 21.5001H11.2532C11.2667 21.4092 11.2836 21.3186 11.2942 21.2245C11.3079 21.1334 11.3147 21.0429 11.3147 20.9491H11.3965C11.4241 21.0465 11.5094 21.0429 11.602 21.0429H13.3628C13.4555 21.0429 13.5406 21.0397 13.5476 20.9424L13.6291 20.9556C13.616 21.0429 13.602 21.1305 13.592 21.2183C13.5853 21.3058 13.5853 21.393 13.5853 21.4806L13.4827 21.5166C13.4757 21.3969 13.4588 21.205 13.2301 21.205H12.6702V22.93C12.6702 23.1801 12.7898 23.2087 12.9534 23.2087H13.0186V23.3062C12.8853 23.3062 12.6463 23.2936 12.4622 23.2936C12.2572 23.2936 12.018 23.3062 11.8847 23.3062V23.2087H11.9499C12.138 23.2087 12.2331 23.1928 12.2331 22.9368V21.205H11.6732Z" fill="#88765E"/>
<path fill-rule="evenodd" clip-rule="evenodd" d="M13.0187 23.3209C12.8842 23.3209 12.6454 23.308 12.4622 23.308C12.2573 23.308 12.0185 23.3209 11.8847 23.3209H11.8701V23.1956H11.9498C12.1379 23.1914 12.2135 23.189 12.2178 22.9376V21.2197H11.6731V21.1914H12.2474V22.9376C12.2474 23.1979 12.1369 23.2241 11.9498 23.2244H11.8993V23.2929C12.0339 23.292 12.2639 23.2801 12.4622 23.2801C12.6398 23.2801 12.8679 23.292 13.0032 23.2929V23.2244H12.9533C12.7882 23.2241 12.6553 23.1856 12.6553 22.9308V21.1914H13.23C13.459 21.1922 13.4893 21.3771 13.4965 21.4977L13.5704 21.4718C13.5704 21.3871 13.5708 21.3023 13.5768 21.2171C13.5869 21.1333 13.5993 21.051 13.6121 20.9679L13.5603 20.9596C13.5444 21.054 13.4481 21.0591 13.3626 21.0578H11.5841C11.5037 21.058 11.4162 21.0543 11.3855 20.9638H11.3291C11.3286 21.0534 11.3221 21.1404 11.3092 21.2268C11.299 21.3159 11.2834 21.4015 11.271 21.4874H11.3439C11.3887 21.2612 11.4179 21.1882 11.6731 21.1914V21.2197C11.4202 21.2245 11.4258 21.2646 11.3701 21.5042L11.3676 21.5152H11.2361L11.2379 21.4984C11.2518 21.408 11.2692 21.3169 11.2791 21.2228C11.2933 21.1328 11.2998 21.0429 11.2998 20.95V20.9356H11.4082L11.4108 20.9458C11.4338 21.0275 11.497 21.0281 11.5841 21.0296H13.3626C13.4577 21.0281 13.527 21.0269 13.5328 20.9421L13.5339 20.9268L13.5494 20.9297L13.646 20.9442L13.6435 20.9585C13.6299 21.0456 13.6166 21.1328 13.6063 21.2197C13.6 21.3066 13.6 21.3937 13.6 21.4814V21.4912L13.59 21.495L13.4692 21.537L13.4684 21.5182C13.459 21.3962 13.4458 21.2197 13.23 21.2197H12.6851V22.9308C12.6884 23.1753 12.7905 23.1925 12.9533 23.1956H13.0332V23.3209H13.0187Z" fill="#88765E"/>
<path fill-rule="evenodd" clip-rule="evenodd" d="M13.7382 23.2088H13.7863C13.9088 23.2088 14.0389 23.1928 14.0389 23.0241V21.3255C14.0389 21.1565 13.9088 21.1404 13.7863 21.1404H13.7382V21.043C13.9458 21.043 14.3016 21.0559 14.5879 21.0559C14.8751 21.0559 15.2297 21.043 15.4618 21.043C15.4558 21.1824 15.4591 21.3969 15.4692 21.5393L15.3663 21.5651C15.3499 21.3542 15.3089 21.1861 14.9503 21.1861H14.4763V22.035H14.8818C15.0867 22.035 15.1312 21.9252 15.1515 21.7499H15.2539C15.247 21.8766 15.2434 22.003 15.2434 22.1293C15.2434 22.2527 15.247 22.3758 15.2539 22.4988L15.1515 22.5182C15.1312 22.3239 15.121 22.1975 14.8852 22.1975H14.4763V22.9525C14.4763 23.1636 14.6735 23.1636 14.8922 23.1636C15.3019 23.1636 15.4827 23.1375 15.5852 22.7683L15.6804 22.7906C15.6361 22.9628 15.5954 23.1342 15.5648 23.3062C15.346 23.3062 14.9534 23.2937 14.6468 23.2937C14.3388 23.2937 13.933 23.3062 13.7382 23.3062V23.2088Z" fill="#88765E"/>
<path fill-rule="evenodd" clip-rule="evenodd" d="M15.5646 23.3206C15.3456 23.3206 14.9527 23.3071 14.6465 23.3071C14.3389 23.3071 13.9332 23.3206 13.7382 23.3206H13.7238V23.1952H13.7862C13.9098 23.1933 14.0222 23.183 14.0237 23.0245V21.3259C14.0222 21.1675 13.9098 21.1569 13.7862 21.1549H13.7238V21.0293H13.7382C13.9467 21.0293 14.3018 21.0419 14.5879 21.0419C14.8749 21.0419 15.2294 21.0293 15.4619 21.0293H15.477L15.4765 21.0443C15.4743 21.0927 15.4728 21.1504 15.4728 21.2114C15.4728 21.3235 15.4765 21.4463 15.4832 21.5386L15.4838 21.5502L15.4723 21.5535L15.3523 21.5833L15.3518 21.5666C15.3316 21.3563 15.3019 21.2032 14.9504 21.2H14.4902L14.49 22.0212H14.8818C15.0786 22.0192 15.1137 21.9238 15.137 21.7489L15.1378 21.7359H15.2691L15.2688 21.7507C15.2622 21.8774 15.2582 22.0034 15.2582 22.1297C15.2582 22.2523 15.2622 22.3754 15.2688 22.4986L15.2691 22.5104L15.2567 22.5131L15.1378 22.5356L15.137 22.5203C15.1134 22.3224 15.1118 22.2139 14.8853 22.2116H14.4902V22.953C14.4908 23.1501 14.6696 23.149 14.8921 23.1501C15.3032 23.1477 15.4678 23.1286 15.5707 22.765L15.5742 22.7518L15.5885 22.754L15.698 22.781L15.6949 22.7944C15.6505 22.966 15.6098 23.1374 15.5789 23.309L15.5764 23.3206H15.5646ZM15.5528 23.2932C15.5826 23.1293 15.6215 22.9655 15.6634 22.8023L15.5962 22.7862C15.494 23.1489 15.2959 23.1813 14.8929 23.1789C14.6778 23.1789 14.4628 23.1789 14.4616 22.9536V22.1845H14.8861C15.1245 22.1822 15.1485 22.3186 15.1656 22.5031L15.2393 22.4887C15.2327 22.3692 15.2293 22.2492 15.2293 22.1304C15.2293 22.0086 15.2327 21.8871 15.2393 21.7648H15.1656C15.1463 21.9341 15.0907 22.0523 14.8826 22.0502H14.4616V21.1726H14.9512C15.3062 21.1699 15.365 21.3444 15.3805 21.5484L15.454 21.5294C15.4481 21.4379 15.4441 21.3203 15.4441 21.2121C15.4441 21.1566 15.4456 21.104 15.4476 21.0581C15.2156 21.0591 14.8694 21.0708 14.5888 21.0708C14.3082 21.0708 13.9629 21.0591 13.754 21.0581V21.127H13.7871C13.9085 21.1273 14.0538 21.1473 14.0545 21.3266V23.0252C14.0538 23.2041 13.9085 23.2239 13.7871 23.2248H13.754V23.2932C13.9527 23.2926 14.3474 23.2805 14.6473 23.2805C14.9486 23.2805 15.3327 23.2926 15.5528 23.2932Z" fill="#88765E"/>
<path fill-rule="evenodd" clip-rule="evenodd" d="M16.1415 21.3864C16.1415 21.15 16.0048 21.1403 15.8988 21.1403H15.8372V21.043C15.9465 21.043 16.1581 21.0559 16.3666 21.0559C16.571 21.0559 16.7351 21.043 16.916 21.043C17.3456 21.043 17.7287 21.1531 17.7287 21.6138C17.7287 21.9054 17.5238 22.0835 17.2542 22.1846L17.8377 23.0141C17.9335 23.1514 18.0013 23.1898 18.169 23.2088V23.3062C18.056 23.3062 17.9469 23.2937 17.8346 23.2937C17.7287 23.2937 17.619 23.3062 17.5137 23.3062C17.2506 22.9789 17.0251 22.6289 16.8034 22.2554H16.5784V22.9497C16.5784 23.1993 16.701 23.2088 16.8575 23.2088H16.9194V23.3062C16.7244 23.3062 16.5272 23.2937 16.3322 23.2937C16.1684 23.2937 16.0079 23.3062 15.8372 23.3062V23.2088H15.8988C16.0256 23.2088 16.1415 23.1539 16.1415 23.0341V21.3864ZM16.5784 22.1382H16.7452C17.087 22.1382 17.271 22.0154 17.271 21.6326C17.271 21.3443 17.0764 21.1595 16.7722 21.1595C16.6698 21.1595 16.6261 21.1694 16.5784 21.1726V22.1382Z" fill="#88765E"/>
<path fill-rule="evenodd" clip-rule="evenodd" d="M18.1691 23.3206C18.0546 23.3206 17.946 23.3075 17.8337 23.3075C17.7297 23.3075 17.6205 23.3206 17.5016 23.3152C17.2397 22.9887 17.0152 22.6406 16.7948 22.2705H16.5931V22.9495C16.5968 23.1936 16.6998 23.1918 16.8576 23.1952H16.9342V23.3206H16.9191C16.724 23.3206 16.5256 23.3075 16.3322 23.3075C16.1691 23.3075 16.0087 23.3206 15.8372 23.3206H15.8224V23.1952H15.8989C16.0216 23.1944 16.1254 23.1436 16.1259 23.0346V21.3868C16.1233 21.1569 16.0049 21.158 15.8989 21.1549H15.8224V21.0293H15.8372C15.9477 21.0293 16.1585 21.0419 16.3667 21.0419C16.5705 21.0419 16.7342 21.0293 16.9161 21.0293C17.3466 21.0302 17.7426 21.1427 17.7437 21.6137C17.7437 21.9063 17.54 22.0892 17.2768 22.1912L17.85 23.0069C17.9455 23.1414 18.005 23.175 18.171 23.1952L18.1834 23.1971V23.3206H18.1691ZM16.5791 22.2425H16.8124L16.8167 22.2498C17.0389 22.6223 17.2632 22.9724 17.5146 23.2935C17.6185 23.2935 17.7282 23.2805 17.8345 23.2805C17.9435 23.2805 18.0489 23.2918 18.1549 23.2932V23.222C17.9949 23.2035 17.9197 23.1576 17.8265 23.0232L17.2322 22.1792L17.249 22.1727C17.5164 22.0727 17.7145 21.8995 17.7146 21.6144C17.7145 21.1646 17.3461 21.0603 16.9169 21.0581C16.7372 21.0581 16.5731 21.0712 16.3675 21.0712C16.1669 21.0712 15.9643 21.0591 15.8526 21.0581V21.127H15.8997C16.0056 21.1273 16.1565 21.144 16.1565 21.3875V23.0353C16.1565 23.1653 16.0281 23.2245 15.8997 23.2247H15.8526V23.2932C16.0168 23.2926 16.1726 23.2805 16.333 23.2805C16.5236 23.2805 16.7164 23.2926 16.9052 23.2932V23.2247H16.8584C16.7029 23.2245 16.564 23.2062 16.564 22.9502V22.2425H16.5791ZM16.5783 22.1533H16.5632V21.1606L16.5763 21.1596C16.6231 21.156 16.6691 21.1471 16.7723 21.1471C17.0832 21.1471 17.2857 21.3389 17.286 21.6346C17.2851 22.0216 17.0897 22.1532 16.7453 22.1533H16.5783ZM16.7453 22.125C17.0832 22.1218 17.2535 22.0105 17.2569 21.6339C17.2548 21.3506 17.0697 21.1749 16.7723 21.1736C16.6802 21.1736 16.6366 21.1817 16.5931 21.1858V22.125H16.7453Z" fill="#88765E"/>
<path fill-rule="evenodd" clip-rule="evenodd" d="M20.4867 22.6672L20.4927 22.6608V21.4453C20.4927 21.1792 20.2987 21.1403 20.1962 21.1403H20.1214V21.043C20.2819 21.043 20.4384 21.0559 20.5993 21.0559C20.7396 21.0559 20.8785 21.043 21.0195 21.043V21.1403H20.9681C20.8246 21.1403 20.6643 21.1662 20.6643 21.5521V23.0273C20.6643 23.1409 20.6676 23.2543 20.6844 23.355H20.5552L18.7973 21.4935V22.8297C18.7973 23.112 18.8549 23.2088 19.1177 23.2088H19.1759V23.3062C19.0292 23.3062 18.8822 23.2936 18.7355 23.2936C18.5813 23.2936 18.4246 23.3062 18.2711 23.3062V23.2088H18.3185C18.5542 23.2088 18.6263 23.0564 18.6263 22.7978V21.4317C18.6263 21.2503 18.469 21.1403 18.3155 21.1403H18.2711V21.043C18.4003 21.043 18.5344 21.0559 18.6639 21.0559C18.7653 21.0559 18.8648 21.043 18.9674 21.043L20.4867 22.6672Z" fill="#88765E"/>
<path fill-rule="evenodd" clip-rule="evenodd" d="M20.6844 23.369L20.5442 23.3645L18.8114 21.5308V22.83C18.8154 23.1124 18.8604 23.1922 19.1178 23.1952H19.1902V23.3205H19.1753C19.0277 23.3205 18.8812 23.307 18.7349 23.307C18.5825 23.307 18.4248 23.3205 18.271 23.3205H18.2557V23.1952H18.3185C18.544 23.1944 18.6086 23.0563 18.6108 22.7973V21.4321C18.6105 21.2593 18.4616 21.1548 18.3156 21.1548H18.2557V21.0293H18.271C18.4014 21.0293 18.535 21.0419 18.6638 21.0419C18.7641 21.0419 18.863 21.0293 18.9774 21.0335L20.4782 22.6383V21.4457C20.4773 21.1882 20.2955 21.1563 20.1963 21.1548H20.1062V21.0293H20.1211C20.2823 21.0293 20.4397 21.0419 20.5993 21.0419C20.7384 21.0419 20.8782 21.0293 21.0189 21.0293H21.034V21.1548H20.9681C20.8273 21.158 20.6822 21.1701 20.6788 21.5525V23.0277C20.6788 23.1412 20.6818 23.2537 20.6992 23.3531L20.7009 23.369H20.6844ZM20.5559 23.3415H20.6678C20.6528 23.2445 20.6499 23.1363 20.6499 23.0284V21.5532C20.6501 21.164 20.8228 21.1279 20.9689 21.127H21.0048V21.0581C20.8704 21.0591 20.7355 21.0708 20.6001 21.0708C20.4432 21.0708 20.2911 21.0591 20.1367 21.0581V21.127H20.1971C20.3023 21.1279 20.509 21.1716 20.509 21.4464L20.5041 22.6721L20.4979 22.6784L20.4872 22.689L18.9683 21.0581C18.8667 21.0581 18.7677 21.0708 18.6646 21.0708C18.538 21.0708 18.4104 21.0591 18.2864 21.0581V21.127H18.3163C18.477 21.1279 18.6412 21.2429 18.6412 21.4328V22.798C18.6412 23.0582 18.5641 23.2239 18.3193 23.2247L18.2864 23.2245V23.2934C18.4338 23.2924 18.5859 23.2805 18.7357 23.2805C18.8789 23.2805 19.0207 23.2924 19.1619 23.2934V23.2247H19.1186C18.8499 23.2245 18.783 23.1131 18.7822 22.8307V21.4588L20.5559 23.3415ZM20.4864 22.6678L20.4976 22.6584L20.4864 22.6678ZM20.4783 22.6618V22.6609L20.4758 22.6584L20.4783 22.6618Z" fill="#88765E"/>
<path fill-rule="evenodd" clip-rule="evenodd" d="M21.5684 22.8429C21.534 22.9527 21.4928 23.0379 21.4928 23.0955C21.4928 23.193 21.6367 23.2091 21.7489 23.2091H21.7871V23.3064C21.65 23.2994 21.5107 23.2939 21.3733 23.2939C21.2504 23.2939 21.1282 23.2994 21.0049 23.3064V23.2091H21.0257C21.1585 23.2091 21.2716 23.1344 21.3223 22.9981L21.8685 21.5104C21.9131 21.3901 21.9746 21.2281 21.9954 21.1078C22.1039 21.0724 22.241 21.0079 22.3056 20.9685C22.3162 20.9652 22.3226 20.9619 22.3329 20.9619C22.3432 20.9619 22.3496 20.9619 22.3571 20.9721C22.3671 20.9978 22.3771 21.027 22.3877 21.0529L23.0161 22.7489C23.0571 22.862 23.0976 22.9819 23.1413 23.0797C23.1829 23.1707 23.2547 23.2091 23.3677 23.2091H23.3881V23.3064C23.2344 23.2994 23.0803 23.2939 22.9172 23.2939C22.7499 23.2939 22.5787 23.2994 22.4046 23.3064V23.2091H22.4422C22.5203 23.2091 22.6543 23.1962 22.6543 23.1151C22.6543 23.0732 22.6234 22.9856 22.5853 22.8814L22.4523 22.5055H21.6775L21.5684 22.8429ZM22.0669 21.4058H22.0598L21.7425 22.3235H22.3804L22.0669 21.4058Z" fill="#88765E"/>
<path fill-rule="evenodd" clip-rule="evenodd" d="M23.387 23.3196C23.2336 23.3133 23.0797 23.3061 22.9172 23.3061C22.7498 23.3061 22.5795 23.3133 22.4053 23.3196L22.3895 23.3203V23.1937H22.4421C22.5212 23.1937 22.6386 23.1768 22.6388 23.1144C22.6396 23.0774 22.609 22.9886 22.5714 22.8855L22.4414 22.5186H21.6884L21.5822 22.8463C21.5478 22.9565 21.5063 23.0422 21.5069 23.095C21.5081 23.1741 21.6355 23.1937 21.7488 23.1937H21.8013V23.3203L21.7858 23.3196C21.6493 23.3133 21.51 23.3061 21.3735 23.3061C21.2516 23.3061 21.1282 23.3133 21.0059 23.3196L20.9901 23.3203V23.1937H21.0255C21.1524 23.1934 21.2583 23.1246 21.3077 22.9929L21.8544 21.5046C21.8985 21.3846 21.9605 21.2233 21.99 21.0937C22.0971 21.0593 22.2345 20.9938 22.3 20.9547C22.3095 20.9515 22.319 20.9473 22.3327 20.9473C22.3411 20.9468 22.3594 20.9489 22.3705 20.9659C22.3802 20.9925 22.3911 21.0216 22.4014 21.0477L23.03 22.7435C23.0702 22.857 23.111 22.9768 23.1557 23.0729C23.1952 23.1593 23.2579 23.1934 23.3676 23.1937H23.4021V23.3203L23.387 23.3196ZM22.4198 23.2906C22.5887 23.285 22.7545 23.2787 22.9176 23.2787C23.0759 23.2787 23.2248 23.285 23.3731 23.2906V23.2227H23.3681C23.251 23.2235 23.1705 23.1798 23.1286 23.0842C23.0842 22.9862 23.0427 22.8658 23.0024 22.7523L22.3738 21.0564C22.3635 21.0305 22.3538 21.0016 22.3449 20.9785C22.3415 20.9753 22.3423 20.9753 22.3396 20.9753H22.3331C22.3263 20.9753 22.3221 20.9773 22.3133 20.9793C22.2477 21.0198 22.1108 21.0838 22.0093 21.1091C21.9885 21.2319 21.927 21.3939 21.8826 21.5141L21.3364 23.0019C21.2845 23.1428 21.1644 23.223 21.0259 23.2227H21.0202V23.2906C21.1373 23.285 21.2554 23.2787 21.3739 23.2787C21.506 23.2787 21.6406 23.285 21.7712 23.2906V23.2227H21.7493C21.6378 23.2213 21.4824 23.2097 21.4786 23.0948C21.4788 23.0305 21.5207 22.9476 21.5542 22.838L21.5686 22.842L21.5542 22.8376L21.6666 22.4911H22.4626L22.5993 22.8761C22.6377 22.9805 22.6687 23.0669 22.6687 23.1142C22.6637 23.2135 22.52 23.2209 22.4426 23.2227H22.4198V23.2906ZM21.7216 22.3369L22.0484 21.3909H22.0667V21.4052L22.0631 21.4062L22.0667 21.4052V21.3909H22.0769L22.4014 22.3369H21.7216ZM21.7624 22.3089H22.3601L22.063 21.4401L21.7624 22.3089ZM22.0519 21.4102L22.0598 21.4079L22.0519 21.4102Z" fill="#88765E"/>
<path fill-rule="evenodd" clip-rule="evenodd" d="M23.5382 21.205C23.2822 21.205 23.2718 21.2637 23.2204 21.5001H23.1178C23.1312 21.4092 23.1487 21.3186 23.1593 21.2245C23.1726 21.1334 23.1792 21.0429 23.1792 20.9491H23.2618C23.2885 21.0465 23.374 21.0429 23.4662 21.0429H25.228C25.3198 21.0429 25.405 21.0397 25.4118 20.9424L25.4934 20.9556C25.4808 21.0429 25.4672 21.1305 25.4565 21.2183C25.449 21.3058 25.449 21.393 25.449 21.4806L25.347 21.5166C25.341 21.3969 25.3238 21.205 25.0945 21.205H24.5347V22.93C24.5347 23.1801 24.6544 23.2087 24.818 23.2087H24.8832V23.3062C24.7499 23.3062 24.5113 23.2936 24.3266 23.2936C24.1221 23.2936 23.8825 23.3062 23.7494 23.3062V23.2087H23.8144C24.0026 23.2087 24.0978 23.1928 24.0978 22.9368V21.205H23.5382Z" fill="#88765E"/>
<path fill-rule="evenodd" clip-rule="evenodd" d="M24.8833 23.3209C24.7491 23.3209 24.5098 23.308 24.3263 23.308C24.1224 23.308 23.8834 23.3209 23.7496 23.3209H23.7345V23.1956H23.8145C24.0028 23.1914 24.0782 23.189 24.0827 22.9376L24.0825 21.2197H23.5382V21.1914H24.1126V22.9376C24.1126 23.1979 24.002 23.2235 23.8145 23.2241H23.7642V23.2931C23.8991 23.292 24.1285 23.2801 24.3263 23.2801C24.5048 23.2801 24.7332 23.292 24.868 23.2931V23.2241H24.8179C24.6534 23.2235 24.5204 23.186 24.5202 22.9308V21.1914H25.0946C25.3239 21.1922 25.3538 21.3771 25.3604 21.4977L25.4345 21.4718C25.4345 21.3871 25.4351 21.3023 25.442 21.2175C25.4512 21.1339 25.4641 21.051 25.4765 20.9682L25.425 20.9596C25.4093 21.054 25.3129 21.0593 25.228 21.0578H23.4488C23.3683 21.0587 23.2812 21.0543 23.2502 20.9636H23.1943C23.1936 21.0533 23.1868 21.1404 23.1734 21.2268C23.1641 21.3163 23.1477 21.4021 23.1346 21.4874H23.208C23.2529 21.2612 23.2825 21.1878 23.5382 21.1914V21.2197C23.285 21.2239 23.2906 21.2646 23.2349 21.5042L23.2325 21.5152H23.1006L23.1027 21.4992C23.1171 21.408 23.1339 21.3169 23.1438 21.2235C23.1578 21.1328 23.1641 21.0429 23.1641 20.95V20.9356H23.2725L23.2754 20.9458C23.2993 21.0275 23.3614 21.0281 23.4488 21.0296H25.228C25.3225 21.0281 25.3914 21.0269 25.3975 20.9423L25.398 20.9268L25.4139 20.9297L25.5108 20.9442L25.5085 20.9585C25.4944 21.0456 25.4815 21.1328 25.4711 21.2197C25.4641 21.3066 25.4641 21.3939 25.4641 21.4814V21.4912L25.4542 21.495L25.3334 21.537L25.3328 21.5182C25.3239 21.3962 25.3104 21.2197 25.0946 21.2197H24.5495V22.9308C24.553 23.1753 24.6552 23.1925 24.8179 23.1956H24.8975V23.3209H24.8833Z" fill="#88765E"/>
<path fill-rule="evenodd" clip-rule="evenodd" d="M25.6199 23.2088H25.6677C25.7907 23.2088 25.9199 23.1928 25.9199 23.0241V21.3255C25.9199 21.1565 25.7907 21.1404 25.6677 21.1404H25.6199V21.043C25.7531 21.043 25.9575 21.0559 26.1246 21.0559C26.2957 21.0559 26.5007 21.043 26.6614 21.043V21.1404H26.6135C26.4901 21.1404 26.3603 21.1565 26.3603 21.3255V23.0241C26.3603 23.1928 26.4901 23.2088 26.6135 23.2088H26.6614V23.3062C26.4974 23.3062 26.2924 23.2937 26.1219 23.2937C25.9543 23.2937 25.7531 23.3062 25.6199 23.3062V23.2088Z" fill="#88765E"/>
<path fill-rule="evenodd" clip-rule="evenodd" d="M26.6614 23.3206C26.4964 23.3206 26.2922 23.3071 26.1219 23.3071C25.9548 23.3071 25.7532 23.3206 25.6199 23.3206H25.6053V23.1952H25.6678C25.7908 23.1933 25.9043 23.183 25.9051 23.0245V21.3259C25.9043 21.1675 25.7908 21.1569 25.6678 21.1549H25.6053V21.0293H25.6199C25.7532 21.0293 25.9586 21.0419 26.1246 21.0419C26.2948 21.0419 26.4996 21.0293 26.6614 21.0293H26.6756V21.1549H26.6136C26.4887 21.1569 26.3764 21.1675 26.3752 21.3259V23.0245C26.3764 23.183 26.4887 23.1933 26.6136 23.1952H26.6756V23.3206H26.6614ZM26.6467 23.2932V23.2245H26.6144C26.4919 23.2245 26.347 23.2041 26.347 23.0252V21.3266C26.347 21.1473 26.4919 21.1273 26.6144 21.127H26.6467V21.0581C26.4893 21.0591 26.2916 21.0708 26.1254 21.0708C25.9633 21.0708 25.768 21.0591 25.6355 21.0581V21.127H25.6686C25.7898 21.1273 25.9353 21.1473 25.9357 21.3266V23.0252C25.9353 23.2041 25.7898 23.2245 25.6686 23.2245H25.6355V23.2932C25.7671 23.2918 25.9601 23.2805 26.1227 23.2805C26.2882 23.2805 26.4857 23.2924 26.6467 23.2932Z" fill="#88765E"/>
<path fill-rule="evenodd" clip-rule="evenodd" d="M28.0226 20.9941C28.7504 20.9941 29.3305 21.4226 29.3305 22.1132C29.3305 22.859 28.767 23.3547 28.0402 23.3547C27.3161 23.3547 26.7633 22.8877 26.7633 22.1905C26.7633 21.5165 27.3128 20.9941 28.0226 20.9941ZM28.0742 23.2119C28.7367 23.2119 28.8522 22.657 28.8522 22.1843C28.8522 21.7104 28.5832 21.1368 28.0161 21.1368C27.4189 21.1368 27.2412 21.6427 27.2412 22.0768C27.2412 22.657 27.5214 23.2119 28.0742 23.2119Z" fill="#88765E"/>
<path fill-rule="evenodd" clip-rule="evenodd" d="M26.748 22.191C26.7494 21.5091 27.3052 20.9816 28.0224 20.9805V21.0088C27.3206 21.0088 26.7777 21.524 26.7769 22.191C26.7784 22.8803 27.3232 23.3403 28.0402 23.3406C28.7597 23.3403 29.315 22.8517 29.3159 22.1131C29.3153 21.4311 28.7444 21.0094 28.0224 21.0088V20.9805C28.7553 20.9812 29.3437 21.4138 29.345 22.1131C29.3442 22.8667 28.7741 23.3676 28.0402 23.3688C27.31 23.3676 26.7494 22.8959 26.748 22.191ZM27.2261 22.0773C27.2271 21.641 27.4063 21.1228 28.0159 21.1228C28.5956 21.124 28.8659 21.7083 28.8671 22.1848C28.8659 22.6575 28.7488 23.2257 28.0742 23.2257V23.1982C28.7233 23.1977 28.8361 22.6575 28.8371 22.1848C28.8371 21.7151 28.5708 21.1523 28.0159 21.1514C27.4302 21.152 27.2572 21.6454 27.2557 22.0773C27.2559 22.6548 27.5335 23.1973 28.0742 23.1982V23.2257C27.5075 23.2252 27.2271 22.661 27.2261 22.0773Z" fill="#88765E"/>
<path fill-rule="evenodd" clip-rule="evenodd" d="M31.6308 22.6672L31.6379 22.6608V21.4453C31.6379 21.1792 31.4427 21.1403 31.3403 21.1403H31.266V21.043C31.426 21.043 31.5834 21.0559 31.7434 21.0559C31.8837 21.0559 32.0237 21.043 32.1637 21.043V21.1403H32.1124C31.9694 21.1403 31.8082 21.1662 31.8082 21.5521V23.0273C31.8082 23.1409 31.8119 23.2543 31.8292 23.355H31.6993L29.9408 21.4935V22.8297C29.9408 23.112 29.9991 23.2088 30.2614 23.2088H30.32V23.3062C30.1731 23.3062 30.0265 23.2936 29.8797 23.2936C29.7259 23.2936 29.5688 23.3062 29.4152 23.3062V23.2088H29.4631C29.6991 23.2088 29.7703 23.0564 29.7703 22.7978V21.4317C29.7703 21.2503 29.6138 21.1403 29.4594 21.1403H29.4152V21.043C29.5449 21.043 29.6779 21.0559 29.8079 21.0559C29.9101 21.0559 30.0086 21.043 30.1114 21.043L31.6308 22.6672Z" fill="#88765E"/>
<path fill-rule="evenodd" clip-rule="evenodd" d="M31.8293 23.369L31.688 23.3645L29.9555 21.5308V22.8301C29.9595 23.1124 30.0046 23.1918 30.261 23.1946H30.3345V23.3205H30.3201C30.1722 23.3205 30.0257 23.3075 29.8797 23.3075C29.7267 23.3075 29.5695 23.3205 29.4147 23.3205H29.4008V23.1946H29.4629C29.6879 23.194 29.7528 23.0563 29.7555 22.7981V21.4321C29.7553 21.2593 29.6061 21.1548 29.4594 21.1548H29.4008V21.0293H29.4147C29.5456 21.0293 29.6787 21.0419 29.8077 21.0419C29.909 21.0419 30.0071 21.0293 30.1229 21.0343L31.6229 22.6383V21.4457C31.6217 21.1882 31.4399 21.1569 31.3403 21.1548H31.2503V21.0293H31.266C31.4263 21.0293 31.5839 21.0419 31.7429 21.0419C31.8826 21.0419 32.0219 21.0293 32.1638 21.0293H32.1782V21.1548H32.1123C31.9715 21.1583 31.8263 21.1706 31.8234 21.5525V23.0277C31.8234 23.1412 31.8262 23.2544 31.8427 23.3531L31.8457 23.369H31.8293ZM31.7008 23.3422H31.8128C31.7983 23.2447 31.7949 23.137 31.7949 23.0292V21.5539C31.7949 21.1641 31.9673 21.1287 32.1138 21.1278H32.1508V21.0588C32.0152 21.0598 31.881 21.0716 31.7445 21.0716C31.5891 21.0716 31.4365 21.0598 31.2819 21.0588V21.1278H31.3419C31.4473 21.1287 31.6534 21.173 31.6534 21.4472L31.6498 22.6729L31.6432 22.6791L31.6324 22.6898L30.1131 21.0588C30.012 21.0588 29.9126 21.0716 29.8093 21.0716C29.6834 21.0716 29.5552 21.0598 29.431 21.0588V21.1278H29.461C29.6215 21.1287 29.7864 21.2437 29.7864 21.4335V22.7995C29.7864 23.059 29.7102 23.2247 29.4645 23.2255L29.431 23.2253V23.2941C29.5793 23.2931 29.7312 23.2812 29.8812 23.2812C30.0237 23.2812 30.1652 23.2931 30.3067 23.2941V23.2255H30.2626C29.9947 23.2253 29.9275 23.1138 29.9275 22.8316V21.4591L31.7008 23.3422ZM31.6308 22.6678L31.6417 22.6584L31.6308 22.6678ZM31.6229 22.6618V22.6609L31.6202 22.6584L31.6229 22.6618Z" fill="#88765E"/>
<path fill-rule="evenodd" clip-rule="evenodd" d="M32.7122 22.8429C32.6788 22.9527 32.6375 23.0379 32.6375 23.0955C32.6375 23.193 32.7814 23.2091 32.8933 23.2091H32.9314V23.3064C32.7947 23.2994 32.6546 23.2939 32.5179 23.2939C32.395 23.2939 32.2722 23.2994 32.1498 23.3064V23.2091H32.1692C32.3031 23.2091 32.4162 23.1344 32.4661 22.9981L33.0134 21.5104C33.0575 21.3901 33.1193 21.2281 33.1389 21.1078C33.2486 21.0724 33.3848 21.0079 33.4506 20.9685C33.4602 20.9652 33.467 20.9619 33.4776 20.9619C33.4876 20.9619 33.494 20.9619 33.501 20.9721C33.5113 20.9978 33.5215 21.027 33.5319 21.0529L34.16 22.7489C34.2007 22.862 34.242 22.9819 34.2865 23.0797C34.3275 23.1707 34.3991 23.2091 34.5117 23.2091H34.5327V23.3064C34.3788 23.2994 34.225 23.2939 34.0611 23.2939C33.8941 23.2939 33.7231 23.2994 33.5488 23.3064V23.2091H33.5867C33.6647 23.2091 33.7986 23.1962 33.7986 23.1151C33.7986 23.0732 33.768 22.9856 33.7299 22.8814L33.5968 22.5055H32.8219L32.7122 22.8429ZM33.2114 21.4058H33.2046L32.8863 22.3235H33.5257L33.2114 21.4058Z" fill="#88765E"/>
<path fill-rule="evenodd" clip-rule="evenodd" d="M34.5313 23.3194C34.3774 23.3136 34.2241 23.3064 34.0613 23.3064C33.8947 23.3064 33.7236 23.3136 33.5497 23.3194L33.5346 23.3201V23.1941H33.5865C33.6658 23.1941 33.7834 23.1767 33.7836 23.1142C33.7845 23.0773 33.7536 22.9888 33.7152 22.8853L33.5857 22.5185H32.8321L32.7267 22.8462C32.6923 22.9572 32.652 23.042 32.6524 23.0946C32.6524 23.174 32.7804 23.1941 32.8932 23.1941H32.9454V23.3201L32.9301 23.3194C32.7937 23.3136 32.6539 23.3064 32.518 23.3064C32.3956 23.3064 32.2731 23.3136 32.1499 23.3194L32.1351 23.3201V23.1941H32.1693C32.2966 23.1935 32.4031 23.1243 32.4531 22.9927L32.9991 21.5045C33.0429 21.3844 33.1045 21.2232 33.1345 21.0941C33.2417 21.0587 33.3788 20.9937 33.4453 20.9545C33.4541 20.9513 33.4636 20.9474 33.4776 20.9474C33.4864 20.9467 33.5043 20.9487 33.5148 20.9664C33.5251 20.9919 33.5352 21.0214 33.5463 21.0475L34.1741 22.7433C34.2152 22.8568 34.2559 22.9766 34.3002 23.0733C34.3404 23.1591 34.4022 23.1932 34.5114 23.1941H34.5466V23.3201L34.5313 23.3194ZM33.5639 23.2911C33.7328 23.2852 33.8988 23.279 34.0616 23.279C34.2203 23.279 34.3688 23.2852 34.5178 23.2909L34.5174 23.223H34.5117C34.3961 23.2232 34.3156 23.18 34.2729 23.0844C34.2279 22.9865 34.1874 22.8661 34.1464 22.7529L33.5183 21.0567C33.5082 21.0308 33.4973 21.0018 33.4893 20.9794C33.4865 20.9756 33.4867 20.9756 33.4847 20.9756H33.4779C33.4706 20.9756 33.4668 20.9778 33.4587 20.98C33.3919 21.0196 33.2553 21.0847 33.1545 21.1093C33.1333 21.2322 33.0713 21.3939 33.0273 21.5143L32.4806 23.0022C32.4286 23.1431 32.3094 23.2232 32.1697 23.223H32.1646V23.2909C32.2822 23.2852 32.3996 23.279 32.5183 23.279C32.6505 23.279 32.7856 23.2852 32.9167 23.2909V23.223H32.8936C32.7826 23.2215 32.627 23.2103 32.6226 23.0949C32.6235 23.0308 32.6655 22.9481 32.699 22.8382L32.7127 22.8423L32.699 22.8379L32.8113 22.4914H33.607L33.7441 22.8764C33.7817 22.9807 33.8129 23.0671 33.8129 23.1145C33.808 23.2138 33.6644 23.2211 33.5869 23.223H33.5639V23.2911ZM32.8659 22.3367L33.1938 21.3909H33.2115V21.4052L33.2076 21.4062L33.2115 21.4052V21.3909H33.2218L33.5446 22.3367H32.8659ZM32.9072 22.3082H33.5045L33.2075 21.4399L32.9072 22.3082ZM33.1973 21.4092L33.2041 21.4069L33.1973 21.4092Z" fill="#88765E"/>
<path fill-rule="evenodd" clip-rule="evenodd" d="M35.3926 22.9882C35.3926 23.1186 35.4874 23.157 35.597 23.1705C35.7367 23.1802 35.8905 23.1802 36.048 23.1636C36.1912 23.1473 36.3141 23.07 36.3753 22.9882C36.4296 22.9171 36.4604 22.8262 36.4813 22.7551H36.58C36.5424 22.9399 36.4947 23.1217 36.4538 23.3062C36.154 23.3062 35.8526 23.2937 35.5527 23.2937C35.252 23.2937 34.9518 23.3062 34.6515 23.3062V23.2088H34.6988C34.8219 23.2088 34.9556 23.1928 34.9556 22.9918V21.3255C34.9556 21.1565 34.8219 21.1403 34.6988 21.1403H34.6515V21.043C34.8321 21.043 35.01 21.0559 35.1906 21.0559C35.3651 21.0559 35.5354 21.043 35.71 21.043V21.1403H35.6242C35.4944 21.1403 35.3926 21.1437 35.3926 21.3156V22.9882Z" fill="#88765E"/>
<path fill-rule="evenodd" clip-rule="evenodd" d="M36.4539 23.3206C36.1528 23.3206 35.8521 23.3075 35.5527 23.3075C35.2524 23.3075 34.9519 23.3206 34.6508 23.3206H34.6365V23.1952H34.6988C34.8222 23.1924 34.9394 23.1842 34.9408 22.9922V21.3253C34.9394 21.1675 34.8227 21.1569 34.6988 21.1549H34.6365V21.0293H34.6508C34.8326 21.0293 35.0103 21.0419 35.1903 21.0419C35.3641 21.0419 35.5342 21.0293 35.7099 21.0293H35.7236V21.1549H35.6241C35.4917 21.158 35.4095 21.1524 35.4065 21.316V22.9887C35.4074 23.1099 35.491 23.1423 35.5978 23.1568C35.6579 23.1608 35.7214 23.1628 35.7871 23.1628C35.8706 23.1628 35.9573 23.1592 36.0455 23.1503C36.1846 23.1346 36.3042 23.0583 36.3633 22.981C36.416 22.9116 36.4457 22.8228 36.4664 22.7522L36.4693 22.7415H36.598L36.595 22.7586C36.5563 22.9439 36.5093 23.1248 36.468 23.3096L36.4652 23.3206H36.4539ZM36.4421 23.2932C36.4816 23.1171 36.5262 22.9449 36.5632 22.77H36.4928C36.4718 22.8406 36.4413 22.9276 36.3878 22.9982C36.324 23.0821 36.1976 23.1614 36.0495 23.1789C35.9602 23.1874 35.8715 23.1919 35.7878 23.1919C35.7217 23.1919 35.6578 23.189 35.5957 23.1849C35.4847 23.1733 35.3773 23.128 35.3774 22.9894V21.3167C35.3774 21.1364 35.4975 21.127 35.6249 21.127H35.6952V21.0581C35.5271 21.0591 35.361 21.0712 35.1911 21.0712C35.0147 21.0712 34.8417 21.0591 34.667 21.0581V21.127H34.6995C34.8213 21.127 34.9703 21.1473 34.9703 21.326V22.9929C34.9703 23.2028 34.8219 23.2245 34.6995 23.2245H34.667V23.2932C34.9619 23.2926 35.257 23.2805 35.5534 23.2805C35.8503 23.2805 36.1466 23.2926 36.4421 23.2932Z" fill="#88765E"/>
<path fill-rule="evenodd" clip-rule="evenodd" d="M36.5383 20.9512C36.7443 20.9512 36.8979 21.1014 36.8979 21.2933C36.8979 21.4852 36.7443 21.6338 36.5383 21.6338C36.3328 21.6338 36.1789 21.4852 36.1789 21.2933C36.1789 21.1014 36.3328 20.9512 36.5383 20.9512ZM36.5378 21.5702C36.6991 21.5702 36.8222 21.44 36.8222 21.2932C36.8222 21.1462 36.7005 21.015 36.5378 21.015C36.376 21.015 36.253 21.1462 36.253 21.2932C36.253 21.44 36.376 21.5702 36.5378 21.5702ZM36.3595 21.4733V21.4567C36.4035 21.4507 36.4117 21.4518 36.4117 21.4263V21.1732C36.4117 21.1376 36.408 21.1254 36.3609 21.1273V21.1099H36.545C36.6082 21.1099 36.6664 21.1386 36.6664 21.2007C36.6664 21.2514 36.6313 21.2891 36.5814 21.3037L36.6406 21.382C36.6681 21.4173 36.6995 21.4507 36.7197 21.4625V21.4733H36.6498C36.6162 21.4733 36.5864 21.4063 36.5205 21.3163H36.4807V21.4295C36.4807 21.4518 36.489 21.4507 36.5332 21.4567V21.4733H36.3595ZM36.4807 21.294H36.5231C36.5695 21.294 36.591 21.2608 36.591 21.2069C36.591 21.1526 36.5579 21.1334 36.5208 21.1334H36.4807V21.294Z" fill="#88765E"/>
<path fill-rule="evenodd" clip-rule="evenodd" d="M24.4941 9.4884C24.4918 8.08216 23.5663 6.88284 22.2622 6.40787V12.5687C23.5663 12.0931 24.4918 10.8949 24.4941 9.4884ZM19.7744 12.5674V6.40839C18.4714 6.88483 17.5473 8.08243 17.5439 9.4883C17.5473 10.8938 18.4714 12.0913 19.7744 12.5674ZM21.019 4.28049C17.991 4.2816 15.5378 6.612 15.5373 9.48782C15.5378 12.3633 17.991 14.6933 21.019 14.6938C24.0469 14.6933 26.5006 12.3633 26.5014 9.48782C26.5006 6.612 24.0469 4.2816 21.019 4.28049ZM21.0055 15.1857C17.6921 15.2007 14.965 12.6512 14.965 9.5477C14.965 6.15592 17.6921 3.80993 21.0055 3.81055H22.5582C25.8325 3.80993 28.8208 6.15482 28.8208 9.5477C28.8208 12.6501 25.8325 15.1857 22.5582 15.1857H21.0055Z" fill="#88765E"/>
</svg>