<svg xmlns:xlink="http://www.w3.org/1999/xlink" xmlns="http://www.w3.org/2000/svg" width="43" height="28" viewBox="0 0 43 28" fill="none">
<path d="M11.2977 10.3912C11.6416 10.2766 12.0119 10.2148 12.3911 10.2148C14.0576 10.2148 15.442 11.3964 15.7595 12.966L18.1138 12.481C17.5759 9.80923 15.2128 7.80762 12.3823 7.80762C11.7298 7.80762 11.1125 7.91343 10.5306 8.10742L11.2977 10.3912Z" fill="#88765E"/>
<path d="M42.2486 26.0063C42.2486 26.5821 41.7845 27.052 41.2028 27.052H1.42049C0.844631 27.052 0.374695 26.5879 0.374695 26.0063V2.20791C0.374695 1.63205 0.838806 1.16211 1.42049 1.16211H41.2028C41.7787 1.16211 42.2486 1.62622 42.2486 2.20791V26.0063Z" stroke="#88765E" stroke-width="0.75"/>
<path d="M8.38055 18.2227L9.97655 16.4239C9.26232 15.7891 8.81262 14.872 8.81262 13.8492C8.81262 12.8263 9.26232 11.9005 9.97655 11.2744L8.38055 9.4668C7.17253 10.5337 6.4054 12.0945 6.4054 13.8404C6.4054 15.5863 7.17253 17.147 8.38055 18.2227Z" fill="#88765E"/>
<path d="M15.6198 14.5283C15.3024 16.0979 13.9092 17.2794 12.2515 17.2794C11.8723 17.2794 11.502 17.2177 11.1581 17.1031L10.3909 19.3869C10.9729 19.5808 11.599 19.6867 12.2426 19.6867C15.0643 19.6867 17.4274 17.6762 17.9741 15.0133L15.6198 14.5283Z" fill="#88765E"/>
<path d="M20.0462 16.4946C19.9668 16.3711 19.861 16.1683 19.7993 16.0184C19.429 15.1543 19.4113 14.2549 19.72 13.3908C20.0638 12.4473 20.7252 11.7242 21.5893 11.3539C22.6651 10.8954 23.8554 10.9835 24.8871 11.592C25.5396 11.9711 26.007 12.5443 26.3597 13.3731C26.4037 13.4789 26.4478 13.5936 26.4831 13.6817L20.0462 16.4946ZM22.1889 12.7471C21.4218 13.0733 21.0338 13.7964 21.1131 14.6341L24.3492 13.2409C23.7937 12.5884 23.0707 12.3679 22.1889 12.7471ZM24.7548 15.7804L24.6843 15.7363C24.4903 16.0449 24.1905 16.3006 23.8114 16.4681C23.0883 16.7856 22.4182 16.6974 21.9332 16.283L21.8891 16.3535L21.0691 17.5792C21.2719 17.7202 21.4923 17.8437 21.7216 17.9407C22.6298 18.3198 23.5556 18.3022 24.4727 17.9054C25.134 17.6144 25.6542 17.1824 26.007 16.6268L24.7548 15.7804Z" fill="#88765E"/>
<path d="M28.7318 9.5459V16.3796L29.7987 16.8117L29.1991 18.2225L28.0264 17.7375C27.7618 17.6229 27.5855 17.4465 27.4532 17.2525C27.321 17.0497 27.224 16.7764 27.224 16.406V9.55472H28.7318V9.5459Z" fill="#88765E"/>
<path d="M31.4829 14.6434C31.4829 14.0615 31.7386 13.5412 32.1442 13.1885L31.0509 11.9717C30.3102 12.6242 29.8428 13.5765 29.8428 14.6434C29.8428 15.7104 30.3102 16.6627 31.042 17.3152L32.1266 16.0983C31.7386 15.7368 31.4829 15.2254 31.4829 14.6434Z" fill="#88765E"/>
<path d="M33.4139 16.5734C33.2023 16.5734 32.9907 16.5381 32.7967 16.4764L32.2764 18.0195C32.6291 18.1429 33.0083 18.2046 33.4051 18.2046C35.1334 18.2046 36.5706 16.979 36.9057 15.3565L35.3097 15.0303C35.1334 15.912 34.3486 16.5822 33.4139 16.5734Z" fill="#88765E"/>
<path d="M33.4229 11.0723C33.0261 11.0723 32.647 11.134 32.2943 11.2574L32.8145 12.8093C33.0085 12.7476 33.2113 12.7124 33.4317 12.7124C34.3664 12.7124 35.1512 13.3825 35.3275 14.2643L36.9235 13.938C36.5885 12.3067 35.1512 11.0723 33.4229 11.0723Z" fill="#88765E"/>
</svg>