<svg xmlns:xlink="http://www.w3.org/1999/xlink" xmlns="http://www.w3.org/2000/svg" width="44" height="27" viewBox="0 0 44 27" fill="none">
<rect x="0.978455" y="0.626953" width="41.8739" height="25.6735" rx="1.125" stroke="#88765E" stroke-width="0.75"/>
<path d="M25.3244 17.4046H17.8669V4.4209H25.3244V17.4046Z" fill="#88765E"/>
<path d="M18.3446 10.9116C18.3446 8.27779 19.6176 5.93167 21.5999 4.41973C20.1503 3.31413 18.3208 2.65424 16.3325 2.65424C11.6255 2.65424 7.80988 6.35112 7.80988 10.9116C7.80988 15.4721 11.6255 19.1689 16.3325 19.1689C18.3208 19.1689 20.1503 18.5091 21.5999 17.4034C19.6176 15.8915 18.3446 13.5454 18.3446 10.9116Z" fill="#AD8F6B"/>
<path d="M35.3823 10.9116C35.3823 15.4721 31.5667 19.1689 26.8597 19.1689C24.8714 19.1689 23.0419 18.5091 21.5917 17.4034C23.5746 15.8915 24.8475 13.5454 24.8475 10.9116C24.8475 8.27779 23.5746 5.93167 21.5917 4.41973C23.0419 3.31413 24.8714 2.65424 26.8597 2.65424C31.5667 2.65424 35.3823 6.35112 35.3823 10.9116Z" fill="#AD8F6B"/>
<path d="M14.2231 22.77C14.2231 22.4094 14.4671 22.1131 14.8658 22.1131C15.2467 22.1131 15.5039 22.3966 15.5039 22.77C15.5039 23.1435 15.2467 23.427 14.8658 23.427C14.4671 23.427 14.2231 23.1307 14.2231 22.77ZM15.9381 22.77V21.744H15.4775V21.9932C15.3314 21.8084 15.1097 21.6924 14.8084 21.6924C14.2145 21.6924 13.7488 22.1435 13.7488 22.77C13.7488 23.3971 14.2145 23.8477 14.8084 23.8477C15.1097 23.8477 15.3314 23.7317 15.4775 23.5469V23.7961H15.9381V22.77ZM31.5022 22.77C31.5022 22.4094 31.7462 22.1131 32.1449 22.1131C32.5263 22.1131 32.783 22.3966 32.783 22.77C32.783 23.1435 32.5263 23.427 32.1449 23.427C31.7462 23.427 31.5022 23.1307 31.5022 22.77ZM33.2177 22.77V20.92H32.7566V21.9932C32.6105 21.8084 32.3889 21.6924 32.0876 21.6924C31.4936 21.6924 31.0279 22.1435 31.0279 22.77C31.0279 23.3971 31.4936 23.8477 32.0876 23.8477C32.3889 23.8477 32.6105 23.7317 32.7566 23.5469V23.7961H33.2177V22.77ZM21.6552 22.0919C21.9519 22.0919 22.1426 22.2723 22.1913 22.5897H21.0921C21.1413 22.2934 21.327 22.0919 21.6552 22.0919ZM21.6643 21.6924C21.0434 21.6924 20.6092 22.1303 20.6092 22.77C20.6092 23.4226 21.0612 23.8477 21.6952 23.8477C22.0143 23.8477 22.3065 23.7705 22.5636 23.5602L22.3379 23.2295C22.1604 23.3666 21.9341 23.4442 21.7216 23.4442C21.4249 23.4442 21.1545 23.3111 21.0881 22.9415H22.661C22.6656 22.886 22.6701 22.83 22.6701 22.77C22.6656 22.1303 22.2578 21.6924 21.6643 21.6924ZM27.2257 22.77C27.2257 22.4094 27.4696 22.1131 27.8683 22.1131C28.2493 22.1131 28.5064 22.3966 28.5064 22.77C28.5064 23.1435 28.2493 23.427 27.8683 23.427C27.4696 23.427 27.2257 23.1307 27.2257 22.77ZM28.9406 22.77V21.744H28.4801V21.9932C28.3335 21.8084 28.1123 21.6924 27.811 21.6924C27.217 21.6924 26.7514 22.1435 26.7514 22.77C26.7514 23.3971 27.217 23.8477 27.811 23.8477C28.1123 23.8477 28.3335 23.7317 28.4801 23.5469V23.7961H28.9406V22.77ZM24.6245 22.77C24.6245 23.3926 25.0719 23.8477 25.7547 23.8477C26.0737 23.8477 26.2863 23.7789 26.5165 23.6029L26.2954 23.2423C26.1224 23.3627 25.9408 23.427 25.741 23.427C25.3732 23.4226 25.1029 23.1651 25.1029 22.77C25.1029 22.375 25.3732 22.1175 25.741 22.1131C25.9408 22.1131 26.1224 22.1774 26.2954 22.2978L26.5165 21.9371C26.2863 21.7612 26.0737 21.6924 25.7547 21.6924C25.0719 21.6924 24.6245 22.1475 24.6245 22.77ZM30.5628 21.6924C30.297 21.6924 30.124 21.8128 30.0043 21.9932V21.744H29.5478V23.7961H30.0089V22.6457C30.0089 22.3062 30.1595 22.1175 30.4608 22.1175C30.5542 22.1175 30.6516 22.1303 30.7489 22.1691L30.891 21.7484C30.789 21.7096 30.6561 21.6924 30.5628 21.6924ZM18.2161 21.9072C17.9944 21.7656 17.6891 21.6924 17.3522 21.6924C16.8156 21.6924 16.4702 21.9416 16.4702 22.3494C16.4702 22.684 16.7273 22.8904 17.2011 22.9548L17.4187 22.9848C17.6713 23.0192 17.7905 23.0835 17.7905 23.1995C17.7905 23.3582 17.6221 23.4486 17.3076 23.4486C16.9886 23.4486 16.7583 23.3499 16.6031 23.2339L16.386 23.5813C16.6386 23.7617 16.9576 23.8477 17.303 23.8477C17.9148 23.8477 18.2693 23.5685 18.2693 23.1779C18.2693 22.8172 17.9904 22.6285 17.5293 22.5642L17.3122 22.5337C17.1128 22.5081 16.953 22.4698 16.953 22.3322C16.953 22.1819 17.1037 22.0919 17.3563 22.0919C17.6267 22.0919 17.8884 22.1907 18.0167 22.2678L18.2161 21.9072ZM24.1589 21.6924C23.8931 21.6924 23.7201 21.8128 23.6009 21.9932V21.744H23.1444V23.7961H23.605V22.6457C23.605 22.3062 23.7556 22.1175 24.0569 22.1175C24.1503 22.1175 24.2477 22.1303 24.345 22.1691L24.4871 21.7484C24.3851 21.7096 24.2522 21.6924 24.1589 21.6924ZM20.2283 21.744H19.475V21.1214H19.0094V21.744H18.5798V22.1519H19.0094V23.088C19.0094 23.5641 19.2001 23.8477 19.7449 23.8477C19.9447 23.8477 20.175 23.7877 20.3211 23.6889L20.1882 23.3066C20.0508 23.3838 19.9001 23.4226 19.7804 23.4226C19.5501 23.4226 19.475 23.285 19.475 23.0791V22.1519H20.2283V21.744ZM13.3415 23.7961V22.5081C13.3415 22.0231 13.0224 21.6969 12.5081 21.6924C12.2377 21.688 11.9588 21.7696 11.7635 22.0575C11.6174 21.83 11.3871 21.6924 11.0635 21.6924C10.8373 21.6924 10.6161 21.7568 10.4431 21.9971V21.744H9.98206V23.7961H10.4472V22.6585C10.4472 22.3022 10.6511 22.1131 10.9661 22.1131C11.272 22.1131 11.4267 22.3062 11.4267 22.6541V23.7961H11.8923V22.6585C11.8923 22.3022 12.1049 22.1131 12.4107 22.1131C12.7252 22.1131 12.8759 22.3062 12.8759 22.6541V23.7961H13.3415Z" fill="#AD8F6B"/>
</svg>