<svg xmlns:xlink="http://www.w3.org/1999/xlink" xmlns="http://www.w3.org/2000/svg" width="43" height="28" viewBox="0 0 43 28" fill="none">
<path d="M42.4561 26.0063C42.4561 26.5821 41.992 27.052 41.4103 27.052H1.62801C1.05215 27.052 0.582214 26.5879 0.582214 26.0063V2.20791C0.582214 1.63205 1.04633 1.16211 1.62801 1.16211H41.4103C41.9862 1.16211 42.4561 1.62622 42.4561 2.20791V26.0063Z" stroke="#88765E" stroke-width="0.75"/>
<path d="M17.5817 16.0527C17.4108 16.9902 16.7321 21.3604 16.5319 22.5957C16.5173 22.6836 16.4831 22.7178 16.3854 22.7178H12.7429C12.3718 22.7178 12.1032 22.3955 12.152 22.0391L15.0134 3.87989C15.0866 3.41114 15.5065 3.0547 15.9899 3.0547C23.4265 3.0547 24.0514 2.87403 25.9509 3.61134C28.8854 4.74903 29.154 7.49317 28.0993 10.4619C27.0495 13.5186 24.5593 14.832 21.2585 14.8711C19.1393 14.9053 17.8649 14.5293 17.5817 16.0527ZM29.5788 9.02638C29.4909 8.9629 29.4567 8.93849 29.4323 9.08985C29.3347 9.64649 29.1833 10.1885 29.0026 10.7305C27.0544 16.2871 21.654 15.8037 19.0173 15.8037C18.7194 15.8037 18.5241 15.9649 18.485 16.2627C17.3815 23.1182 17.1618 24.5488 17.1618 24.5488C17.113 24.8955 17.3327 25.1787 17.6794 25.1787H20.78C21.1999 25.1787 21.5466 24.8711 21.6296 24.4512C21.6638 24.1875 21.5759 24.749 22.3327 19.9932C22.5573 18.919 23.0309 19.0313 23.7634 19.0313C27.2302 19.0313 29.9352 17.625 30.7409 13.5479C31.0583 11.8486 30.9655 10.0615 29.5788 9.02638Z" fill="#88765E"/>
</svg>