<svg xmlns:xlink="http://www.w3.org/1999/xlink" xmlns="http://www.w3.org/2000/svg" width="44" height="27" viewBox="0 0 44 27" fill="none">
<path d="M18.4063 18.1111C18.4063 18.1934 18.341 18.2602 18.2603 18.2602C18.1796 18.2602 18.1143 18.1934 18.1143 18.1111V10.4144C18.1143 8.91588 19.304 7.70114 20.7717 7.70114H20.7719L22.9976 7.7045C24.4611 7.70748 25.6461 8.9197 25.6461 10.414V12.0523C25.6461 13.5508 24.4563 14.7657 22.9887 14.7657H19.8436C19.7629 14.7657 19.6976 14.6989 19.6976 14.6166C19.6976 14.5342 19.7629 14.4674 19.8436 14.4674H22.9887C24.295 14.4674 25.354 13.3861 25.354 12.0523V10.414C25.354 9.08417 24.2995 8.00537 22.9971 8.00272L20.7717 7.99936C19.4653 7.99936 18.4063 9.08059 18.4063 10.4144V18.1111Z" fill="#7D6E5B"/>
<path d="M28.2642 14.6515C28.2642 14.7339 28.1988 14.8006 28.1182 14.8006C28.0375 14.8006 27.9721 14.7339 27.9721 14.6515V8.90202C27.9721 8.40316 27.5761 7.99879 27.0876 7.99879H26.1221C26.0415 7.99879 25.9761 7.93203 25.9761 7.84968C25.9761 7.76733 26.0415 7.70057 26.1221 7.70057H27.0876C27.7375 7.70057 28.2642 8.23848 28.2642 8.90202V14.6515Z" fill="#7D6E5B"/>
<path d="M35.4278 10.5809C35.1947 10.819 34.8169 10.819 34.5838 10.5809L32.3443 8.29437C31.9687 7.91077 31.4591 7.69531 30.9278 7.69531H29.9704C29.8897 7.69531 29.8243 7.76207 29.8243 7.84442C29.8243 7.92677 29.8897 7.99353 29.9704 7.99353H30.9278C31.3817 7.99353 31.8169 8.17758 32.1377 8.50523L34.3773 10.7918C34.7244 11.1463 35.2872 11.1463 35.6343 10.7918L37.8657 8.51359C38.1865 8.18599 38.6218 8.00194 39.0756 8.00194H39.854C39.9347 8.00194 40 7.93519 40 7.85283C40 7.77048 39.9347 7.70372 39.854 7.70372H39.0756C38.5443 7.70372 38.0348 7.91918 37.6592 8.30271L35.4278 10.5809Z" fill="#7D6E5B"/>
<path d="M29.9704 14.7505C29.8897 14.7505 29.8243 14.6838 29.8243 14.6014C29.8243 14.5191 29.8897 14.4523 29.9704 14.4523H30.9278C31.3817 14.4523 31.8169 14.2683 32.1377 13.9406L34.3773 11.654C34.7244 11.2996 35.2872 11.2996 35.6343 11.654L37.8657 13.9322C38.1865 14.2598 38.6218 14.4439 39.0756 14.4439H39.854C39.9347 14.4439 40 14.5107 40 14.593C40 14.6754 39.9347 14.7421 39.854 14.7421H39.0756C38.5443 14.7421 38.0348 14.5267 37.6592 14.1431L35.4278 11.8649C35.1947 11.6269 34.8169 11.6269 34.5838 11.8649L32.3443 14.1515C31.9687 14.5351 31.4591 14.7505 30.9278 14.7505H29.9704Z" fill="#7D6E5B"/>
<path d="M27.911 6.95879L27.4732 6.5117C27.3646 6.40083 27.3646 6.22096 27.4732 6.11003L27.9108 5.66329C28.0196 5.55218 28.196 5.55218 28.3047 5.66329L28.7423 6.11003C28.851 6.22096 28.851 6.40083 28.7423 6.5117L28.3045 6.95879C28.1959 7.06973 28.0197 7.06973 27.911 6.95879Z" fill="#7D6E5B"/>
<path d="M12.5519 16.0611C12.0713 16.0611 11.6194 15.8701 11.2796 15.5233L9.44248 13.6476C9.31356 13.5155 9.08871 13.5159 8.95978 13.6476L7.11597 15.5301C6.77614 15.8769 6.32421 16.0679 5.84364 16.0679H5.48163L7.80831 18.4436C8.53498 19.1855 9.71313 19.1855 10.4398 18.4436L12.7732 16.0611H12.5519Z" fill="#7D6E5B"/>
<path d="M5.84364 9.42754C6.32421 9.42754 6.77615 9.61864 7.11592 9.96544L8.95973 11.8483C9.09251 11.9839 9.30935 11.9845 9.44248 11.8481L11.2796 9.97227C11.6194 9.62547 12.0713 9.43442 12.5519 9.43442H12.7732L10.4398 7.052C9.71313 6.31005 8.53498 6.31005 7.80831 7.052L5.48169 9.42754H5.84364Z" fill="#7D6E5B"/>
<path d="M14.7032 11.4039L13.2931 9.96422C13.2621 9.97692 13.2285 9.98486 13.193 9.98486H12.5519C12.2205 9.98486 11.896 10.1221 11.6618 10.3614L9.8247 12.2371C9.65286 12.4126 9.42698 12.5005 9.20127 12.5005C8.97539 12.5005 8.74968 12.4126 8.57777 12.2373L6.73379 10.3545C6.49956 10.1153 6.17516 9.97804 5.84369 9.97804H5.05537C5.02179 9.97804 4.99033 9.96992 4.96067 9.95851L3.545 11.4039C2.81833 12.1458 2.81833 13.3488 3.545 14.0908L4.96061 15.5361C4.99028 15.5247 5.02179 15.5166 5.05537 15.5166H5.84369C6.17516 15.5166 6.49956 15.3794 6.73379 15.1401L8.5776 13.2575C8.91086 12.9175 9.49179 12.9174 9.8247 13.2577L11.6618 15.1332C11.896 15.3726 12.2205 15.5098 12.5519 15.5098H13.193C13.2285 15.5098 13.2621 15.5177 13.2932 15.5304L14.7032 14.0908C15.4299 13.3488 15.4299 12.1458 14.7032 11.4039Z" fill="#7D6E5B"/>
<path d="M20.1742 17.4561C20.0702 17.4561 19.949 17.4817 19.8292 17.5098V17.9789C19.9123 18.0099 20.007 18.0247 20.0979 18.0247C20.3282 18.0247 20.4375 17.9454 20.4375 17.7383C20.4375 17.5434 20.3479 17.4561 20.1742 17.4561ZM19.7515 18.3271V17.3996H19.8147L19.8213 17.44C19.928 17.4144 20.0754 17.3809 20.1807 17.3809C20.2664 17.3809 20.3479 17.3942 20.4164 17.4507C20.4954 17.5166 20.5204 17.6227 20.5204 17.7383C20.5204 17.8594 20.4809 17.9736 20.373 18.0368C20.2979 18.0798 20.1965 18.0972 20.1057 18.0972C20.0122 18.0972 19.9227 18.0823 19.8292 18.0542V18.3271H19.7515Z" fill="#7D6E5B"/>
<path d="M21.0988 17.4538C20.8684 17.4538 20.7657 17.5278 20.7657 17.7347C20.7657 17.935 20.8671 18.0251 21.0988 18.0251C21.3278 18.0251 21.4305 17.9525 21.4305 17.7454C21.4305 17.5452 21.3292 17.4538 21.0988 17.4538ZM21.3949 18.0251C21.3186 18.0815 21.216 18.0977 21.0988 18.0977C20.979 18.0977 20.8763 18.0801 20.8012 18.0251C20.717 17.9647 20.6827 17.8651 20.6827 17.7402C20.6827 17.6165 20.717 17.5158 20.8012 17.4538C20.8763 17.3987 20.979 17.3813 21.0988 17.3813C21.2173 17.3813 21.3186 17.3987 21.3949 17.4538C21.4806 17.5158 21.5134 17.6165 21.5134 17.7387C21.5134 17.8638 21.4792 17.9647 21.3949 18.0251" fill="#7D6E5B"/>
<path d="M22.4856 18.0791L22.2288 17.516H22.2235L21.9707 18.0791H21.901L21.6272 17.4003H21.7127L21.9405 17.9701H21.9458L22.1933 17.4003H22.2643L22.5184 17.9701H22.5238L22.7462 17.4003H22.8291L22.5553 18.0791H22.4856Z" fill="#7D6E5B"/>
<path d="M23.3257 17.4524C23.1125 17.4524 23.04 17.5492 23.0268 17.689H23.6245C23.618 17.5345 23.5403 17.4524 23.3257 17.4524ZM23.3231 18.0977C23.1953 18.0977 23.1125 18.0788 23.0466 18.0222C22.9689 17.9537 22.9426 17.8544 22.9426 17.7401C22.9426 17.6312 22.9782 17.5157 23.0664 17.4498C23.1401 17.3973 23.2309 17.3812 23.3257 17.3812C23.4113 17.3812 23.51 17.3906 23.5916 17.4471C23.6877 17.5129 23.7062 17.6286 23.7062 17.7602H23.0243C23.0268 17.9 23.0717 18.0238 23.3296 18.0238C23.4521 18.0238 23.5666 18.0035 23.6733 17.9847V18.056C23.5626 18.0762 23.4402 18.0977 23.3231 18.0977Z" fill="#7D6E5B"/>
<path d="M23.9291 18.0791V17.4003H23.9923L23.9989 17.4407C24.1397 17.4043 24.2056 17.3815 24.3293 17.3815H24.3386V17.4568H24.3201C24.2161 17.4568 24.1529 17.4714 24.0068 17.5105V18.0791H23.9291Z" fill="#7D6E5B"/>
<path d="M24.7897 17.4524C24.5764 17.4524 24.504 17.5492 24.4908 17.689H25.0885C25.082 17.5345 25.0043 17.4524 24.7897 17.4524ZM24.7871 18.0977C24.6593 18.0977 24.5764 18.0788 24.5106 18.0222C24.4329 17.9537 24.4066 17.8544 24.4066 17.7401C24.4066 17.6312 24.4422 17.5157 24.5304 17.4498C24.6041 17.3973 24.6949 17.3812 24.7897 17.3812C24.8753 17.3812 24.9741 17.3906 25.0556 17.4471C25.1517 17.5129 25.1702 17.6286 25.1702 17.7602H24.4882C24.4908 17.9 24.5357 18.0238 24.7936 18.0238C24.9161 18.0238 25.0306 18.0035 25.1373 17.9847V18.056C25.0267 18.0762 24.9042 18.0977 24.7871 18.0977Z" fill="#7D6E5B"/>
<path d="M26.0211 17.4996C25.9382 17.4686 25.8434 17.4538 25.7526 17.4538C25.5222 17.4538 25.4129 17.5332 25.4129 17.7402C25.4129 17.9363 25.5024 18.0223 25.6762 18.0223C25.7802 18.0223 25.9014 17.9968 26.0211 17.9699V17.4996ZM26.0357 18.0789L26.029 18.0385C25.9225 18.064 25.775 18.0977 25.6697 18.0977C25.5841 18.0977 25.5024 18.0856 25.434 18.0277C25.355 17.9618 25.33 17.8557 25.33 17.7402C25.33 17.6192 25.3695 17.5048 25.4774 17.443C25.5525 17.3987 25.6538 17.3812 25.746 17.3812C25.8382 17.3812 25.9276 17.3974 26.0211 17.4242V17.1137H26.0989V18.0789H26.0357Z" fill="#7D6E5B"/>
<path d="M27.2377 17.4566C27.1337 17.4566 27.0125 17.4821 26.8928 17.5103V17.978C26.9771 18.0103 27.0705 18.0251 27.1614 18.0251C27.3917 18.0251 27.501 17.9458 27.501 17.7387C27.501 17.5439 27.4115 17.4566 27.2377 17.4566ZM27.4365 18.0372C27.3614 18.0802 27.2601 18.0977 27.1692 18.0977C27.0705 18.0977 26.9718 18.0802 26.8717 18.0465L26.8678 18.0789H26.8151V17.1138H26.8928V17.4376C26.9994 17.4136 27.1429 17.3813 27.2442 17.3813C27.3299 17.3813 27.4115 17.3946 27.4799 17.4511C27.559 17.5171 27.584 17.6232 27.584 17.7387C27.584 17.8598 27.5444 17.9741 27.4365 18.0372Z" fill="#7D6E5B"/>
<path d="M27.687 18.3389V18.2651C27.7252 18.2691 27.7608 18.2719 27.7858 18.2719C27.8819 18.2719 27.9398 18.2435 27.9938 18.132L28.0188 18.0782L27.6713 17.3994H27.7608L28.0583 17.9854H28.0636L28.3466 17.3994H28.4348L28.0609 18.1616C27.9925 18.3001 27.9187 18.3457 27.7831 18.3457C27.7528 18.3457 27.7199 18.3431 27.687 18.3389Z" fill="#7D6E5B"/>
<path d="M29.5054 17.692H29.2474V17.9299H29.5067C29.6844 17.9299 29.7515 17.9096 29.7515 17.8103C29.7515 17.704 29.6594 17.692 29.5054 17.692ZM29.458 17.3061H29.2474V17.5481H29.4593C29.6344 17.5481 29.7041 17.5266 29.7041 17.4258C29.7041 17.3183 29.6159 17.3061 29.458 17.3061V17.3061ZM29.8582 18.0146C29.7634 18.0765 29.6489 18.0791 29.4395 18.0791H29.0459V17.1583H29.4303C29.6107 17.1583 29.7212 17.161 29.8134 17.2175C29.8793 17.2579 29.9056 17.3197 29.9056 17.4003C29.9056 17.497 29.8661 17.5616 29.7634 17.6046V17.6098C29.8793 17.6369 29.9543 17.6974 29.9543 17.8278C29.9543 17.9164 29.9227 17.9743 29.8582 18.0146Z" fill="#7D6E5B"/>
<path d="M30.7419 17.7939C30.6642 17.7871 30.5853 17.7831 30.5023 17.7831C30.3667 17.7831 30.3193 17.8114 30.3193 17.8745C30.3193 17.9337 30.3588 17.966 30.4628 17.966C30.5497 17.966 30.6537 17.9458 30.7419 17.9255V17.7939ZM30.7814 18.0789L30.7762 18.0385C30.6629 18.0668 30.5313 18.0977 30.4154 18.0977C30.3443 18.0977 30.2679 18.0882 30.2139 18.0478C30.164 18.0116 30.1403 17.9524 30.1403 17.8838C30.1403 17.8073 30.1732 17.7361 30.2521 17.6998C30.322 17.6662 30.4154 17.6635 30.501 17.6635C30.5708 17.6635 30.6642 17.6675 30.7419 17.6729V17.6607C30.7419 17.5546 30.6734 17.5197 30.4865 17.5197C30.4141 17.5197 30.3259 17.5236 30.2417 17.5317V17.3946C30.3351 17.3866 30.4404 17.3812 30.5273 17.3812C30.6432 17.3812 30.763 17.3906 30.8367 17.4443C30.913 17.4996 30.9275 17.5762 30.9275 17.6769V18.0789H30.7814Z" fill="#7D6E5B"/>
<path d="M31.7955 18.0791V17.704C31.7955 17.5804 31.7337 17.5361 31.623 17.5361C31.5415 17.5361 31.4388 17.5575 31.3519 17.5791V18.0791H31.1663V17.4003H31.3177L31.3242 17.4432C31.4414 17.4124 31.5717 17.3815 31.6797 17.3815C31.7613 17.3815 31.8442 17.3935 31.9074 17.4513C31.96 17.4998 31.9799 17.5668 31.9799 17.6637V18.0791H31.7955Z" fill="#7D6E5B"/>
<path d="M32.5043 18.0977C32.4188 18.0977 32.3252 18.0856 32.2568 18.0264C32.1752 17.9592 32.1515 17.8531 32.1515 17.7387C32.1515 17.6312 32.1857 17.5142 32.2871 17.4485C32.37 17.3932 32.4727 17.3812 32.5794 17.3812C32.6557 17.3812 32.7308 17.3866 32.8137 17.3946V17.5398C32.7465 17.5332 32.6662 17.5278 32.6017 17.5278C32.4253 17.5278 32.3423 17.5842 32.3423 17.7401C32.3423 17.8867 32.4043 17.9498 32.549 17.9498C32.6333 17.9498 32.7321 17.9337 32.8282 17.9149V18.0547C32.7242 18.0762 32.611 18.0977 32.5043 18.0977Z" fill="#7D6E5B"/>
<path d="M33.3765 17.5236C33.2 17.5236 33.1223 17.5802 33.1223 17.7347C33.1223 17.8893 33.1987 17.9553 33.3765 17.9553C33.5515 17.9553 33.6279 17.9 33.6279 17.7454C33.6279 17.5909 33.5529 17.5236 33.3765 17.5236ZM33.695 18.0264C33.6134 18.0828 33.5068 18.0977 33.3765 18.0977C33.2435 18.0977 33.1369 18.0814 33.0566 18.0264C32.9644 17.9646 32.9315 17.8624 32.9315 17.7401C32.9315 17.6177 32.9644 17.5142 33.0566 17.4524C33.1369 17.3973 33.2435 17.3812 33.3765 17.3812C33.5081 17.3812 33.6134 17.3973 33.695 17.4524C33.7872 17.5142 33.8188 17.6177 33.8188 17.7387C33.8188 17.8611 33.7859 17.9646 33.695 18.0264" fill="#7D6E5B"/>
<path d="M34.8905 18.0977C34.7787 18.0977 34.6575 18.0789 34.5666 18.0022C34.4587 17.9107 34.4258 17.7697 34.4258 17.6178C34.4258 17.4821 34.468 17.3208 34.6087 17.2266C34.718 17.1541 34.8536 17.1393 34.9906 17.1393C35.0907 17.1393 35.1933 17.146 35.3053 17.1554V17.3208C35.2091 17.3127 35.0907 17.3059 34.9985 17.3059C34.7418 17.3059 34.6325 17.4054 34.6325 17.6178C34.6325 17.8343 34.7339 17.931 34.9235 17.931C35.0471 17.931 35.1854 17.9054 35.325 17.8759V18.0398C35.1854 18.0681 35.0393 18.0977 34.8905 18.0977Z" fill="#7D6E5B"/>
<path d="M35.8704 17.5022C35.7163 17.5022 35.6571 17.5587 35.6452 17.6622H36.0929C36.0876 17.552 36.0244 17.5022 35.8704 17.5022ZM35.8427 18.0977C35.7335 18.0977 35.6347 18.0842 35.561 18.0223C35.4821 17.9553 35.4543 17.8544 35.4543 17.7387C35.4543 17.6352 35.4873 17.5197 35.5795 17.4524C35.661 17.3932 35.7651 17.3812 35.8704 17.3812C35.9652 17.3812 36.0771 17.3919 36.1587 17.4498C36.2653 17.5264 36.2746 17.6447 36.2759 17.7845H35.6439C35.6479 17.888 35.7019 17.9553 35.8888 17.9553C36.0047 17.9553 36.1337 17.9378 36.2429 17.9203V18.0533C36.1152 18.0749 35.9757 18.0977 35.8427 18.0977Z" fill="#7D6E5B"/>
<path d="M37.1018 18.0791V17.704C37.1018 17.5804 37.04 17.5361 36.9293 17.5361C36.8477 17.5361 36.7451 17.5575 36.6581 17.5791V18.0791H36.4725V17.4003H36.6239L36.6305 17.4432C36.7477 17.4124 36.878 17.3815 36.986 17.3815C37.0676 17.3815 37.1505 17.3935 37.2137 17.4513C37.2664 17.4998 37.2861 17.5668 37.2861 17.6637V18.0791H37.1018Z" fill="#7D6E5B"/>
<path d="M37.8145 18.0977C37.7249 18.0977 37.6433 18.0721 37.5985 18.0008C37.5657 17.9524 37.5498 17.8867 37.5498 17.7952V17.5411H37.4155V17.4001H37.5498L37.5696 17.1944H37.7342V17.4001H37.9961V17.5411H37.7342V17.759C37.7342 17.8114 37.7381 17.8557 37.7525 17.888C37.7723 17.9337 37.8157 17.9511 37.8737 17.9511C37.9171 17.9511 37.9698 17.9444 38.0066 17.9378V18.0734C37.9461 18.0856 37.8763 18.0977 37.8145 18.0977Z" fill="#7D6E5B"/>
<path d="M38.1772 18.0791V17.4003H38.3286L38.3352 17.4432C38.4577 17.4083 38.5484 17.3815 38.6643 17.3815C38.6696 17.3815 38.6775 17.3815 38.688 17.3827V17.5441C38.6669 17.5428 38.6419 17.5428 38.6235 17.5428C38.5326 17.5428 38.4642 17.5535 38.3628 17.5778V18.0791H38.1772Z" fill="#7D6E5B"/>
<path d="M39.3629 17.7939C39.2852 17.7871 39.2063 17.7831 39.1232 17.7831C38.9877 17.7831 38.9402 17.8114 38.9402 17.8745C38.9402 17.9337 38.9798 17.966 39.0837 17.966C39.1707 17.966 39.2747 17.9458 39.3629 17.9255V17.7939ZM39.4024 18.0789L39.3971 18.0385C39.2839 18.0668 39.1522 18.0977 39.0364 18.0977C38.9653 18.0977 38.8889 18.0882 38.8349 18.0478C38.785 18.0116 38.7612 17.9524 38.7612 17.8838C38.7612 17.8073 38.7941 17.7361 38.8731 17.6998C38.9429 17.6662 39.0364 17.6635 39.122 17.6635C39.1917 17.6635 39.2852 17.6675 39.3629 17.6729V17.6607C39.3629 17.5546 39.2944 17.5197 39.1075 17.5197C39.035 17.5197 38.9468 17.5236 38.8626 17.5317V17.3946C38.9561 17.3866 39.0614 17.3812 39.1483 17.3812C39.2641 17.3812 39.384 17.3906 39.4577 17.4443C39.534 17.4996 39.5485 17.5762 39.5485 17.6769V18.0789H39.4024Z" fill="#7D6E5B"/>
<path d="M39.7872 17.114H39.9728V18.0791H39.7872V17.114Z" fill="#7D6E5B"/>
<rect x="0.375" y="0.375" width="42.5627" height="25.5773" rx="1.125" stroke="#88765E" stroke-width="0.75"/>
</svg>