<svg xmlns:xlink="http://www.w3.org/1999/xlink" xmlns="http://www.w3.org/2000/svg" width="43" height="27" viewBox="0 0 43 27" fill="none">
<rect x="0.374695" y="0.625" width="41.8739" height="25.6768" rx="1.125" stroke="#88765E" stroke-width="0.75"/>
<path d="M19.1496 18.0333H16.5258L18.1669 8.9209H20.7906L19.1496 18.0333Z" fill="#88765E"/>
<path d="M28.6612 9.14381C28.1437 8.95943 27.3228 8.75586 26.3079 8.75586C23.7168 8.75586 21.8921 9.99663 21.8809 11.7706C21.8594 13.0794 23.1873 13.8063 24.1805 14.2427C25.1956 14.6886 25.5407 14.9797 25.5407 15.3772C25.5303 15.9876 24.7204 16.269 23.965 16.269C22.9174 16.269 22.3561 16.124 21.5031 15.7843L21.1576 15.6387L20.7905 17.6843C21.4059 17.936 22.5396 18.1595 23.7168 18.1692C26.4699 18.1692 28.2622 16.9477 28.2835 15.0573C28.2939 14.0199 27.5927 13.2251 26.081 12.5756C25.1633 12.1586 24.6013 11.8775 24.6013 11.4509C24.6121 11.0631 25.0767 10.6659 26.1126 10.6659C26.9656 10.6464 27.5923 10.8305 28.0671 11.0148L28.3044 11.1115L28.6612 9.14381Z" fill="#88765E"/>
<path d="M32.1485 14.8051C32.3646 14.2816 33.1961 12.2555 33.1961 12.2555C33.1852 12.275 33.4117 11.7224 33.5413 11.3831L33.7246 12.1683C33.7246 12.1683 34.2215 14.3495 34.3294 14.8051C33.9193 14.8051 32.6668 14.8051 32.1485 14.8051ZM35.3873 8.9209H33.3578C32.7319 8.9209 32.2564 9.08556 31.9864 9.67696L28.089 18.0332H30.8421C30.8421 18.0332 31.2954 16.9085 31.3928 16.6663C31.6948 16.6663 34.373 16.6663 34.7616 16.6663C34.8369 16.9862 35.0747 18.0332 35.0747 18.0332H37.5041L35.3873 8.9209Z" fill="#88765E"/>
<path d="M14.3343 8.9209L11.7647 15.1347L11.4839 13.8745C11.0088 12.4203 9.51894 10.8404 7.85629 10.0549L10.2099 18.0236H12.9846L17.1088 8.9209H14.3343Z" fill="#88765E"/>
<path d="M9.37859 8.9209H5.15711L5.11392 9.10502C8.40694 9.86121 10.5878 11.684 11.4839 13.8748L10.5662 9.68688C10.4151 9.10489 9.95079 8.9401 9.37859 8.9209Z" fill="#88765E"/>
</svg>