<svg width="52" height="39" viewBox="0 0 52 39" fill="none" xmlns="http://www.w3.org/2000/svg">
<path opacity="0.1" d="M22.96 0.799998L11.8 18.8C14.56 18.92 16.78 19.94 18.46 21.86C20.14 23.78 20.98 26.06 20.98 28.7C20.98 31.58 19.96 33.98 17.92 35.9C16 37.7 13.6 38.6 10.72 38.6C7.96 38.6 5.56 37.76 3.52 36.08C1.48 34.28 0.46 31.76 0.46 28.52C0.46 25.64 1.48 22.46 3.52 18.98C5.68 15.38 9.1 10.16 13.78 3.32L15.4 0.799998H22.96ZM51.94 0.799998L40.78 18.8C43.42 18.92 45.58 19.94 47.26 21.86C48.94 23.78 49.78 26.06 49.78 28.7C49.78 31.58 48.82 33.98 46.9 35.9C44.98 37.7 42.58 38.6 39.7 38.6C36.82 38.6 34.36 37.76 32.32 36.08C30.28 34.28 29.26 31.76 29.26 28.52C29.26 25.64 30.28 22.46 32.32 18.98C34.48 15.38 37.9 10.16 42.58 3.32L44.38 0.799998H51.94Z" fill="black"/>
</svg>
