<svg width="52" height="39" viewBox="0 0 52 39" fill="none" xmlns="http://www.w3.org/2000/svg">
<path opacity="0.1" d="M29.1101 0.799998L40.2701 18.8C37.5101 18.92 35.2901 19.94 33.6101 21.86C31.9301 23.78 31.0901 26.06 31.0901 28.7C31.0901 31.58 32.1101 33.98 34.1501 35.9C36.0701 37.7 38.4701 38.6 41.3501 38.6C44.1101 38.6 46.5101 37.76 48.5501 36.08C50.5901 34.28 51.6101 31.76 51.6101 28.52C51.6101 25.64 50.5901 22.46 48.5501 18.98C46.3901 15.38 42.9701 10.16 38.2901 3.32L36.6701 0.799998H29.1101ZM0.130064 0.799998L11.2901 18.8C8.65007 18.92 6.49007 19.94 4.81007 21.86C3.13007 23.78 2.29006 26.06 2.29006 28.7C2.29006 31.58 3.25006 33.98 5.17006 35.9C7.09007 37.7 9.49007 38.6 12.3701 38.6C15.2501 38.6 17.7101 37.76 19.7501 36.08C21.7901 34.28 22.8101 31.76 22.8101 28.52C22.8101 25.64 21.7901 22.46 19.7501 18.98C17.5901 15.38 14.1701 10.16 9.49007 3.32L7.69007 0.799998H0.130064Z" fill="black"/>
</svg>
