<svg xmlns:xlink="http://www.w3.org/1999/xlink" xmlns="http://www.w3.org/2000/svg" width="32" height="32" viewBox="0 0 39 39" fill="none">
<path fill-rule="evenodd" clip-rule="evenodd" d="M0 19.5179C0 9.01619 8.51619 0.5 19.0179 0.5C29.5195 0.5 38.0357 9.01619 38.0357 19.5179C38.0357 30.0195 29.5195 38.5357 19.0179 38.5357C8.51619 38.5357 0 30.0195 0 19.5179ZM29.3649 26.671C29.6347 25.9763 29.8196 25.1826 29.8724 24.0201C29.9258 22.8556 29.9383 22.4836 29.9383 19.5179C29.9383 16.5521 29.9258 16.1801 29.8727 15.0156C29.8196 13.8531 29.635 13.0594 29.3649 12.3647C29.0909 11.636 28.6609 10.9761 28.1054 10.4306C27.5599 9.87486 26.8997 9.4448 26.171 9.17057C25.4763 8.90098 24.6826 8.71642 23.5201 8.66361C22.3556 8.61022 21.9836 8.59745 19.0179 8.59745C16.0521 8.59745 15.6801 8.61022 14.5156 8.66332C13.3531 8.71642 12.5594 8.90098 11.8647 9.17086C11.136 9.44509 10.4758 9.87486 9.93057 10.4306C9.37486 10.9758 8.9448 11.636 8.67057 12.3647C8.40069 13.0594 8.21613 13.8531 8.16332 15.0156C8.10993 16.1801 8.09745 16.5521 8.09745 19.5179C8.09745 22.4836 8.10993 22.8556 8.16361 24.0204C8.21642 25.1826 8.40127 25.9766 8.67115 26.671C8.94538 27.3997 9.37515 28.0599 9.93057 28.6051C10.4761 29.1609 11.136 29.5906 11.865 29.8649C12.5594 30.1347 13.3534 30.3193 14.5156 30.3724C15.6804 30.4255 16.0521 30.4383 19.0181 30.4383C21.9839 30.4383 22.3559 30.4255 23.5204 30.3724C24.6826 30.3193 25.4766 30.1347 26.171 29.8649C27.6379 29.2975 28.7975 28.1379 29.3649 26.671ZM27.5309 13.0776C27.3559 12.6035 27.0768 12.1743 26.714 11.822C26.3618 11.4593 25.9329 11.1801 25.4584 11.0051C25.0736 10.8557 24.4956 10.6778 23.4308 10.6293C22.2791 10.5768 21.9338 10.5655 19.0179 10.5655C16.1018 10.5655 15.7565 10.5765 14.605 10.629C13.5403 10.6778 12.962 10.8557 12.5775 11.0051C12.103 11.1801 11.6738 11.4593 11.3218 11.822C10.9591 12.1743 10.6799 12.6032 10.5046 13.0776C10.3552 13.4624 10.1773 14.0408 10.1289 15.1055C10.0763 16.257 10.065 16.6023 10.065 19.5184C10.065 22.4342 10.0763 22.7796 10.1289 23.9313C10.1773 24.996 10.3552 25.5741 10.5046 25.9589C10.6799 26.4333 10.9588 26.8622 11.3215 27.2145C11.6738 27.5773 12.1027 27.8564 12.5772 28.0314C12.962 28.1811 13.5403 28.359 14.605 28.4075C15.7565 28.46 16.1015 28.471 19.0176 28.471C21.934 28.471 22.2794 28.46 23.4306 28.4075C24.4953 28.359 25.0736 28.1811 25.4584 28.0314C26.4108 27.664 27.1636 26.9113 27.5309 25.9589C27.6804 25.5741 27.8583 24.996 27.907 23.9313C27.9595 22.7796 27.9706 22.4342 27.9706 19.5184C27.9706 16.6023 27.9595 16.257 27.907 15.1055C27.8586 14.0408 27.6807 13.4624 27.5309 13.0776ZM19.0179 25.1257C15.9207 25.1257 13.41 22.6153 13.41 19.5181C13.41 16.4209 15.9207 13.9105 19.0179 13.9105C22.1148 13.9105 24.6256 16.4209 24.6256 19.5181C24.6256 22.6153 22.1148 25.1257 19.0179 25.1257ZM24.8473 14.9993C24.1235 14.9993 23.5368 14.4125 23.5368 13.6888C23.5368 12.9651 24.1235 12.3783 24.8473 12.3783C25.571 12.3783 26.1578 12.9651 26.1578 13.6888C26.1575 14.4125 25.571 14.9993 24.8473 14.9993ZM22.658 19.5181C22.658 21.5285 21.0283 23.1582 19.0179 23.1582C17.0074 23.1582 15.3777 21.5285 15.3777 19.5181C15.3777 17.5076 17.0074 15.8779 19.0179 15.8779C21.0283 15.8779 22.658 17.5076 22.658 19.5181Z" fill="#DD052A"/>
</svg>