<svg class="icon logo-datasoul" width="60" height="9.7" xmlns="http://www.w3.org/2000/svg" xml:space="preserve" version="1.1">
  <path d="m5.5,8.6c-0.2,0.2 -0.4,0.3 -0.6,0.4c-0.1,0.1 -0.3,0.2 -0.5,0.3c-0.2,0.1 -0.4,0.2 -0.7,0.2s-0.4,0.1 -0.6,0.1c-0.5,0 -1,-0.1 -1.4,-0.3s-0.8,-0.5 -1,-0.8c-0.3,-0.3 -0.5,-0.7 -0.6,-1.2c-0.1,-0.5 -0.1,-0.9 0,-1.5c0.1,-0.5 0.3,-1 0.5,-1.5c0.3,-0.5 0.6,-0.9 1,-1.2c0.4,-0.3 0.8,-0.6 1.3,-0.8c0.5,-0.2 1,-0.3 1.5,-0.3c0.5,0 0.9,0.1 1.2,0.3c0.3,0.2 0.6,0.4 0.8,0.7l0.5,-2.6c0,-0.2 0.1,-0.2 0.1,-0.3c0.1,-0.1 0.2,-0.1 0.3,-0.1l0.9,0c0.1,0 0.2,0 0.2,0.1s0.1,0.1 0.1,0.3l-1.5,8.7c0,0.2 -0.2,0.3 -0.4,0.3l-0.9,0c-0.1,0 -0.2,0 -0.2,-0.1c0,-0.1 -0.1,-0.1 -0.1,-0.3l0.1,-0.4zm-3.8,-2.8c-0.1,0.3 -0.1,0.6 0,0.9c0,0.3 0.2,0.5 0.3,0.7c0.2,0.2 0.4,0.4 0.6,0.5c0.2,0.1 0.5,0.2 0.8,0.2c0.3,0 0.6,-0.1 0.9,-0.2c0.3,-0.1 0.6,-0.3 0.8,-0.5c0.2,-0.2 0.4,-0.4 0.6,-0.7c0.2,-0.2 0.3,-0.5 0.3,-0.8l0,0c0.1,-0.3 0,-0.6 0,-0.9c-0.1,-0.3 -0.2,-0.6 -0.3,-0.8c-0.2,-0.2 -0.4,-0.3 -0.6,-0.5c-0.3,-0.1 -0.6,-0.1 -0.9,-0.1c-0.3,0 -0.6,0.1 -0.9,0.2c-0.2,0.1 -0.5,0.2 -0.7,0.4c-0.3,0.2 -0.5,0.5 -0.6,0.8c-0.2,0.2 -0.3,0.5 -0.3,0.8z" fill="#180028"></path>
  <path d="m15.9,9.1c0,0.1 0,0.1 -0.1,0.2c0,0 -0.1,0.1 -0.1,0.1c-0.1,0 -0.1,0 -0.2,0.1c-0.1,0 -0.1,0 -0.2,0l-0.7,0c-0.1,0 -0.2,0 -0.2,-0.1c0,-0.1 -0.1,-0.1 -0.1,-0.2l0.1,-0.5c-0.2,0.1 -0.4,0.2 -0.6,0.3c-0.2,0.1 -0.4,0.2 -0.6,0.3c-0.2,0.1 -0.4,0.2 -0.6,0.2c-0.2,0 -0.4,0.1 -0.7,0.1c-0.3,0 -0.7,0 -1,-0.1c-0.3,-0.1 -0.6,-0.2 -0.8,-0.4s-0.4,-0.4 -0.6,-0.6c-0.2,-0.2 -0.3,-0.5 -0.5,-0.8c-0.1,-0.3 -0.1,-0.6 -0.2,-0.9c0,-0.3 0,-0.7 0,-1c0.1,-0.3 0.2,-0.7 0.3,-1c0.1,-0.3 0.3,-0.6 0.5,-0.9s0.5,-0.5 0.7,-0.8c0.3,-0.2 0.6,-0.4 0.9,-0.6c0.3,-0.2 0.6,-0.3 1,-0.4c0.3,-0.1 0.7,-0.1 1,-0.1c0.2,0 0.5,0 0.7,0.1c0.2,0.1 0.4,0.1 0.6,0.2c0.2,0.1 0.3,0.2 0.5,0.3s0.3,0.3 0.4,0.4l0.2,-0.6c0,-0.1 0.1,-0.1 0.1,-0.2c0,0 0.1,-0.1 0.1,-0.1c0,0 0.1,0 0.1,-0.1c0,0 0.1,0 0.1,0l0.6,0c0.1,0 0.1,0 0.2,0c0.1,0 0.1,0 0.2,0.1c0,0 0.1,0.1 0.1,0.1c0,0 0,0.1 0,0.2l-1.2,6.7zm-5.4,-3.3c-0.1,0.3 -0.1,0.6 0,0.9c0.1,0.3 0.2,0.5 0.3,0.7c0.2,0.2 0.4,0.4 0.6,0.5c0.2,0.1 0.5,0.2 0.8,0.2c0.3,0 0.6,-0.1 0.9,-0.2c0.3,-0.1 0.6,-0.3 0.8,-0.5c0.2,-0.2 0.4,-0.4 0.6,-0.7c0.2,-0.3 0.3,-0.6 0.3,-0.9c0.1,-0.3 0,-0.6 0,-0.9c-0.1,-0.3 -0.2,-0.5 -0.3,-0.7c-0.2,-0.2 -0.4,-0.4 -0.6,-0.5c-0.2,-0.1 -0.5,-0.2 -0.8,-0.2c-0.3,0 -0.6,0.1 -0.9,0.2c-0.3,0.1 -0.5,0.3 -0.8,0.5c-0.3,0.2 -0.4,0.5 -0.6,0.8c-0.2,0.2 -0.3,0.5 -0.3,0.8z" fill="#180028"></path>
  <path d="m19.9,9.5c-0.3,0 -0.6,0 -0.8,-0.1c-0.3,-0.1 -0.5,-0.2 -0.6,-0.4c-0.2,-0.2 -0.3,-0.4 -0.4,-0.6c-0.1,-0.2 -0.1,-0.5 0,-0.8l0.2,-1l0.5,-2.9l-0.7,0c-0.1,0 -0.2,0 -0.2,-0.1c0,0 -0.1,-0.1 0,-0.2l0.1,-0.9c0,-0.1 0.1,-0.2 0.1,-0.2c0.1,0 0.2,-0.1 0.3,-0.1l0.6,0c0,-0.2 0.1,-0.4 0.1,-0.6s0.1,-0.4 0.1,-0.6c0,-0.1 0,-0.1 0.1,-0.2c0.1,0 0.1,-0.1 0.2,-0.1c0.1,0 0.2,-0.1 0.3,-0.1c0.1,0 0.2,-0.1 0.3,-0.1c0.1,0 0.2,-0.1 0.3,-0.1c0.1,0 0.2,0 0.2,0c0.1,0 0.2,0 0.2,0.1c0,0.1 0,0.2 0,0.3c0,0.2 -0.1,0.5 -0.1,0.7c0,0.2 -0.1,0.5 -0.1,0.7l0.8,0c0.1,0 0.2,0 0.2,0.1s0.1,0.1 0,0.2l-0.1,0.8c0,0.1 -0.1,0.2 -0.1,0.3c-0.1,0.1 -0.1,0.1 -0.2,0.1l-0.8,0c0,0.2 -0.1,0.5 -0.1,0.6c0,0.2 -0.1,0.3 -0.1,0.5c0,0.1 0,0.3 -0.1,0.4c0,0.1 0,0.2 -0.1,0.4c0,0.1 -0.1,0.3 -0.1,0.5c0,0.2 -0.1,0.4 -0.1,0.6c0,0 0,0 0,0c0,0 0,0 0,0l-0.1,0.8c0,0.3 0,0.4 0.1,0.5c0.1,0 0.2,0.1 0.5,0.1c0.1,0 0.1,0 0.2,0.1c0,0.1 0,0.1 0,0.2l-0.1,0.8c0,0.1 -0.1,0.2 -0.1,0.2c-0.2,0 -0.3,0.1 -0.4,0.1z" fill="#180028"></path>
  <path d="m29,9.1c0,0.1 0,0.1 -0.1,0.2s-0.1,0.1 -0.1,0.1s-0.1,0 -0.2,0.1c-0.1,0 -0.1,0 -0.2,0l-0.7,0c-0.1,0 -0.2,0 -0.2,-0.1c0,-0.1 -0.1,-0.1 -0.1,-0.2l0.1,-0.5c-0.1,0.1 -0.3,0.2 -0.5,0.3c-0.2,0.1 -0.4,0.2 -0.6,0.3c-0.2,0.1 -0.4,0.2 -0.6,0.2c-0.2,0 -0.4,0.1 -0.7,0.1c-0.3,0 -0.7,0 -1,-0.1c-0.3,-0.1 -0.6,-0.2 -0.8,-0.4c-0.3,-0.2 -0.5,-0.4 -0.7,-0.6c-0.2,-0.2 -0.3,-0.5 -0.5,-0.8c0,-0.3 -0.1,-0.6 -0.1,-0.9c0,-0.3 0,-0.7 0,-1c0.1,-0.3 0.2,-0.7 0.3,-1c0.1,-0.3 0.3,-0.6 0.5,-0.9c0.2,-0.3 0.5,-0.5 0.7,-0.8c0.3,-0.2 0.6,-0.4 0.9,-0.6c0.3,-0.2 0.6,-0.3 1,-0.4c0.3,-0.1 0.7,-0.1 1,-0.1c0.2,0 0.5,0 0.7,0.1c0.2,0.1 0.4,0.1 0.6,0.2c0.2,0.1 0.3,0.2 0.5,0.3c0.1,0.1 0.3,0.3 0.4,0.4l0.2,-0.6c0,-0.1 0.1,-0.1 0.1,-0.2c0,0 0.1,-0.1 0.1,-0.1c0,0 0.1,0 0.1,-0.1c0,0 0.1,0 0.1,0l0.6,0c0.1,0 0.1,0 0.2,0c0.1,0 0.1,0 0.2,0.1c0,0 0.1,0.1 0.1,0.1c0,0 0,0.1 0,0.2l-1.3,6.7zm-5.4,-3.3c-0.1,0.3 -0.1,0.6 0,0.9c0.1,0.3 0.2,0.5 0.4,0.7c0.2,0.2 0.4,0.4 0.6,0.5c0.2,0.1 0.5,0.2 0.8,0.2c0.3,0 0.6,-0.1 0.9,-0.2c0.3,-0.1 0.6,-0.3 0.8,-0.5c0.2,-0.2 0.4,-0.4 0.6,-0.7c0.2,-0.3 0.3,-0.6 0.3,-0.9c0.1,-0.3 0,-0.6 0,-0.9c-0.1,-0.3 -0.2,-0.5 -0.3,-0.7c-0.2,-0.2 -0.4,-0.3 -0.7,-0.5c-0.2,-0.1 -0.5,-0.2 -0.8,-0.2c-0.3,0 -0.6,0.1 -0.9,0.2c-0.3,0.2 -0.5,0.3 -0.8,0.5c-0.2,0.2 -0.4,0.5 -0.5,0.8c-0.2,0.2 -0.3,0.5 -0.4,0.8z" fill="#180028"></path>
  <path d="m34.9,7.4c0.1,0.1 0.1,0.3 0.2,0.3c0.1,0.1 0.2,0.2 0.3,0.2c0.1,0.1 0.2,0.1 0.3,0.1c0.1,0 0.2,0 0.3,0c0.1,0 0.2,0 0.4,0c0.1,0 0.3,-0.1 0.4,-0.1c0.1,-0.1 0.3,-0.1 0.4,-0.2c0.1,-0.1 0.2,-0.2 0.2,-0.4c0,-0.2 0,-0.3 0,-0.4c-0.1,-0.1 -0.1,-0.2 -0.2,-0.2c-0.1,-0.1 -0.2,-0.1 -0.4,-0.2c-0.1,0 -0.3,-0.1 -0.5,-0.1c-0.4,-0.1 -0.7,-0.2 -1,-0.4c-0.3,-0.2 -0.5,-0.3 -0.6,-0.5c-0.1,-0.2 -0.2,-0.4 -0.3,-0.6c0,-0.2 0,-0.5 0,-0.8c0.1,-0.3 0.2,-0.6 0.3,-0.9s0.4,-0.5 0.6,-0.7c0.3,-0.2 0.5,-0.3 0.9,-0.4c0.5,0 0.8,-0.1 1.2,-0.1c0.3,0 0.5,0 0.7,0.1c0.2,0 0.4,0.1 0.5,0.2c0.2,0.1 0.3,0.2 0.4,0.4c0.1,0.1 0.3,0.3 0.4,0.5c0,0.1 0.1,0.1 0.1,0.2c0,0.1 -0.1,0.1 -0.1,0.2c-0.1,0 -0.1,0.1 -0.2,0.2c-0.1,0 -0.2,0.1 -0.3,0.2c-0.1,0.1 -0.2,0.1 -0.2,0.2s-0.1,0.1 -0.2,0.1c-0.1,0 -0.2,0 -0.2,-0.1c-0.1,-0.1 -0.1,-0.2 -0.2,-0.3c-0.1,-0.1 -0.1,-0.1 -0.2,-0.2c-0.1,0 -0.2,-0.1 -0.3,-0.1c-0.1,0 -0.2,0 -0.3,0c-0.1,0 -0.2,0 -0.3,0c-0.1,0 -0.2,0.1 -0.3,0.1c-0.1,0.1 -0.2,0.1 -0.3,0.2c-0.2,0.1 -0.3,0.1 -0.3,0.3c0,0.1 0,0.2 0.1,0.3c0.1,0.1 0.1,0.2 0.3,0.2c0.1,0.1 0.2,0.1 0.4,0.2c0.1,0 0.3,0.1 0.4,0.1c0.3,0.1 0.6,0.2 0.9,0.3c0.3,0.1 0.5,0.3 0.7,0.5s0.3,0.4 0.4,0.7c0.1,0.3 0.1,0.5 0,0.9c-0.1,0.4 -0.2,0.7 -0.4,1c-0.2,0.3 -0.4,0.5 -0.7,0.7c-0.3,0.2 -0.6,0.3 -1,0.4c-0.4,0.1 -0.7,0.2 -1.1,0.2c-0.2,0 -0.5,0 -0.7,-0.1c-0.2,-0.1 -0.5,-0.1 -0.7,-0.2c-0.3,-0.2 -0.5,-0.4 -0.7,-0.5c-0.2,-0.2 -0.3,-0.4 -0.4,-0.6c0,-0.1 -0.1,-0.2 0,-0.3c0,0 0,-0.1 0.1,-0.1c0,0 0.1,-0.1 0.1,-0.1l0.7,-0.5c0.1,0 0.1,-0.1 0.2,-0.1c0.1,0 0.1,0 0.1,0.1c0,0 0.1,0.1 0.1,0.1z" fill="#180028"></path>
  <path d="m40.4,5.8c0.1,-0.3 0.2,-0.7 0.3,-1c0.1,-0.3 0.3,-0.6 0.5,-0.9c0.2,-0.3 0.5,-0.5 0.7,-0.8c0.3,-0.2 0.6,-0.4 0.9,-0.6s0.6,-0.3 1,-0.4c0.3,-0.1 0.7,-0.1 1,-0.1c0.3,0 0.7,0 1,0.1c0.3,0.1 0.6,0.2 0.8,0.4c0.2,0.2 0.5,0.4 0.7,0.6c0.2,0.2 0.3,0.5 0.5,0.8c0.1,0.3 0.2,0.6 0.2,0.9c0,0.3 0,0.7 0,1c-0.1,0.3 -0.2,0.7 -0.3,1c-0.1,0.3 -0.3,0.6 -0.5,0.9c-0.2,0.3 -0.5,0.5 -0.7,0.8c-0.3,0.2 -0.6,0.4 -0.9,0.6c-0.3,0.2 -0.6,0.3 -1,0.4s-0.7,0.1 -1,0.1c-0.3,0 -0.7,0 -1,-0.1s-0.6,-0.2 -0.9,-0.4c-0.3,-0.2 -0.5,-0.4 -0.7,-0.6s-0.3,-0.5 -0.4,-0.8c-0.1,-0.3 -0.2,-0.6 -0.2,-0.9c0,-0.3 0,-0.6 0,-1zm1.7,0c-0.1,0.3 -0.1,0.6 0,0.9c0.1,0.3 0.2,0.5 0.3,0.7c0.2,0.2 0.4,0.4 0.6,0.5c0.2,0.1 0.5,0.2 0.8,0.2c0.3,0 0.6,-0.1 0.9,-0.2c0.3,-0.1 0.5,-0.3 0.8,-0.5c0.2,-0.2 0.4,-0.4 0.5,-0.7c0.2,-0.3 0.3,-0.6 0.3,-0.9c0.1,-0.3 0.1,-0.6 0,-0.9s-0.1,-0.5 -0.3,-0.7c-0.2,-0.2 -0.3,-0.4 -0.6,-0.5c-0.2,-0.1 -0.5,-0.2 -0.8,-0.2c-0.3,0 -0.6,0.1 -0.9,0.2c-0.3,0.2 -0.5,0.3 -0.7,0.5c-0.2,0.2 -0.4,0.5 -0.6,0.7c-0.2,0.3 -0.3,0.6 -0.3,0.9z" fill="#180028"></path>
  <path d="m55.1,9.3c0,0 -0.1,0 0,0c-0.1,0.1 -0.1,0.1 -0.2,0.1c0,0 -0.1,0 -0.1,0c-0.1,0 -0.1,0 -0.1,0l-0.7,0c-0.1,0 -0.2,0 -0.2,-0.1c0,-0.1 -0.1,-0.2 -0.1,-0.2l0,-0.5c-0.1,0.1 -0.2,0.2 -0.4,0.4c-0.1,0.1 -0.3,0.2 -0.5,0.3c-0.2,0.1 -0.4,0.2 -0.6,0.2c-0.2,0.1 -0.5,0.1 -0.8,0.1c-0.5,0 -0.8,-0.1 -1.2,-0.2c-0.3,-0.2 -0.6,-0.4 -0.8,-0.7c-0.2,-0.3 -0.3,-0.6 -0.4,-1c-0.1,-0.4 0,-0.8 0,-1.2l0.7,-3.8c0,-0.1 0.1,-0.2 0.2,-0.3c0.1,-0.1 0.2,-0.1 0.3,-0.1l0.9,0c0.2,0 0.3,0 0.3,0.1c0,0.1 0,0.2 0,0.3l-0.7,3.8c0,0.2 0,0.4 0,0.6c0,0.2 0.1,0.4 0.2,0.5c0.1,0.2 0.2,0.3 0.4,0.4c0.3,-0.1 0.5,0 0.8,0c0.2,0 0.4,0 0.6,-0.1s0.4,-0.2 0.6,-0.3c0.2,-0.1 0.3,-0.3 0.5,-0.5s0.2,-0.4 0.3,-0.7l0.7,-3.7c0,-0.1 0,-0.1 0,-0.2c0,-0.1 0,-0.1 0.1,-0.2c0,-0.1 0.1,-0.1 0.1,-0.1c0.1,0 0.1,-0.1 0.2,-0.1l0.8,0c0.1,0 0.2,0 0.3,0.1c0,0.1 0.1,0.1 0,0.3l-1.2,6.6c0.1,0.1 0,0.1 0,0.2z" fill="#180028"></path>
  <path d="m58.3,0.3c0,-0.1 0.1,-0.2 0.1,-0.2s0.2,-0.1 0.3,-0.1l1,0c0.1,0 0.1,0 0.2,0.1c0.1,0.1 0.1,0.1 0.1,0.2l-1.5,8.8c0,0.1 -0.1,0.2 -0.1,0.3c-0.1,0.1 -0.2,0.1 -0.3,0.1l-1,0c-0.1,0 -0.2,0 -0.2,-0.1c0,-0.1 -0.1,-0.1 0,-0.3l1.4,-8.8z" fill="#180028"></path>
  <path d="m32.2,7.5c0.2,0.2 0.4,0.5 0.4,0.9c0,0.7 -0.6,1.3 -1.3,1.3c-0.7,0 -1.3,-0.6 -1.3,-1.3c0,-0.3 0.1,-0.6 0.3,-0.8c0.3,-0.4 1,-0.8 0.9,-1.5c0.5,0.2 0.9,0.8 0.5,1.3c-0.1,0.1 0,0.3 0.1,0.3c0.1,0.1 0.3,0.1 0.4,0c0,0 0.1,-0.1 0,-0.2l0,0z" fill="#B400FF"></path>
</svg>
