<svg class="icon logo-vtex" fill="#f71963" xmlns="http://www.w3.org/2000/svg" viewBox="0 0 75 27"><path d="M54.0226366,9.93113129 L51.3454086,9.93113129 L51.3454086,18.9109496 C51.3440744,19.08023 51.2043535,19.2171374 51.0315944,19.2184447 L48.9697365,19.2184447 C48.7969774,19.2171374 48.6572565,19.08023 48.6559223,18.9109496 L48.6559223,9.93113129 L45.9590809,9.93113129 C45.8774252,9.93438863 45.7979166,9.90503231 45.7387597,9.84978365 C45.6796028,9.794535 45.6458633,9.71812563 45.6452666,9.63805001 L45.6452666,8.04772371 C45.6458633,7.96764809 45.6796028,7.89123873 45.7387597,7.83599007 C45.7979166,7.78074142 45.8774252,7.7513851 45.9590809,7.75464243 L54.0177333,7.75464243 C54.1915607,7.74647044 54.339466,7.87744154 54.3487093,8.04772371 L54.3487093,9.63805001 C54.3394643,9.8063854 54.1945895,9.93660211 54.0226366,9.93113129 Z"></path><path d="M62.608399,19.158387 C61.5529318,19.3063164 60.4873421,19.3737834 59.4212228,19.3601807 C57.3887851,19.3601807 55.5941597,18.8508919 55.5941597,16.0425967 L55.5941597,10.9184789 C55.5941597,8.11018366 57.4059468,7.61771101 59.4359328,7.61771101 C60.4938397,7.60351079 61.5512656,7.67017672 62.5985923,7.81710238 C62.819243,7.84833235 62.9124066,7.92520613 62.9124066,8.12459749 L62.9124066,9.56598084 C62.9110724,9.73526128 62.7713515,9.87216872 62.5985923,9.87347596 L59.2888324,9.87347596 C58.5533302,9.87347596 58.2811944,10.1137065 58.2811944,10.9232835 L58.2811944,12.32623 L62.4833636,12.32623 C62.6561228,12.3275372 62.7958437,12.4644446 62.7971779,12.6337251 L62.7971779,14.0991315 C62.7958437,14.2684119 62.6561228,14.4053194 62.4833636,14.4066266 L58.2811944,14.4066266 L58.2811944,16.0425967 C58.2811944,16.8449668 58.5484269,17.0924042 59.2888324,17.0924042 L62.608399,17.0924042 C62.7811582,17.0937115 62.9208791,17.2306189 62.9222133,17.3998994 L62.9222133,18.8412827 C62.924665,19.0334672 62.8290497,19.1271571 62.608399,19.158387 Z"></path><path d="M74.4892112,19.2184447 L71.9860521,19.2184447 C71.8114892,19.2311519 71.647609,19.1349963 71.5766225,18.9782141 L69.4044393,15.6149863 L67.4431001,18.9157542 C67.3327748,19.1007317 67.2224495,19.2232493 67.0483806,19.2232493 L64.7241937,19.2232493 C64.6633171,19.2339442 64.6007374,19.2175908 64.5533806,19.1786121 C64.5060239,19.1396334 64.4787831,19.0820571 64.4790263,19.0214556 C64.4822362,18.9837079 64.4930699,18.9469616 64.510898,18.9133519 L67.9260799,13.3424052 L64.4790263,8.04772371 C64.4612482,8.01928474 64.4503461,7.98723709 64.4471545,7.9540338 C64.4588242,7.83240062 64.568038,7.74250827 64.6923219,7.75224013 L67.2273528,7.75224013 C67.4014217,7.75224013 67.5264571,7.90598768 67.6220723,8.04532141 L69.6373484,11.1683187 L71.5986876,8.04532141 C71.6697655,7.88738003 71.8190028,7.77657044 71.9934071,7.75224013 L74.3249491,7.75224013 C74.449233,7.74250827 74.5584467,7.83240062 74.5701165,7.9540338 C74.5669249,7.98723709 74.5560228,8.01928474 74.5382447,8.04772371 L71.1059011,13.3736352 L74.6779901,18.898938 C74.7055945,18.9459041 74.7215505,18.9985685 74.7245719,19.0526856 C74.6951518,19.158387 74.6142466,19.2184447 74.4892112,19.2184447 Z"></path><path d="M41.874592,7.7858724 C41.7569869,7.78330828 41.6540987,7.86295329 41.6294246,7.97565455 L39.3420127,16.2684134 C39.310141,16.4389771 39.2635592,16.508644 39.1213621,16.508644 C38.979165,16.508644 38.9325832,16.446184 38.9007114,16.2684134 L36.6206546,7.97565455 C36.5959804,7.86295329 36.4930923,7.78330828 36.3754872,7.7858724 L34.1248504,7.7858724 C34.0493036,7.78405319 33.9771221,7.81647357 33.9292167,7.87374158 C33.881311,7.93100959 33.8630349,8.00672508 33.879683,8.07895369 C33.879683,8.07895369 36.6721397,17.5848769 36.7015598,17.688176 C37.0742143,18.8220643 37.978882,19.3697899 39.1287171,19.3697899 C40.231862,19.4085758 41.2254279,18.7202009 41.5558743,17.688176 C41.6000045,17.5584515 44.3311693,8.07895369 44.3311693,8.07895369 C44.3469446,8.00707665 44.3282616,7.93207872 44.2804633,7.87540732 C44.232665,7.81873592 44.1610143,7.78663136 44.0860019,7.78827471 L41.874592,7.7858724 Z"></path><path d="M29.1185321,0.0768737788 L5.65110858,0.0768737788 C4.801926,0.0844811068 4.0180243,0.524700319 3.58206248,1.2387973 C3.14610069,1.95289428 3.12095806,2.837874 3.51570052,3.57463071 L5.86440421,7.9564361 L1.60829815,7.9564361 C1.06454857,7.94674121 0.55616733,8.21973533 0.271930129,8.67404833 C-0.0123070713,9.12836134 -0.0299494795,9.69614172 0.225554008,10.1665572 L7.77670994,24.1479758 C8.0476763,24.6500778 8.57980123,24.9641795 9.15945407,24.9641795 C9.73910691,24.9641795 10.2712318,24.6500778 10.5421982,24.1479758 L12.5917977,20.3595398 L15.1660554,25.1305187 C15.5846079,25.9050715 16.405794,26.3894996 17.3002376,26.3894996 C18.1946812,26.3894996 19.0158673,25.9050715 19.4344198,25.1305187 L31.202455,3.44971082 C31.5920986,2.73608824 31.5687229,1.87400211 31.140956,1.18166022 C30.7131894,0.489318327 29.944466,0.0693889539 29.1185321,0.0768737788 L29.1185321,0.0768737788 Z M18.6327224,9.23686498 L13.484207,18.6971444 C13.3073189,19.0239061 12.9607035,19.2282095 12.5832168,19.2282095 C12.2057301,19.2282095 11.8591148,19.0239061 11.6822266,18.6971444 L6.59990642,9.32815259 C6.44310245,9.03982687 6.4522591,8.69201246 6.62402549,8.41199189 C6.79579191,8.13197132 7.10495584,7.96084659 7.43837892,7.96124071 L17.83838,7.96124071 C18.1517384,7.95651434 18.4442825,8.11452006 18.6075191,8.37665965 C18.7707558,8.63879926 18.7803419,8.96598066 18.6327224,9.23686498 Z"></path></svg>
