<svg width="132" height="52" viewBox="0 0 132 52" fill="none" xmlns="http://www.w3.org/2000/svg">
  <g clip-path="url(#clip0_9_155)">
    <path d="M71.7183 42.8568C70.3681 44.0833 69.3845 45.6599 68.8767 47.4116C68.3152 49.3709 68.6556 51.0377 70.398 51.0377C71.8681 51.0377 73.2634 49.677 73.7296 48C74.1448 46.5068 73.7296 45.4046 72.576 45.4046C72.1173 45.4201 71.6738 45.573 71.3032 45.8434C71.2283 45.9183 71.2045 46.0169 71.2793 46.0645C71.4578 45.991 71.6479 45.9496 71.8409 45.942C72.8619 45.942 72.9707 47.1429 72.627 48.3674C72.2833 49.592 71.5482 50.5954 70.6668 50.5954C69.4893 50.5954 69.4655 49.0511 69.9317 47.364C70.3753 45.6852 71.2641 44.1574 72.5045 42.9419C73.4084 42.1097 74.4758 41.4749 75.6388 41.0778C75.7375 41.0064 75.7613 40.8329 75.6898 40.7853C74.1984 41.0913 72.8226 41.809 71.7183 42.8568Z" fill="#DD052A"/>
    <path d="M68.2402 49.0035C68.0921 49.233 67.911 49.4393 67.7025 49.6158C67.3493 49.8541 66.9262 49.9667 66.5011 49.9356H65.0548C64.7349 49.9356 64.6873 49.9083 64.7145 49.7859C64.7383 49.7145 64.9357 49.4934 66.2596 48.1225L67.2635 47.1021C68.5363 45.806 69.1488 44.8026 69.4211 43.9182C69.8125 42.5235 69.2986 41.537 68.1211 41.537C67.1648 41.537 66.1609 42.1493 65.4496 43.2038C65.3509 42.1834 64.837 41.537 63.8807 41.537C62.5195 41.537 61.1378 42.7616 60.6477 44.4998C60.2325 46.0204 60.7941 46.949 61.7504 46.949C62.179 46.9506 62.595 46.8039 62.9278 46.534C62.9482 46.5105 62.9614 46.4816 62.9656 46.4508C62.9698 46.42 62.965 46.3886 62.9517 46.3605C62.7757 46.4092 62.5925 46.4264 62.4105 46.4115C61.5053 46.4115 61.4066 45.1122 61.73 43.9862C62.0975 42.6868 62.8564 41.9793 63.6153 41.9793C64.769 41.9793 64.5716 43.8161 64.1802 45.1359C63.4145 47.8776 62.2778 49.3709 60.9166 50.3506C60.2922 50.793 59.6035 51.1373 58.8747 51.371C58.776 51.4459 58.7522 51.667 58.8475 51.7112C60.0502 51.4195 61.1672 50.8485 62.1077 50.0444C63.5856 48.782 64.6591 47.1128 65.1943 45.2448C65.3395 44.7596 65.4219 44.2577 65.4394 43.7515C65.9805 42.9181 66.6407 42.3296 67.3282 42.3296C68.3082 42.3296 68.6009 43.1392 68.2334 44.4624C67.7909 46.0034 66.4944 47.4252 65.4394 48.4525C64.238 49.6056 63.7378 50.0955 63.0402 50.5343C62.9701 50.5785 62.9108 50.6377 62.8666 50.7078C62.852 50.7653 62.8606 50.8264 62.8904 50.8778C63.1627 50.854 63.5711 50.8302 64.2143 50.8302H65.9158C66.4807 50.8302 66.9708 50.854 67.4336 50.8778C67.844 50.3339 68.1868 49.7423 68.4546 49.1158C68.4614 49.0035 68.3389 48.9797 68.2402 49.0035Z" fill="#DD052A"/>
    <path d="M59.2491 50.4968L58.759 50.4731C58.2928 50.4254 58.3404 50.1805 58.6603 49.0511L60.236 43.4181C60.4538 42.5881 60.6988 41.8772 60.7975 41.6084C60.7737 41.5575 60.7498 41.5336 60.6988 41.5336C60.0186 41.9444 59.2726 42.2343 58.4936 42.3909C58.4436 42.4254 58.4085 42.4775 58.3953 42.5368C58.3821 42.596 58.3916 42.6581 58.4221 42.7106L58.9836 42.7582C59.5009 42.8058 59.4499 43.1256 59.1572 44.1189L57.7959 49.041C57.476 50.1703 57.4011 50.4016 56.8873 50.4628L56.3972 50.4866C56.2986 50.5853 56.2509 50.8064 56.3257 50.854C56.7886 50.8302 57.3297 50.8064 57.7449 50.8064C58.1601 50.8064 58.6773 50.8302 59.1435 50.854C59.1923 50.8099 59.2279 50.7532 59.2466 50.6902C59.2652 50.6273 59.2661 50.5603 59.2491 50.4968Z" fill="#DD052A"/>
    <path d="M93.6995 33.9651C93.6141 33.9557 93.5318 33.9266 93.4588 33.8799C93.3858 33.8333 93.3252 33.7704 93.281 33.6964C93.0364 33.3562 93.1583 32.7167 93.2577 32.2507L95.5614 21.4983L89.7045 21.7942L89.4359 23.0664C90.1704 23.1174 90.9298 23.0426 91.641 23.1651C92.2537 23.2637 92.2537 23.4338 92.2055 24.0223L91.273 28.3321C90.9057 29.8526 90.783 30.8323 89.8031 32.2269C89.3916 32.8532 88.8318 33.3686 88.1733 33.7275C87.5149 34.0864 86.7788 34.2779 86.0287 34.2848C84.5115 34.2848 83.579 33.5263 83.8476 31.9344C83.9462 31.3459 84.0448 30.7812 84.1675 30.2336L86.0287 21.5119L80.6555 21.7942L80.3869 23.0664H80.9956C81.5609 23.0664 82.245 22.995 82.6122 23.4066C82.679 23.5111 82.721 23.6298 82.7334 23.7532C82.7466 23.8766 82.7303 24.0013 82.6868 24.1175L81.2744 30.6622C81.1043 31.4717 80.8116 32.9174 80.9824 33.2848C80.9584 35.7339 84.1202 36.1251 84.9028 36.1251C85.5458 36.1217 86.184 36.0066 86.7881 35.7849C85.8734 36.603 84.8205 37.2505 83.6776 37.6967C82.3428 38.2174 80.9203 38.475 79.4877 38.4552C78.1693 38.4568 76.8528 38.3533 75.5506 38.1456C74.277 37.9777 73.0161 37.7243 71.7765 37.3871C70.6228 37.0946 69.1799 36.7068 67.4137 36.1625C69.2116 35.1268 70.8469 33.8316 72.2666 32.3187C73.8961 30.589 75.4028 28.7476 76.7757 26.8082C78.219 24.6992 79.6888 22.3487 81.1998 19.7295C84.1854 18.5527 87.063 17.1186 89.8 15.4435C92.3399 13.9518 94.6794 12.1411 96.7588 10.0553C98.5967 8.14367 99.502 6.38165 99.502 4.73868C99.502 2.90183 98.5734 1.99701 96.6842 1.99701C95.5257 2.03319 94.3921 2.34327 93.3765 2.90183C92.1271 3.53237 90.9438 4.28556 89.8443 5.15028C88.8822 5.86979 87.9808 6.6661 87.1484 7.53139L86.6584 7.99737C85.0713 9.40983 83.6193 10.9677 82.3226 12.6507C81.05 14.2937 79.4815 16.4469 77.691 19.0423C75.331 19.3987 72.9485 19.5874 70.5616 19.607C68.5334 19.6009 66.5205 19.256 64.6061 18.5865C62.7209 17.9523 61.0101 16.8866 59.6102 15.4741C58.961 14.8212 58.4486 14.0454 58.1032 13.1919C57.7578 12.3386 57.5864 11.4249 57.5989 10.5044C57.5862 8.62804 58.2996 6.81935 59.5898 5.45642C60.9902 3.96362 62.7294 2.82958 64.6606 2.15009C66.6743 1.39653 68.8061 1.00721 70.9563 1.00035C72.8542 1.01603 74.7419 1.27903 76.5716 1.78271C78.5008 2.29851 80.3488 3.08167 82.061 4.10939L82.2551 3.4733C81.335 2.93211 80.3776 2.45805 79.3891 2.05484C77.9992 1.49059 76.5541 1.07111 75.0776 0.803053C73.7334 0.530077 72.3655 0.391066 70.9938 0.388062C68.6453 0.387871 66.3197 0.850217 64.15 1.74869C62.0275 2.58617 60.1486 3.94153 58.6846 5.69113C57.3192 7.28836 56.5718 9.32189 56.578 11.4228C56.578 14.4366 57.9018 16.9095 60.5461 18.8212C63.1904 20.7329 66.5255 21.6854 70.5684 21.6854C72.5431 21.641 74.5106 21.4282 76.4491 21.0493C76.2517 21.4166 75.5438 22.7127 74.2914 24.9917C73.0391 27.2707 72.1611 28.8627 71.569 29.8152C70.9545 30.8044 70.2662 31.7459 69.51 32.6317C69.265 32.9276 68.9961 33.2202 68.7035 33.5637C68.2854 33.9572 67.7327 34.1762 67.1585 34.176C67.043 34.1829 66.9274 34.1668 66.8182 34.1289C66.709 34.091 66.6083 34.0318 66.5221 33.9549C66.1306 33.761 66.1069 33.1487 66.1817 32.7065C66.2382 32.2611 66.32 31.8193 66.4268 31.3833L67.6519 26.1177C68.1419 23.7672 68.2168 22.3215 65.9504 21.4405C65.0448 21.1269 64.0906 20.9772 63.1325 20.9982C61.7818 20.9739 60.4429 21.2541 59.2155 21.818C57.9665 22.3317 56.6189 23.41 56.35 24.757C56.1288 25.7775 56.4487 26.6925 57.5513 26.6925C58.5314 26.6925 59.3652 26.2503 59.5932 25.172C59.6592 24.7459 59.5915 24.3097 59.3992 23.9236C59.2767 23.5835 59.2018 23.3351 59.5932 23.0426C60.3555 22.4541 61.5058 22.4065 62.3634 22.4065C64.0309 22.4065 65.4501 22.8453 65.1574 24.7332C65.0625 25.4608 64.9146 26.1804 64.715 26.8864C61.6044 27.3286 54.7199 28.4546 53.8623 32.4718C53.7507 32.9284 53.7333 33.4029 53.8112 33.8664C53.3592 33.922 52.915 34.0293 52.4874 34.1862C52.2597 34.2654 52.0206 34.3067 51.7795 34.3087C49.8432 34.3087 50.112 32.8392 50.2822 31.9582L52.239 22.8385H56.7992L57.0919 21.4779H52.535L53.8317 15.3074H52.6065C51.8715 17.879 50.5238 21.2567 47.1921 21.4779L46.8994 22.8385H49.4212L47.3044 32.8153C46.8892 34.7508 48.2607 36.1217 50.3672 36.1217H50.5136C50.4859 36.2664 50.47 36.4132 50.4659 36.5605C50.4659 37.5809 51.0274 38.4246 52.1675 39.0845C53.3075 39.7444 54.7403 40.0403 56.4555 40.0403C58.1325 40.022 59.7954 39.7326 61.3799 39.1832C63.0815 38.6202 64.7231 37.8898 66.2804 37.0027C71.1061 39.0437 74.9041 40.0403 77.6506 40.0403C81.5485 40.0403 85.1086 38.4404 88.3333 35.2407C89.1431 34.4549 89.7791 33.8189 90.2186 33.3528L89.7278 35.6557L95.292 35.3632L95.5847 34.0399H94.9247C94.5062 34.0162 94.1149 34.0162 93.6995 33.9651ZM83.7762 15.0591C84.3888 13.906 84.9774 12.8787 85.5388 11.9467C86.205 10.6906 87.004 9.50917 87.921 8.4226C88.6361 7.54759 89.4343 6.74338 90.3032 6.02108C91.3437 5.11661 92.4672 4.31252 93.6591 3.61957C94.587 3.0313 95.6515 2.69375 96.7487 2.63991C97.484 2.63991 98.0221 2.78958 98.3653 3.12974C98.7093 3.4699 98.8552 3.96312 98.8552 4.72168C98.8552 6.04489 98.0454 7.61303 96.473 9.37506C94.6367 11.3844 92.5185 13.1169 90.1844 14.5182C87.6306 16.1259 84.8873 17.4102 82.0167 18.3416C82.5509 17.2871 83.1395 16.185 83.7762 15.0591ZM56.8911 32.2031C57.6024 28.9205 61.9414 28.577 64.4631 28.1212L64.1705 29.4444C63.8505 30.7438 63.7519 31.7711 62.7003 32.846C62.0325 33.5482 61.1977 34.0701 60.2738 34.3631C59.7362 34.2917 59.1712 34.193 58.6063 34.1181C58.1435 34.0467 57.7011 33.9957 57.3097 33.9481C57.1012 33.7145 56.954 33.4327 56.8815 33.128C56.809 32.8234 56.8135 32.5055 56.8945 32.2031H56.8911ZM60.6176 38.5946C59.2486 38.9969 57.8278 39.1952 56.401 39.1832C55.2292 39.2286 54.0676 38.9484 53.0456 38.3735C52.1641 37.8123 51.7217 37.2714 51.7217 36.7101C51.7295 36.4133 51.815 36.1235 51.9697 35.8699C52.1243 35.6163 52.3427 35.4076 52.6031 35.2645C53.3357 34.8323 54.1803 34.6275 55.0296 34.676C56.0588 34.6766 57.0852 34.7837 58.0924 34.9958C59.3834 35.2521 60.6592 35.5792 61.9142 35.9755C63.3843 36.4142 64.3168 36.683 64.6843 36.7816C63.4017 37.5353 62.0387 38.1435 60.621 38.5946H60.6176Z" fill="#DD052A"/>
    <path d="M131.678 33.8188C131.382 33.9175 131.09 34.0399 130.77 34.1385C130.604 34.1882 130.429 34.1984 130.259 34.1683C130.089 34.1381 129.928 34.0685 129.789 33.9651C129.398 33.7712 129.374 33.1589 129.449 32.7167C129.504 32.2711 129.586 31.8292 129.694 31.3935L130.892 26.1278C131.409 23.7773 131.457 22.3555 129.19 21.4507C128.27 21.1612 127.31 21.0211 126.345 21.0357C125.01 21.003 123.684 21.2704 122.466 21.818C121.214 22.3555 119.893 23.41 119.597 24.757C119.376 25.8115 119.72 26.6925 120.798 26.6925C121.778 26.6925 122.612 26.2503 122.84 25.1992C122.9 24.7661 122.84 24.3248 122.666 23.9236C122.615 23.856 122.579 23.7783 122.56 23.6958C122.541 23.6131 122.54 23.5274 122.556 23.4443C122.572 23.3611 122.607 23.2823 122.656 23.2131C122.704 23.1439 122.767 23.0858 122.84 23.0426C123.623 22.478 124.749 22.4065 125.607 22.4065C127.275 22.4065 128.693 22.8725 128.401 24.7332C128.304 25.4715 128.156 26.2023 127.958 26.9204C124.848 27.3354 117.963 28.4613 117.106 32.4786C116.565 35.0502 118.307 36.1285 120.635 36.1285C122.881 36.1037 125.035 35.2285 126.662 33.6794C126.761 35.1488 127.342 35.9312 128.915 35.9312C129.936 35.9312 131.44 35.3189 131.978 34.2917C132.042 33.9651 131.971 33.8937 131.678 33.8188ZM127.414 29.458C127.094 30.7336 126.999 31.7609 125.944 32.8391C124.964 33.8426 123.493 34.5773 122.221 34.5773C120.86 34.5773 119.838 33.6725 120.161 32.1963C120.842 28.9137 125.184 28.5702 127.706 28.1144L127.414 29.458Z" fill="#DD052A"/>
    <path d="M107.88 30.2199C107.581 31.2764 107.054 32.2542 106.335 33.0841C105.43 34.1862 103.953 34.3325 102.806 34.3325H99.4266L110.477 22.5528L110.698 21.4983H99.6782L98.3171 26.6007H99.4942L99.5183 26.4306C99.7729 25.423 100.313 24.5102 101.074 23.8012C102.129 22.8963 103.18 22.7807 104.381 22.7807H106.978L96.0024 34.5298L95.7578 35.6557H107.566L109.037 30.2132L107.88 30.2199Z" fill="#DD052A"/>
    <path d="M116.977 21.4983L111.192 21.7942L110.896 23.0664L112.734 23.1413C113.054 23.1889 113.414 23.1651 113.567 23.5086C113.595 24.0825 113.528 24.6571 113.37 25.2095L111.879 32.2269C111.709 32.9378 111.61 33.6964 111.168 34.3325C110.655 34.5774 110.065 34.5298 109.528 34.5774H108.694L108.473 35.6557H116.535L116.756 34.5774C116.2 34.5993 115.643 34.5834 115.089 34.5298C114.085 34.4549 114.282 34.1624 114.476 33.2065L116.977 21.4983Z" fill="#DD052A"/>
    <path d="M37.6589 18.0457C37.8893 18.2762 38.1655 18.4559 38.4698 18.5731C38.7741 18.6903 39.0995 18.7424 39.4251 18.726C40.0068 18.7182 40.5748 18.5486 41.0654 18.2362C41.3417 18.058 41.578 17.8245 41.7596 17.5505C41.9411 17.2766 42.064 16.968 42.1204 16.6443C42.1798 16.4178 42.1864 16.1808 42.1398 15.9514C42.0932 15.722 41.9946 15.5063 41.8516 15.3211C41.484 14.9027 41.0893 14.8074 40.5277 14.685L39.7688 14.5114C39.2278 14.4128 38.4076 14.2427 38.5437 13.508C38.6798 12.7732 39.4251 12.4875 40.0139 12.4875C41.1403 12.4875 41.6066 13.2699 41.678 14.2733H42.1681L42.6581 11.9739H42.1987L41.6848 12.4875C41.2658 12.103 40.7115 11.8999 40.1432 11.9228C39.5783 11.9047 39.025 12.0866 38.5811 12.4363C38.1372 12.7861 37.8311 13.2813 37.7167 13.8346C37.6032 14.2437 37.6469 14.6805 37.8393 15.0591C38.0604 15.4503 38.4757 15.5728 38.918 15.6952C39.0882 15.7428 39.2584 15.7939 39.4557 15.8415C39.8742 15.9149 40.2845 16.0288 40.6808 16.1816C40.7757 16.2092 40.8642 16.2554 40.9408 16.3178C41.0174 16.3801 41.0808 16.4571 41.1272 16.5444C41.1735 16.6315 41.2019 16.7272 41.2106 16.8256C41.2193 16.924 41.2081 17.0231 41.1777 17.1171C41.0314 17.7974 40.1568 18.1682 39.5613 18.1682C38.2375 18.1682 37.6997 17.2396 37.6487 16.0387H37.1348L36.5732 18.658H37.0361L37.6589 18.0457Z" fill="#DD052A"/>
    <path d="M31.486 14.4706C31.695 14.4928 31.9046 14.4349 32.0727 14.3086C32.2407 14.1824 32.3545 13.9972 32.3913 13.7903C32.41 13.5981 32.3771 13.4043 32.296 13.2291C32.2579 13.1643 32.2465 13.0872 32.2643 13.0142C32.2821 12.9411 32.3276 12.8779 32.3913 12.8379C32.771 12.6196 33.2062 12.5167 33.6436 12.5419C34.3787 12.5419 35.0049 12.763 34.8926 13.5964C34.8177 13.9366 34.7939 14.2563 34.6952 14.5761C33.2999 14.77 30.186 15.287 29.8185 17.0966C29.5734 18.2498 30.3595 18.7158 31.4111 18.7158C32.4177 18.7072 33.3825 18.3127 34.1065 17.6137C34.1575 18.2736 34.4263 18.6342 35.1274 18.6342C35.4014 18.63 35.6705 18.5613 35.9129 18.4336C36.1554 18.306 36.3643 18.123 36.5227 17.8994C36.5465 17.7531 36.4989 17.7021 36.3763 17.6783C36.2538 17.7293 36.1075 17.777 35.9577 17.8246C35.8846 17.8515 35.8058 17.859 35.7289 17.8465C35.652 17.8339 35.5796 17.8018 35.5187 17.7531C35.3452 17.6545 35.3452 17.3858 35.3724 17.1885C35.3996 16.9912 35.4439 16.7973 35.4677 16.6L36.0327 14.2189C36.2538 13.1644 36.2776 12.5181 35.2737 12.1133C34.8551 11.9728 34.4152 11.906 33.9737 11.916C33.3689 11.9119 32.7706 12.0408 32.2211 12.2936C31.9192 12.3976 31.6464 12.5718 31.4251 12.8018C31.2038 13.0319 31.0403 13.3112 30.9483 13.6168C30.8258 14.0795 30.9959 14.4706 31.486 14.4706ZM34.4501 15.719C34.3039 16.3075 34.2562 16.7735 33.79 17.2395C33.3547 17.704 32.7579 17.984 32.1224 18.0219C31.486 18.0219 31.0436 17.6069 31.1933 16.9674C31.5098 15.4741 33.4462 15.3278 34.5727 15.1067L34.4501 15.719Z" fill="#DD052A"/>
    <path d="M47.8794 18.6342C48.1489 18.6313 48.4137 18.5629 48.6508 18.4349C48.8879 18.3069 49.0904 18.1231 49.2406 17.8994C49.2883 17.7531 49.2406 17.7021 49.1181 17.6783C48.9955 17.7293 48.8493 17.777 48.7029 17.8246C48.6294 17.8528 48.5498 17.861 48.472 17.8484C48.3944 17.8359 48.3213 17.803 48.2605 17.7531C48.0903 17.6545 48.0903 17.3858 48.1142 17.1885C48.138 16.9912 48.1856 16.7973 48.2129 16.6L48.7744 14.2189C48.9955 13.1644 49.0194 12.5181 48.0155 12.1133C47.5968 11.9728 47.1569 11.906 46.7154 11.916C46.1186 11.9154 45.5288 12.0442 44.9866 12.2936C44.6842 12.4012 44.4102 12.5763 44.1855 12.8056C43.9608 13.0349 43.7914 13.3123 43.6901 13.6168C43.5914 14.0829 43.7377 14.474 44.2515 14.474C44.461 14.4963 44.6711 14.4385 44.8396 14.3123C45.0082 14.1861 45.1227 14.0008 45.1602 13.7937C45.1762 13.6012 45.1422 13.408 45.0616 13.2325C45.0105 13.0862 44.9629 12.9875 45.1602 12.8412C45.5388 12.6231 45.9729 12.5202 46.4092 12.5453C47.1443 12.5453 47.7704 12.7664 47.6581 13.5998C47.5833 13.94 47.5356 14.2597 47.4608 14.5795C46.0416 14.7734 42.955 15.2904 42.5874 17.1C42.3152 18.2532 43.1251 18.7192 44.1528 18.7192C45.1683 18.7148 46.1431 18.3202 46.8754 17.6171C46.9231 18.2668 47.1681 18.6342 47.8794 18.6342ZM46.5759 17.2259C46.1418 17.6918 45.5444 17.9721 44.9084 18.0082C44.272 18.0082 43.8329 17.5933 43.9793 16.9571C44.2958 15.4605 46.2322 15.3142 47.3587 15.0931L47.2361 15.6952C47.0898 16.2939 47.0422 16.7599 46.5759 17.2259Z" fill="#DD052A"/>
    <path d="M25.2138 18.709C27.4905 18.709 29.1343 17.3484 29.9169 15.1305L29.3044 15.0149C28.668 16.7803 27.4429 18.1036 25.5303 18.1036C23.0085 18.1036 22.9847 15.8721 23.4237 13.7903C23.6084 12.683 23.9998 11.6202 24.5774 10.6575C24.852 10.1789 25.2429 9.77742 25.7141 9.49018C26.1853 9.20301 26.7214 9.03933 27.2727 9.01449C27.5658 9.00371 27.858 9.05245 28.1318 9.15769C28.4055 9.26293 28.655 9.4225 28.8654 9.62677C29.3282 10.0928 29.4269 10.535 29.546 11.1949C29.6121 11.6173 29.653 12.0432 29.6686 12.4705L30.2811 12.4433L30.9175 8.47703H30.4308L29.672 9.33426C29.3867 9.01667 29.0346 8.76621 28.6409 8.60098C28.2472 8.43566 27.8218 8.35968 27.3952 8.37839C25.9727 8.37839 24.7238 9.05873 23.6211 10.1166C22.5958 11.1068 21.9028 12.3902 21.6371 13.7903C21.0722 16.4299 22.4607 18.709 25.2138 18.709Z" fill="#DD052A"/>
    <path d="M116.241 17.3959C116.752 17.3625 117.24 17.1729 117.638 16.8527C118.037 16.5326 118.328 16.0976 118.471 15.6067C118.53 15.3907 118.539 15.1636 118.495 14.9438C118.45 14.7241 118.356 14.5178 118.217 14.3414C118.078 14.165 117.901 14.0236 117.698 13.9284C117.495 13.8333 117.272 13.7871 117.048 13.7936C116.549 13.8209 116.07 14.0033 115.68 14.3156C115.289 14.6279 115.006 15.0543 114.87 15.5352C114.686 16.4775 115.285 17.3959 116.241 17.3959Z" fill="#DD052A"/>
    <path d="M44.8397 34.506C44.7193 34.4912 44.6083 34.4336 44.527 34.3436C44.4457 34.2537 44.3997 34.1373 44.3973 34.0162C44.4245 33.8426 44.4483 33.6964 44.4721 33.5501L45.8675 26.9851C46.1169 26.0347 46.1919 25.047 46.0887 24.0699C45.7483 21.6718 43.5908 21.0085 42.2669 21.0085C40.8716 21.0085 38.9114 21.5494 36.8763 24.0699L37.414 21.4779L32.0982 21.7976L31.8056 23.0699L33.371 23.1447C33.6671 23.1923 34.0108 23.1685 34.0823 23.5121C34.1015 24.0872 34.0268 24.6617 33.8611 25.2129L32.0506 33.7236C31.9758 34.1896 31.2883 34.1896 30.8493 34.1896C30.4818 34.1896 30.0904 34.1896 29.8692 33.9685C29.4778 33.7746 29.4506 33.1624 29.5289 32.7201C29.6072 32.278 29.6752 31.8392 29.7739 31.3969L30.9991 26.1313C31.4891 23.7808 31.5639 22.3351 29.2975 21.4541C28.3837 21.1406 27.4217 20.9909 26.4558 21.0119C25.1075 20.9857 23.7703 21.2612 22.5422 21.8181C21.2932 22.3317 19.9694 23.41 19.6767 24.7571C19.4555 25.7775 19.772 26.6925 20.8747 26.6925C21.8547 26.6925 22.6885 26.2503 22.9165 25.1721C22.9571 24.7463 22.8904 24.3171 22.7226 23.9237C22.5728 23.5835 22.5014 23.3351 22.8927 23.0426C23.6755 22.4542 24.8053 22.4065 25.6629 22.4065C27.327 22.4065 28.7495 22.8453 28.4535 24.7332C28.3598 25.4607 28.213 26.1803 28.0145 26.8864C24.9176 27.3287 18.0364 28.4546 17.1754 32.4718C16.6138 35.0434 18.3767 36.1217 20.7045 36.1217C22.9584 36.0979 25.1199 35.223 26.7553 33.6726C26.8302 35.1421 27.4189 35.8019 28.9878 35.8019C29.4467 35.8473 29.9102 35.7975 30.3491 35.6557H36.941L37.1588 34.5774L36.5972 34.5536C36.1072 34.5298 34.7833 34.6999 34.8582 34.0162C34.8849 33.837 34.9008 33.6564 34.9059 33.4753L36.0085 28.4069C36.2773 27.1075 36.4986 26.0055 37.4038 24.8557C38.3091 23.706 39.6601 22.8147 40.9839 22.8147C42.3077 22.8147 43.407 23.6243 43.3355 24.8557C43.3008 25.5421 43.2109 26.2246 43.0666 26.8966L41.6543 33.5263C41.6246 33.6755 41.5837 33.8221 41.5318 33.9651C41.4637 34.0814 41.3814 34.1889 41.2868 34.2849C41.0557 34.4419 40.7834 34.5272 40.5041 34.5298C39.9909 34.5826 39.4745 34.5985 38.959 34.5774L38.714 35.6557H46.48L46.7012 34.5774L46.1635 34.5536C45.6973 34.5298 45.2821 34.5298 44.8397 34.506ZM27.4836 29.4342C27.1909 30.7336 27.0922 31.7609 26.0407 32.8358C25.0605 33.8393 23.5631 34.574 22.2971 34.574C20.9359 34.574 19.9149 33.6692 20.2553 32.1929C20.9359 28.9104 25.2783 28.5668 27.8035 28.111L27.4836 29.4342Z" fill="#DD052A"/>
    <path d="M17.2506 25.4679C16.4917 24.046 15.4605 23.5562 13.8917 23.1412L9.16468 21.8179C7.37465 21.3281 5.85684 20.3723 6.34689 18.1443C6.61294 17.0644 7.2593 16.1164 8.16762 15.474C9.18798 14.7941 10.3962 14.4514 11.6218 14.4944C15.5422 14.4944 17.0362 17.8756 17.0668 21.3281H18.3907L19.7519 13.3447H18.6459L17.0158 15.2529C15.6546 13.7596 14.0245 13.1235 11.8192 13.1235C7.87489 13.1235 4.64191 15.3754 3.76049 19.4913C3.39295 21.1921 3.63798 22.8215 4.83589 23.8759C6.19716 25.1005 7.85113 25.3931 9.66496 25.8829L12.5815 26.6924C13.4629 26.9374 14.1742 27.2061 14.6642 27.917C15.1543 28.5769 15.2257 29.8015 15.0318 30.7335C14.7867 31.8833 13.9529 32.914 12.9218 33.6487C11.7915 34.4265 10.4367 34.8113 9.06599 34.744C4.73039 34.744 2.86546 31.5159 2.96415 27.5735C2.98798 27.451 2.94033 27.3285 2.96415 27.2061L1.64033 27.3047L0 35.8767H1.12645L2.91651 33.7711C3.6063 34.4714 4.4123 35.0468 5.29872 35.4719C6.42171 35.8535 7.59474 36.0678 8.78017 36.108C10.4443 36.108 12.5509 35.7168 14.1436 34.6386C15.9344 33.4565 17.1989 31.6283 17.6726 29.5361C17.9857 28.0633 17.9347 26.6924 17.2506 25.4679Z" fill="#DD052A"/>
  </g>
  <defs>
    <clipPath id="clip0_9_155">
      <rect width="132" height="52" fill="white"/>
    </clipPath>
  </defs>
</svg>
